G04*
G04 #@! TF.GenerationSoftware,Altium Limited,Altium Designer,18.1.6 (161)*
G04*
G04 Layer_Physical_Order=2*
G04 Layer_Color=16711680*
%FSTAX24Y24*%
%MOIN*%
G70*
G01*
G75*
%ADD12C,0.0100*%
G04:AMPARAMS|DCode=67|XSize=110.2mil|YSize=94.5mil|CornerRadius=0mil|HoleSize=0mil|Usage=FLASHONLY|Rotation=0.000|XOffset=0mil|YOffset=0mil|HoleType=Round|Shape=Octagon|*
%AMOCTAGOND67*
4,1,8,0.0551,-0.0236,0.0551,0.0236,0.0315,0.0472,-0.0315,0.0472,-0.0551,0.0236,-0.0551,-0.0236,-0.0315,-0.0472,0.0315,-0.0472,0.0551,-0.0236,0.0*
%
%ADD67OCTAGOND67*%

%ADD71C,0.0787*%
%ADD78C,0.0200*%
%ADD80R,0.0630X0.0630*%
%ADD81C,0.0630*%
%ADD82R,0.0630X0.0630*%
%ADD83R,0.0709X0.0709*%
%ADD84C,0.0709*%
G04:AMPARAMS|DCode=85|XSize=78.7mil|YSize=47.2mil|CornerRadius=14.2mil|HoleSize=0mil|Usage=FLASHONLY|Rotation=0.000|XOffset=0mil|YOffset=0mil|HoleType=Round|Shape=RoundedRectangle|*
%AMROUNDEDRECTD85*
21,1,0.0787,0.0189,0,0,0.0*
21,1,0.0504,0.0472,0,0,0.0*
1,1,0.0283,0.0252,-0.0094*
1,1,0.0283,-0.0252,-0.0094*
1,1,0.0283,-0.0252,0.0094*
1,1,0.0283,0.0252,0.0094*
%
%ADD85ROUNDEDRECTD85*%
%ADD86C,0.0750*%
%ADD87C,0.0200*%
%ADD88C,0.1299*%
%ADD89C,0.0300*%
G36*
X0285Y010152D02*
X02845Y010139D01*
X028393Y010246D01*
X028304Y010354D01*
X028196Y010443D01*
X028073Y010509D01*
X027939Y010549D01*
X0278Y010563D01*
X027661Y010549D01*
X027527Y010509D01*
X027404Y010443D01*
X027296Y010354D01*
X027207Y010246D01*
X027141Y010123D01*
X027101Y009989D01*
X027087Y00985D01*
X027101Y009711D01*
X027141Y009577D01*
X027207Y009454D01*
X027296Y009346D01*
X027404Y009257D01*
X027511Y0092D01*
X027498Y00915D01*
X011102D01*
X011089Y0092D01*
X011196Y009257D01*
X011304Y009346D01*
X011393Y009454D01*
X011459Y009577D01*
X011499Y009711D01*
X011513Y00985D01*
X011499Y009989D01*
X011459Y010123D01*
X011393Y010246D01*
X011304Y010354D01*
X011196Y010443D01*
X011073Y010509D01*
X010939Y010549D01*
X0108Y010563D01*
X010661Y010549D01*
X010527Y010509D01*
X010404Y010443D01*
X010296Y010354D01*
X010207Y010246D01*
X01015Y010139D01*
X0101Y010152D01*
Y029948D01*
X01015Y029961D01*
X010207Y029854D01*
X010296Y029746D01*
X010404Y029657D01*
X010527Y029591D01*
X010661Y029551D01*
X0108Y029537D01*
X010939Y029551D01*
X011073Y029591D01*
X011196Y029657D01*
X011304Y029746D01*
X011393Y029854D01*
X011459Y029977D01*
X011499Y030111D01*
X011513Y03025D01*
X011499Y030389D01*
X011459Y030523D01*
X011393Y030646D01*
X011304Y030754D01*
X011196Y030843D01*
X011089Y0309D01*
X011102Y03095D01*
X014285D01*
Y0258D01*
X014304Y025754D01*
X01435Y025735D01*
X021412D01*
X021435Y025691D01*
X021427Y025678D01*
X021421Y02565D01*
X021565D01*
Y025845D01*
X021565Y025845D01*
Y03095D01*
X0285D01*
Y010152D01*
D02*
G37*
%LPC*%
G36*
X027265Y030765D02*
X0269D01*
Y0304D01*
X027265D01*
Y030765D01*
D02*
G37*
G36*
X0268D02*
X026435D01*
Y0304D01*
X0268D01*
Y030765D01*
D02*
G37*
G36*
X027895Y030712D02*
Y03035D01*
X028257D01*
X02825Y030408D01*
X028208Y030509D01*
X028141Y030596D01*
X028055Y030662D01*
X027954Y030704D01*
X027895Y030712D01*
D02*
G37*
G36*
X027795D02*
X027737Y030704D01*
X027636Y030662D01*
X027549Y030596D01*
X027483Y030509D01*
X027441Y030408D01*
X027433Y03035D01*
X027795D01*
Y030712D01*
D02*
G37*
G36*
X02585Y030728D02*
X025752Y030715D01*
X025661Y030678D01*
X025583Y030617D01*
X025522Y030539D01*
X025485Y030448D01*
X025472Y03035D01*
X025485Y030252D01*
X025522Y030161D01*
X025583Y030083D01*
X025661Y030022D01*
X025752Y029985D01*
X02585Y029972D01*
X025948Y029985D01*
X026039Y030022D01*
X026117Y030083D01*
X026178Y030161D01*
X026215Y030252D01*
X026228Y03035D01*
X026215Y030448D01*
X026178Y030539D01*
X026117Y030617D01*
X026039Y030678D01*
X025948Y030715D01*
X02585Y030728D01*
D02*
G37*
G36*
X02485D02*
X024752Y030715D01*
X024661Y030678D01*
X024583Y030617D01*
X024522Y030539D01*
X024485Y030448D01*
X024472Y03035D01*
X024485Y030252D01*
X024522Y030161D01*
X024583Y030083D01*
X024661Y030022D01*
X024752Y029985D01*
X02485Y029972D01*
X024948Y029985D01*
X025039Y030022D01*
X025117Y030083D01*
X025178Y030161D01*
X025215Y030252D01*
X025228Y03035D01*
X025215Y030448D01*
X025178Y030539D01*
X025117Y030617D01*
X025039Y030678D01*
X024948Y030715D01*
X02485Y030728D01*
D02*
G37*
G36*
X02385D02*
X023752Y030715D01*
X023661Y030678D01*
X023583Y030617D01*
X023522Y030539D01*
X023485Y030448D01*
X023472Y03035D01*
X023485Y030252D01*
X023522Y030161D01*
X023583Y030083D01*
X023661Y030022D01*
X023752Y029985D01*
X02385Y029972D01*
X023948Y029985D01*
X024039Y030022D01*
X024117Y030083D01*
X024178Y030161D01*
X024215Y030252D01*
X024228Y03035D01*
X024215Y030448D01*
X024178Y030539D01*
X024117Y030617D01*
X024039Y030678D01*
X023948Y030715D01*
X02385Y030728D01*
D02*
G37*
G36*
X027265Y0303D02*
X0269D01*
Y029935D01*
X027265D01*
Y0303D01*
D02*
G37*
G36*
X0268D02*
X026435D01*
Y029935D01*
X0268D01*
Y0303D01*
D02*
G37*
G36*
X028257Y03025D02*
X027895D01*
Y029888D01*
X027954Y029896D01*
X028055Y029938D01*
X028141Y030004D01*
X028208Y030091D01*
X02825Y030192D01*
X028257Y03025D01*
D02*
G37*
G36*
X027795D02*
X027433D01*
X027441Y030192D01*
X027483Y030091D01*
X027549Y030004D01*
X027636Y029938D01*
X027737Y029896D01*
X027795Y029888D01*
Y03025D01*
D02*
G37*
G36*
X027845Y029678D02*
X027747Y029665D01*
X027656Y029628D01*
X027578Y029567D01*
X027518Y029489D01*
X027507Y029463D01*
X02745D01*
X027388Y029451D01*
X027335Y029415D01*
X026935Y029015D01*
X026899Y028962D01*
X026887Y0289D01*
Y026106D01*
X026885Y026102D01*
X026885Y026086D01*
X026884Y026037D01*
X026883Y026028D01*
X026852Y025982D01*
X026836Y0259D01*
X026852Y025818D01*
X026881Y025775D01*
X026885Y025695D01*
X026887Y025691D01*
Y024862D01*
X026885Y024857D01*
X026885Y024841D01*
X026884Y024792D01*
X026883Y024784D01*
X026852Y024737D01*
X026836Y024655D01*
X026852Y024573D01*
X026899Y024504D01*
X026968Y024457D01*
X02705Y024441D01*
X027132Y024457D01*
X027201Y024504D01*
X027248Y024573D01*
X027264Y024655D01*
X027248Y024737D01*
X027219Y02478D01*
X027215Y02486D01*
X027213Y024864D01*
Y025694D01*
X027215Y025698D01*
X027215Y025714D01*
X027216Y025763D01*
X027217Y025772D01*
X027248Y025818D01*
X027264Y0259D01*
X027248Y025982D01*
X027219Y026025D01*
X027215Y026105D01*
X027213Y026109D01*
Y028832D01*
X027475Y029094D01*
X027537Y029086D01*
X027578Y029033D01*
X027656Y028972D01*
X027747Y028935D01*
X027845Y028922D01*
X027943Y028935D01*
X028034Y028972D01*
X028113Y029033D01*
X028173Y029111D01*
X028211Y029202D01*
X028223Y0293D01*
X028211Y029398D01*
X028173Y029489D01*
X028113Y029567D01*
X028034Y029628D01*
X027943Y029665D01*
X027845Y029678D01*
D02*
G37*
G36*
X011064Y029164D02*
X010236D01*
Y028336D01*
X011064D01*
Y029164D01*
D02*
G37*
G36*
X02665Y028363D02*
X026588Y028351D01*
X026544Y028321D01*
X026542Y028321D01*
X02654Y02832D01*
X026539Y02832D01*
X026539Y02832D01*
X026538Y02832D01*
X026536Y028319D01*
X026535Y028319D01*
X026535Y028318D01*
X026533Y028318D01*
X02653Y028317D01*
X026526Y028316D01*
X026511Y028315D01*
X026502Y028315D01*
X026496Y028312D01*
X02225D01*
X02225Y028312D01*
X022207Y028304D01*
X022171Y028279D01*
X021746Y027854D01*
X021721Y027818D01*
X021713Y027775D01*
X021713Y027775D01*
Y025831D01*
X021665Y025796D01*
Y0256D01*
Y025404D01*
X021713Y025369D01*
Y020616D01*
X02171Y02061D01*
X02171Y020601D01*
X021709Y020595D01*
X021709Y02059D01*
X021708Y020587D01*
X021708Y020587D01*
X021707Y020585D01*
X021677Y020565D01*
X021642Y020512D01*
X021629Y02045D01*
X021642Y020388D01*
X021677Y020335D01*
X02173Y020299D01*
X021792Y020287D01*
X021838Y020296D01*
X021888Y020266D01*
Y020176D01*
X021887Y020175D01*
X021888Y020168D01*
Y020168D01*
X021885Y020161D01*
X021885Y020152D01*
X021885Y020149D01*
X021835Y020115D01*
X021799Y020062D01*
X021787Y02D01*
X021799Y019938D01*
X021835Y019885D01*
X021888Y019849D01*
X02195Y019837D01*
X022012Y019849D01*
X022065Y019885D01*
X022101Y019938D01*
X022109Y019979D01*
X022113Y019985D01*
X022112Y019993D01*
X022115Y020001D01*
X022115Y020004D01*
X022114Y020006D01*
X022115Y020008D01*
X022114Y020018D01*
X022113Y02002D01*
X022113Y020022D01*
X022113Y020025D01*
X022112Y020026D01*
Y020028D01*
X022112Y020029D01*
X022112Y02003D01*
Y020351D01*
X022115Y020363D01*
X022115Y020363D01*
Y020537D01*
X022115Y020537D01*
X022112Y020549D01*
Y02434D01*
X022162Y024366D01*
X022188Y024349D01*
X02225Y024337D01*
X022312Y024349D01*
X022338Y024366D01*
X022388Y02434D01*
Y022955D01*
X022385Y022949D01*
X022384Y022931D01*
X022384Y022925D01*
X022383Y02292D01*
X022382Y022917D01*
X022382Y022915D01*
X022381Y022915D01*
X022381Y022914D01*
X02238Y022912D01*
X02238Y022911D01*
X02238Y022911D01*
X02238Y02291D01*
X022379Y022908D01*
X022379Y022906D01*
X022349Y022862D01*
X022337Y0228D01*
X022349Y022738D01*
X022385Y022685D01*
X022424Y022658D01*
X022439Y022602D01*
X022285Y022448D01*
X022249Y022395D01*
X022237Y022332D01*
Y020649D01*
X022235Y020644D01*
X022237Y020641D01*
Y019306D01*
X022235Y019302D01*
X022235Y019286D01*
X022234Y019237D01*
X022233Y019228D01*
X022202Y019182D01*
X022186Y0191D01*
X022202Y019018D01*
X022249Y018949D01*
X022318Y018902D01*
X0224Y018886D01*
X022482Y018902D01*
X022551Y018949D01*
X022598Y019018D01*
X022614Y0191D01*
X022598Y019182D01*
X022569Y019225D01*
X022565Y019305D01*
X022563Y019309D01*
Y020173D01*
X022589Y020193D01*
X022622Y020198D01*
X023385Y019435D01*
X023438Y019399D01*
X0235Y019387D01*
X024344D01*
X024348Y019385D01*
X024364Y019385D01*
X024413Y019384D01*
X024422Y019383D01*
X024468Y019352D01*
X02455Y019336D01*
X024632Y019352D01*
X024701Y019399D01*
X024748Y019468D01*
X024764Y01955D01*
X024748Y019632D01*
X024701Y019701D01*
X024632Y019748D01*
X02455Y019764D01*
X024468Y019748D01*
X024425Y019719D01*
X024345Y019715D01*
X024341Y019713D01*
X023568D01*
X02269Y02059D01*
X022689Y020594D01*
X022664Y020621D01*
X022643Y020648D01*
X022624Y020674D01*
X022609Y020702D01*
X022595Y020731D01*
X022585Y020761D01*
X022576Y020791D01*
X02257Y020823D01*
X022566Y020857D01*
X022565Y020894D01*
X022564Y020896D01*
X022565Y020897D01*
X022563Y0209D01*
Y022265D01*
X022875Y022577D01*
X022907Y022624D01*
X022931Y022623D01*
X022957Y022615D01*
Y021621D01*
X022955Y021619D01*
X022956Y021613D01*
X022954Y021606D01*
X022954Y021597D01*
X022953Y021591D01*
X022952Y021586D01*
X022952Y021582D01*
X022951Y02158D01*
X022951Y02158D01*
X02295Y021578D01*
X02295Y021577D01*
X022949Y021577D01*
X022949Y021575D01*
X022935Y021565D01*
X022899Y021512D01*
X022887Y02145D01*
X022899Y021388D01*
X022935Y021335D01*
X022988Y021299D01*
X02305Y021287D01*
X023112Y021299D01*
X023165Y021335D01*
X023201Y021388D01*
X023213Y02145D01*
X023201Y021512D01*
X023189Y021529D01*
X023189Y021534D01*
X023189Y021538D01*
X023188Y02154D01*
X023188Y021541D01*
X023187Y021541D01*
X023186Y021548D01*
X023185Y021551D01*
X023184Y021575D01*
X023184Y021583D01*
X023181Y02159D01*
Y022527D01*
X023231Y022554D01*
X023238Y022549D01*
X0233Y022537D01*
X023362Y022549D01*
X023415Y022585D01*
X023451Y022638D01*
X023463Y0227D01*
X023451Y022762D01*
X023421Y022806D01*
X023421Y022808D01*
X02342Y02281D01*
X02342Y022811D01*
X02342Y022811D01*
X02342Y022812D01*
X023419Y022814D01*
X023419Y022815D01*
X023418Y022815D01*
X023418Y022817D01*
X023417Y02282D01*
X023416Y022824D01*
X023415Y022839D01*
X023415Y022848D01*
X023412Y022854D01*
Y024089D01*
X023462Y024104D01*
X023485Y02407D01*
X023538Y024035D01*
X0236Y024023D01*
X023662Y024035D01*
X023706Y024064D01*
X023708Y024065D01*
X02371Y024065D01*
X023711Y024066D01*
X023711Y024066D01*
X023712Y024066D01*
X023714Y024067D01*
X023715Y024067D01*
X023715Y024067D01*
X023717Y024068D01*
X02372Y024069D01*
X023724Y02407D01*
X023739Y024071D01*
X023748Y024071D01*
X023754Y024074D01*
X027457D01*
X027462Y024071D01*
X027477Y02407D01*
X027491Y024067D01*
X02751Y024061D01*
X027533Y024052D01*
X027558Y024041D01*
X027698Y023961D01*
X027739Y023934D01*
X027739Y023934D01*
X027739Y023934D01*
X027748Y023932D01*
X027761Y023922D01*
X027852Y023885D01*
X02795Y023872D01*
X028048Y023885D01*
X028139Y023922D01*
X028217Y023983D01*
X028278Y024061D01*
X028315Y024152D01*
X028328Y02425D01*
X028315Y024348D01*
X028278Y024439D01*
X028217Y024517D01*
X028139Y024578D01*
X028048Y024615D01*
X02795Y024628D01*
X027852Y024615D01*
X027761Y024578D01*
X027683Y024517D01*
X027641Y024463D01*
X027631Y024456D01*
X027608Y024423D01*
X027587Y024395D01*
X027566Y02437D01*
X027546Y02435D01*
X027527Y024333D01*
X027508Y024321D01*
X027491Y024312D01*
X027475Y024305D01*
X027461Y024302D01*
X027441Y024301D01*
X027437Y024299D01*
X027433Y024299D01*
X027431Y024298D01*
X024674D01*
X024642Y024348D01*
X024644Y024357D01*
X024256D01*
X024258Y024348D01*
X024226Y024298D01*
X023755D01*
X023749Y024301D01*
X023731Y024301D01*
X023725Y024302D01*
X02372Y024303D01*
X023717Y024304D01*
X023715Y024304D01*
X023715Y024304D01*
X023714Y024305D01*
X023712Y024306D01*
X023711Y024306D01*
X023711Y024306D01*
X02371Y024306D01*
X023708Y024307D01*
X023706Y024307D01*
X023662Y024337D01*
X0236Y024349D01*
X023538Y024337D01*
X023485Y024301D01*
X023462Y024268D01*
X023412Y024283D01*
Y024795D01*
X023415Y024801D01*
X023416Y024819D01*
X023416Y024825D01*
X023417Y02483D01*
X023418Y024833D01*
X023418Y024835D01*
X023419Y024835D01*
X023419Y024836D01*
X02342Y024838D01*
X02342Y024839D01*
X02342Y024839D01*
X02342Y02484D01*
X023421Y024842D01*
X023421Y024844D01*
X023451Y024888D01*
X023463Y02495D01*
X023451Y025012D01*
X023415Y025065D01*
X023362Y025101D01*
X0233Y025113D01*
X023292Y025111D01*
X023262Y025156D01*
X023266Y025164D01*
X023283Y025246D01*
X023266Y025328D01*
X02322Y025397D01*
X023151Y025444D01*
X023069Y02546D01*
X022987Y025444D01*
X022917Y025397D01*
X022871Y025328D01*
X022861Y025277D01*
X022807Y025217D01*
X022806Y025213D01*
X022662Y02507D01*
X022612Y025091D01*
Y025409D01*
X022941Y025738D01*
X023105D01*
X023111Y025735D01*
X023129Y025734D01*
X023135Y025734D01*
X02314Y025733D01*
X023143Y025732D01*
X023145Y025732D01*
X023145Y025731D01*
X023146Y025731D01*
X023148Y02573D01*
X023149Y02573D01*
X023149Y02573D01*
X02315Y02573D01*
X023152Y025729D01*
X023154Y025729D01*
X023198Y025699D01*
X02326Y025687D01*
X023322Y025699D01*
X023375Y025735D01*
X023411Y025788D01*
X023423Y02585D01*
X023411Y025912D01*
X023375Y025965D01*
X023322Y026001D01*
X02326Y026013D01*
X023198Y026001D01*
X023154Y025971D01*
X023152Y025971D01*
X02315Y02597D01*
X023149Y02597D01*
X023149Y02597D01*
X023148Y02597D01*
X023146Y025969D01*
X023145Y025969D01*
X023145Y025968D01*
X023143Y025968D01*
X02314Y025967D01*
X023136Y025966D01*
X023121Y025965D01*
X023112Y025965D01*
X023106Y025962D01*
X022895D01*
X022852Y025954D01*
X022816Y025929D01*
X022816Y025929D01*
X022446Y02556D01*
X022391Y025575D01*
X022389Y025581D01*
X022996Y026188D01*
X024695D01*
X024701Y026185D01*
X024719Y026184D01*
X024725Y026184D01*
X02473Y026183D01*
X024733Y026182D01*
X024735Y026182D01*
X024735Y026181D01*
X024736Y026181D01*
X024738Y02618D01*
X024739Y02618D01*
X024739Y02618D01*
X02474Y02618D01*
X024742Y026179D01*
X024744Y026179D01*
X024788Y026149D01*
X02485Y026137D01*
X024912Y026149D01*
X024965Y026185D01*
X025001Y026238D01*
X025013Y0263D01*
X025001Y026362D01*
X024965Y026415D01*
X024912Y026451D01*
X02485Y026463D01*
X024788Y026451D01*
X024744Y026421D01*
X024742Y026421D01*
X02474Y02642D01*
X024739Y02642D01*
X024739Y02642D01*
X024738Y02642D01*
X024736Y026419D01*
X024735Y026419D01*
X024735Y026418D01*
X024733Y026418D01*
X02473Y026417D01*
X024726Y026416D01*
X024711Y026415D01*
X024702Y026415D01*
X024696Y026412D01*
X02295D01*
X022907Y026404D01*
X022871Y026379D01*
X022871Y026379D01*
X022171Y025679D01*
X022162Y025667D01*
X022112Y025682D01*
Y026054D01*
X023246Y027188D01*
X026475D01*
X026481Y027185D01*
X0265Y027184D01*
X026505Y027184D01*
X02651Y027183D01*
X026513Y027182D01*
X026516Y027182D01*
X026516Y027181D01*
X026516Y027181D01*
X026518Y02718D01*
X026519Y02718D01*
X026519Y02718D01*
X026521Y02718D01*
X026522Y027179D01*
X026524Y027179D01*
X026568Y027149D01*
X02663Y027137D01*
X026693Y027149D01*
X026746Y027185D01*
X026781Y027238D01*
X026793Y0273D01*
X026781Y027362D01*
X026746Y027415D01*
X026693Y027451D01*
X02663Y027463D01*
X026568Y027451D01*
X026524Y027421D01*
X026522Y027421D01*
X026521Y02742D01*
X026519Y02742D01*
X026519Y02742D01*
X026518Y02742D01*
X026516Y027419D01*
X026516Y027419D01*
X026516Y027418D01*
X026513Y027418D01*
X02651Y027417D01*
X026506Y027416D01*
X026491Y027415D01*
X026482Y027415D01*
X026476Y027412D01*
X0232D01*
X023157Y027404D01*
X023121Y027379D01*
X023121Y027379D01*
X021983Y026242D01*
X021937Y026261D01*
Y027729D01*
X022296Y028088D01*
X026495D01*
X026501Y028085D01*
X026519Y028084D01*
X026525Y028084D01*
X02653Y028083D01*
X026533Y028082D01*
X026535Y028082D01*
X026535Y028081D01*
X026536Y028081D01*
X026538Y02808D01*
X026539Y02808D01*
X026539Y02808D01*
X02654Y02808D01*
X026542Y028079D01*
X026544Y028079D01*
X026588Y028049D01*
X02665Y028037D01*
X026712Y028049D01*
X026765Y028085D01*
X026801Y028138D01*
X026813Y0282D01*
X026801Y028262D01*
X026765Y028315D01*
X026712Y028351D01*
X02665Y028363D01*
D02*
G37*
G36*
X027845Y028678D02*
X027747Y028665D01*
X027656Y028628D01*
X027578Y028567D01*
X027518Y028489D01*
X02748Y028398D01*
X027467Y0283D01*
X02748Y028202D01*
X027518Y028111D01*
X027578Y028033D01*
X027656Y027972D01*
X027747Y027935D01*
X027845Y027922D01*
X027943Y027935D01*
X028034Y027972D01*
X028113Y028033D01*
X028173Y028111D01*
X028211Y028202D01*
X028223Y0283D01*
X028211Y028398D01*
X028173Y028489D01*
X028113Y028567D01*
X028034Y028628D01*
X027943Y028665D01*
X027845Y028678D01*
D02*
G37*
G36*
X01065Y028168D02*
X010542Y028154D01*
X010441Y028112D01*
X010354Y028045D01*
X010288Y027959D01*
X010246Y027858D01*
X010232Y02775D01*
X010246Y027642D01*
X010288Y027541D01*
X010354Y027455D01*
X010441Y027388D01*
X010542Y027346D01*
X01065Y027332D01*
X010653Y027331D01*
X010705Y02733D01*
X010796Y027325D01*
X010834Y02732D01*
X010868Y027314D01*
X010897Y027306D01*
X010922Y027298D01*
X010941Y027289D01*
X010956Y027279D01*
X010971Y027267D01*
X010976Y027265D01*
X010988Y027254D01*
Y027065D01*
X010938Y027051D01*
X010859Y027112D01*
X010758Y027154D01*
X01065Y027168D01*
X010542Y027154D01*
X010441Y027112D01*
X010354Y027046D01*
X010288Y026959D01*
X010246Y026858D01*
X010232Y02675D01*
X010246Y026642D01*
X010288Y026541D01*
X010354Y026455D01*
X010441Y026388D01*
X010542Y026346D01*
X01065Y026332D01*
X010758Y026346D01*
X010859Y026388D01*
X010938Y026449D01*
X010988Y026435D01*
Y026126D01*
X010938Y026102D01*
X010879Y026147D01*
X010769Y026193D01*
X0107Y026202D01*
Y02575D01*
Y025298D01*
X010769Y025307D01*
X010879Y025353D01*
X010938Y025398D01*
X010988Y025374D01*
Y02265D01*
X010988Y02265D01*
X010996Y022607D01*
X011021Y022571D01*
X011706Y021886D01*
X011742Y021862D01*
X011785Y021853D01*
X011785Y021853D01*
X013125D01*
X013131Y02185D01*
X013161Y02185D01*
X013174Y021849D01*
X013182Y021848D01*
X013182Y021848D01*
X013184Y021848D01*
X013184Y021848D01*
X013185Y021848D01*
X013186Y021848D01*
X013188Y021848D01*
X013245Y021837D01*
X013308Y021849D01*
X013361Y021885D01*
X013396Y021938D01*
X013408Y022D01*
X013396Y022062D01*
X013361Y022115D01*
X013308Y022151D01*
X013245Y022163D01*
X013183Y022151D01*
X01313Y022115D01*
X013108Y022082D01*
X013108Y022082D01*
X013107Y022082D01*
X013104Y022081D01*
X0131Y022081D01*
X013094Y02208D01*
X013085Y02208D01*
X013079Y022077D01*
X011831D01*
X011212Y022696D01*
Y023717D01*
X011262Y023744D01*
X011288Y023727D01*
X01135Y023715D01*
X011412Y023727D01*
X011465Y023763D01*
X011477Y023781D01*
X011479Y023781D01*
X01148Y023782D01*
X011481Y023782D01*
X011482Y023783D01*
X011484Y023783D01*
X011486Y023784D01*
X011499Y023785D01*
X011508Y023785D01*
X011514Y023788D01*
X012845D01*
X012851Y023785D01*
X012869Y023784D01*
X012875Y023784D01*
X01288Y023783D01*
X012883Y023782D01*
X012885Y023782D01*
X012885Y023781D01*
X012886Y023781D01*
X012888Y02378D01*
X012889Y02378D01*
X012889Y02378D01*
X01289Y02378D01*
X012892Y023779D01*
X012894Y023779D01*
X012938Y023749D01*
X013Y023737D01*
X013062Y023749D01*
X013115Y023785D01*
X013151Y023838D01*
X013163Y0239D01*
X013151Y023962D01*
X013115Y024015D01*
X013062Y024051D01*
X013Y024063D01*
X012938Y024051D01*
X012894Y024021D01*
X012892Y024021D01*
X01289Y02402D01*
X012889Y02402D01*
X012889Y02402D01*
X012888Y02402D01*
X012886Y024019D01*
X012885Y024019D01*
X012885Y024018D01*
X012883Y024018D01*
X01288Y024017D01*
X012876Y024016D01*
X012861Y024015D01*
X012852Y024015D01*
X012846Y024012D01*
X01226D01*
X012245Y024062D01*
X012251Y024067D01*
X012298Y024136D01*
X012314Y024218D01*
X012298Y0243D01*
X012269Y024343D01*
X012265Y024423D01*
X012263Y024427D01*
Y025894D01*
X012265Y025898D01*
X012265Y025914D01*
X012266Y025963D01*
X012267Y025972D01*
X012298Y026018D01*
X012314Y0261D01*
X012298Y026182D01*
X012251Y026251D01*
X012182Y026298D01*
X0121Y026314D01*
X012018Y026298D01*
X011949Y026251D01*
X011902Y026182D01*
X011886Y0261D01*
X011902Y026018D01*
X011931Y025975D01*
X011935Y025895D01*
X011937Y025891D01*
Y024424D01*
X011935Y02442D01*
X011935Y024404D01*
X011934Y024355D01*
X011933Y024347D01*
X011902Y0243D01*
X011886Y024218D01*
X011902Y024136D01*
X011949Y024067D01*
X011955Y024062D01*
X01194Y024012D01*
X011515D01*
X011509Y024015D01*
X011479Y024015D01*
X011456Y024017D01*
X011439Y024019D01*
X011435Y024019D01*
X011433Y02402D01*
X01143Y024021D01*
X011425Y024021D01*
X011412Y024029D01*
X01135Y024041D01*
X011288Y024029D01*
X011262Y024012D01*
X011212Y024038D01*
Y025506D01*
X011218Y025515D01*
X011226Y025558D01*
X011226Y025558D01*
Y025942D01*
X011226Y025942D01*
X011218Y025985D01*
X011212Y025994D01*
Y026506D01*
X011218Y026515D01*
X011226Y026558D01*
X011226Y026558D01*
Y026942D01*
X011226Y026942D01*
X011218Y026985D01*
X011212Y026994D01*
Y0273D01*
X011212Y0273D01*
X011204Y027343D01*
X011179Y027379D01*
X011179Y027379D01*
X011135Y027424D01*
X011133Y027429D01*
X011121Y027444D01*
X011111Y027459D01*
X011102Y027478D01*
X011094Y027503D01*
X011086Y027532D01*
X01108Y027566D01*
X011075Y027604D01*
X01107Y027695D01*
X011069Y027747D01*
X011068Y02775D01*
X011054Y027858D01*
X011012Y027959D01*
X010946Y028045D01*
X010859Y028112D01*
X010758Y028154D01*
X01065Y028168D01*
D02*
G37*
G36*
X02822Y027675D02*
X02747D01*
Y026925D01*
X02822D01*
Y027675D01*
D02*
G37*
G36*
X026Y026495D02*
Y0263D01*
X026195D01*
X026186Y026348D01*
X02613Y02643D01*
X026048Y026486D01*
X026Y026495D01*
D02*
G37*
G36*
X0259D02*
X025852Y026486D01*
X02577Y02643D01*
X025714Y026348D01*
X025705Y0263D01*
X0259D01*
Y026495D01*
D02*
G37*
G36*
X026195Y0262D02*
X026D01*
Y026005D01*
X026048Y026014D01*
X02613Y02607D01*
X026186Y026152D01*
X026195Y0262D01*
D02*
G37*
G36*
X0259D02*
X025705D01*
X025714Y026152D01*
X02577Y02607D01*
X025852Y026014D01*
X0259Y026005D01*
Y0262D01*
D02*
G37*
G36*
X028325Y026625D02*
X027575D01*
Y025875D01*
X028325D01*
Y026625D01*
D02*
G37*
G36*
X0106Y026202D02*
X010531Y026193D01*
X010421Y026147D01*
X010326Y026074D01*
X010253Y025979D01*
X010207Y025869D01*
X010198Y0258D01*
X0106D01*
Y026202D01*
D02*
G37*
G36*
X01395Y025795D02*
Y0256D01*
X014145D01*
X014136Y025648D01*
X01408Y02573D01*
X013998Y025786D01*
X01395Y025795D01*
D02*
G37*
G36*
X01385D02*
X013802Y025786D01*
X01372Y02573D01*
X013664Y025648D01*
X013655Y0256D01*
X01385D01*
Y025795D01*
D02*
G37*
G36*
X021565Y02555D02*
X021421D01*
X021427Y025522D01*
X021471Y025456D01*
X021537Y025412D01*
X021565Y025406D01*
Y02555D01*
D02*
G37*
G36*
X014145Y0255D02*
X01395D01*
Y025305D01*
X013998Y025315D01*
X01408Y02537D01*
X014136Y025452D01*
X014145Y0255D01*
D02*
G37*
G36*
X01385D02*
X013655D01*
X013664Y025452D01*
X01372Y02537D01*
X013802Y025315D01*
X01385Y025305D01*
Y0255D01*
D02*
G37*
G36*
X028Y025662D02*
Y0253D01*
X028362D01*
X028354Y025358D01*
X028312Y025459D01*
X028246Y025546D01*
X028159Y025612D01*
X028058Y025654D01*
X028Y025662D01*
D02*
G37*
G36*
X0279D02*
X027842Y025654D01*
X027741Y025612D01*
X027654Y025546D01*
X027588Y025459D01*
X027546Y025358D01*
X027538Y0253D01*
X0279D01*
Y025662D01*
D02*
G37*
G36*
X0106Y0257D02*
X010198D01*
X010207Y025631D01*
X010253Y025521D01*
X010326Y025426D01*
X010421Y025353D01*
X010531Y025307D01*
X0106Y025298D01*
Y0257D01*
D02*
G37*
G36*
X028362Y0252D02*
X028D01*
Y024838D01*
X028058Y024846D01*
X028159Y024888D01*
X028246Y024954D01*
X028312Y025041D01*
X028354Y025142D01*
X028362Y0252D01*
D02*
G37*
G36*
X0279D02*
X027538D01*
X027546Y025142D01*
X027588Y025041D01*
X027654Y024954D01*
X027741Y024888D01*
X027842Y024846D01*
X0279Y024838D01*
Y0252D01*
D02*
G37*
G36*
X0136Y024944D02*
Y0248D01*
X013744D01*
X013738Y024828D01*
X013694Y024894D01*
X013628Y024938D01*
X0136Y024944D01*
D02*
G37*
G36*
X0135D02*
X013472Y024938D01*
X013406Y024894D01*
X013362Y024828D01*
X013356Y0248D01*
X0135D01*
Y024944D01*
D02*
G37*
G36*
X013744Y0247D02*
X0136D01*
Y024556D01*
X013628Y024562D01*
X013694Y024606D01*
X013738Y024672D01*
X013744Y0247D01*
D02*
G37*
G36*
X0135D02*
X013356D01*
X013362Y024672D01*
X013406Y024606D01*
X013472Y024562D01*
X0135Y024556D01*
Y0247D01*
D02*
G37*
G36*
X0245Y024601D02*
Y024457D01*
X024644D01*
X024638Y024485D01*
X024594Y024551D01*
X024528Y024595D01*
X0245Y024601D01*
D02*
G37*
G36*
X0244D02*
X024372Y024595D01*
X024306Y024551D01*
X024262Y024485D01*
X024256Y024457D01*
X0244D01*
Y024601D01*
D02*
G37*
G36*
X01241Y023544D02*
Y0234D01*
X012554D01*
X012548Y023428D01*
X012504Y023494D01*
X012438Y023538D01*
X01241Y023544D01*
D02*
G37*
G36*
X01231D02*
X012282Y023538D01*
X012216Y023494D01*
X012172Y023428D01*
X012166Y0234D01*
X01231D01*
Y023544D01*
D02*
G37*
G36*
X012554Y0233D02*
X01241D01*
Y023156D01*
X012438Y023162D01*
X012504Y023206D01*
X012548Y023272D01*
X012554Y0233D01*
D02*
G37*
G36*
X01231D02*
X012166D01*
X012172Y023272D01*
X012216Y023206D01*
X012282Y023162D01*
X01231Y023156D01*
Y0233D01*
D02*
G37*
G36*
X02795Y023628D02*
X027852Y023615D01*
X027761Y023578D01*
X027683Y023517D01*
X027622Y023439D01*
X027585Y023348D01*
X027572Y02325D01*
X027585Y023152D01*
X027595Y023127D01*
X027594Y023117D01*
X027596Y023111D01*
X027585Y023086D01*
X027578Y023077D01*
X027562Y023062D01*
X026255D01*
X026249Y023065D01*
X026231Y023066D01*
X026225Y023066D01*
X02622Y023067D01*
X026217Y023068D01*
X026215Y023068D01*
X026215Y023069D01*
X026214Y023069D01*
X026212Y02307D01*
X026211Y02307D01*
X026211Y02307D01*
X02621Y02307D01*
X026208Y023071D01*
X026206Y023071D01*
X026162Y023101D01*
X0261Y023113D01*
X026038Y023101D01*
X025985Y023065D01*
X025949Y023012D01*
X025937Y02295D01*
X025949Y022888D01*
X025985Y022835D01*
X026038Y022799D01*
X0261Y022787D01*
X026162Y022799D01*
X026206Y022829D01*
X026208Y022829D01*
X02621Y02283D01*
X026211Y02283D01*
X026211Y02283D01*
X026212Y02283D01*
X026214Y022831D01*
X026215Y022831D01*
X026215Y022832D01*
X026217Y022832D01*
X02622Y022833D01*
X026224Y022834D01*
X026239Y022835D01*
X026248Y022835D01*
X026254Y022838D01*
X02765D01*
X02765Y022838D01*
X027693Y022846D01*
X027717Y022862D01*
X027729Y022867D01*
X027742Y022878D01*
X027752Y022886D01*
X027761Y022892D01*
X027769Y022896D01*
X027776Y022898D01*
X027783Y0229D01*
X02779Y0229D01*
X027797Y0229D01*
X027805Y022898D01*
X027817Y022894D01*
X027827Y022895D01*
X027852Y022885D01*
X02795Y022872D01*
X028048Y022885D01*
X028139Y022922D01*
X028217Y022983D01*
X028278Y023061D01*
X028315Y023152D01*
X028328Y02325D01*
X028315Y023348D01*
X028278Y023439D01*
X028217Y023517D01*
X028139Y023578D01*
X028048Y023615D01*
X02795Y023628D01*
D02*
G37*
G36*
X01365Y023249D02*
Y023054D01*
X013845D01*
X013836Y023102D01*
X01378Y023184D01*
X013698Y02324D01*
X01365Y023249D01*
D02*
G37*
G36*
X01355D02*
X013502Y02324D01*
X01342Y023184D01*
X013364Y023102D01*
X013355Y023054D01*
X01355D01*
Y023249D01*
D02*
G37*
G36*
X016674Y023202D02*
X016626Y023192D01*
X016543Y023137D01*
X016488Y023054D01*
X016479Y023007D01*
X016674D01*
Y023202D01*
D02*
G37*
G36*
X017834Y023192D02*
Y022997D01*
X018029D01*
X018019Y023044D01*
X017964Y023127D01*
X017881Y023182D01*
X017834Y023192D01*
D02*
G37*
G36*
X017299Y023212D02*
Y022967D01*
X017199D01*
Y023212D01*
X017151Y023202D01*
X017069Y023147D01*
X017013Y023064D01*
X017011Y023051D01*
X01696D01*
X016959Y023054D01*
X016904Y023137D01*
X016821Y023192D01*
X016774Y023202D01*
Y022957D01*
X016724D01*
Y022907D01*
X016479D01*
X016488Y022859D01*
X016543Y022777D01*
X016626Y022721D01*
X016663Y022714D01*
Y022663D01*
X016626Y022656D01*
X016543Y0226D01*
X016488Y022518D01*
X016479Y02247D01*
X016724D01*
Y02237D01*
X016479D01*
X016488Y022323D01*
X016543Y02224D01*
X016626Y022185D01*
X016654Y022179D01*
Y022128D01*
X016626Y022122D01*
X016543Y022067D01*
X016488Y021984D01*
X016479Y021937D01*
X016724D01*
Y021887D01*
X016774D01*
Y021642D01*
X016821Y021651D01*
X016904Y021707D01*
X016959Y021789D01*
X016961Y021797D01*
X017012D01*
X017013Y021789D01*
X017069Y021707D01*
X017151Y021651D01*
X017199Y021642D01*
Y021887D01*
X017299D01*
Y021642D01*
X017346Y021651D01*
X017429Y021707D01*
X017484Y021789D01*
X017491Y021822D01*
X017542D01*
X017548Y021789D01*
X017603Y021707D01*
X017686Y021651D01*
X017734Y021642D01*
Y021887D01*
X017784D01*
Y021937D01*
X018029D01*
X018019Y021984D01*
X017964Y022067D01*
X017881Y022122D01*
X017833Y022132D01*
Y022183D01*
X017881Y022192D01*
X017964Y022248D01*
X018019Y02233D01*
X018029Y022378D01*
X017784D01*
Y022478D01*
X018029D01*
X018019Y022525D01*
X017964Y022608D01*
X017885Y022661D01*
X017882Y022687D01*
X017885Y022714D01*
X017964Y022767D01*
X018019Y022849D01*
X018029Y022897D01*
X017784D01*
Y022947D01*
X017734D01*
Y023192D01*
X017686Y023182D01*
X017603Y023127D01*
X017548Y023044D01*
X017544Y023022D01*
X017493D01*
X017484Y023064D01*
X017429Y023147D01*
X017346Y023202D01*
X017299Y023212D01*
D02*
G37*
G36*
X013845Y022954D02*
X01365D01*
Y022759D01*
X013698Y022769D01*
X01378Y022824D01*
X013836Y022907D01*
X013845Y022954D01*
D02*
G37*
G36*
X01355D02*
X013355D01*
X013364Y022907D01*
X01342Y022824D01*
X013502Y022769D01*
X01355Y022759D01*
Y022954D01*
D02*
G37*
G36*
X018029Y021837D02*
X017834D01*
Y021642D01*
X017881Y021651D01*
X017964Y021707D01*
X018019Y021789D01*
X018029Y021837D01*
D02*
G37*
G36*
X016674D02*
X016479D01*
X016488Y021789D01*
X016543Y021707D01*
X016626Y021651D01*
X016674Y021642D01*
Y021837D01*
D02*
G37*
G36*
X011206Y021389D02*
Y021194D01*
X011401D01*
X011391Y021242D01*
X011336Y021324D01*
X011253Y02138D01*
X011206Y021389D01*
D02*
G37*
G36*
X011106D02*
X011058Y02138D01*
X010976Y021324D01*
X01092Y021242D01*
X010911Y021194D01*
X011106D01*
Y021389D01*
D02*
G37*
G36*
X02675Y021095D02*
Y0209D01*
X026945D01*
X026936Y020948D01*
X02688Y02103D01*
X026798Y021086D01*
X02675Y021095D01*
D02*
G37*
G36*
X02665D02*
X026602Y021086D01*
X02652Y02103D01*
X026465Y020948D01*
X026455Y0209D01*
X02665D01*
Y021095D01*
D02*
G37*
G36*
X011401Y021094D02*
X011206D01*
Y020899D01*
X011253Y020909D01*
X011336Y020964D01*
X011391Y021047D01*
X011401Y021094D01*
D02*
G37*
G36*
X011106D02*
X010911D01*
X01092Y021047D01*
X010976Y020964D01*
X011058Y020909D01*
X011106Y020899D01*
Y021094D01*
D02*
G37*
G36*
X026945Y0208D02*
X02675D01*
Y020605D01*
X026798Y020615D01*
X02688Y02067D01*
X026936Y020752D01*
X026945Y0208D01*
D02*
G37*
G36*
X02665D02*
X026455D01*
X026465Y020752D01*
X02652Y02067D01*
X026602Y020615D01*
X02665Y020605D01*
Y0208D01*
D02*
G37*
G36*
X012709Y020295D02*
Y0201D01*
X012904D01*
X012895Y020148D01*
X01284Y02023D01*
X012757Y020285D01*
X012709Y020295D01*
D02*
G37*
G36*
X012609D02*
X012562Y020285D01*
X012479Y02023D01*
X012424Y020148D01*
X012414Y0201D01*
X012609D01*
Y020295D01*
D02*
G37*
G36*
X02795Y022628D02*
X027852Y022615D01*
X027761Y022578D01*
X027683Y022517D01*
X027622Y022439D01*
X027585Y022348D01*
X027572Y022252D01*
X02757Y022247D01*
X02757Y022203D01*
X027565Y022125D01*
X02756Y022093D01*
X027555Y022064D01*
X027548Y022039D01*
X02754Y022018D01*
X027532Y022001D01*
X027523Y021988D01*
X027512Y021974D01*
X02751Y021969D01*
X027271Y021729D01*
X027246Y021693D01*
X027238Y02165D01*
X027238Y02165D01*
Y019974D01*
X027188Y019959D01*
X027176Y019976D01*
X027107Y020023D01*
X027025Y020039D01*
X026943Y020023D01*
X026874Y019976D01*
X026827Y019907D01*
X026811Y019825D01*
X026827Y019743D01*
X026856Y0197D01*
X02686Y01962D01*
X026862Y019616D01*
Y018393D01*
X026632Y018163D01*
X0235D01*
X023438Y018151D01*
X023385Y018115D01*
X022682Y017413D01*
X020126D01*
X020122Y017415D01*
X020105Y017415D01*
X020056Y017416D01*
X020048Y017417D01*
X020002Y017448D01*
X01992Y017464D01*
X019838Y017448D01*
X019768Y017401D01*
X019722Y017332D01*
X019706Y01725D01*
X019722Y017168D01*
X019768Y017099D01*
X019838Y017052D01*
X01992Y017036D01*
X020002Y017052D01*
X020045Y017081D01*
X020125Y017085D01*
X020129Y017087D01*
X02112D01*
X021147Y017037D01*
X021137Y016985D01*
X021149Y016923D01*
X021157Y016912D01*
X02113Y016862D01*
X014449D01*
X014386Y016849D01*
X014383Y016847D01*
X014382Y016848D01*
X0143Y016864D01*
X014218Y016848D01*
X014149Y016801D01*
X014102Y016732D01*
X014086Y01665D01*
X014102Y016568D01*
X014149Y016499D01*
X014218Y016452D01*
X0143Y016436D01*
X014327Y016441D01*
X01435Y016437D01*
X014412Y016449D01*
X014465Y016485D01*
X014516Y016535D01*
X022154D01*
X022158Y016534D01*
X022174Y016534D01*
X022223Y016532D01*
X022232Y016532D01*
X022278Y016501D01*
X02236Y016484D01*
X022442Y016501D01*
X022511Y016547D01*
X022558Y016617D01*
X022574Y016699D01*
X022558Y016781D01*
X02253Y016823D01*
X022556Y016873D01*
X02295D01*
X02295Y016873D01*
X022993Y016881D01*
X023029Y016906D01*
X023696Y017573D01*
X023979D01*
X023986Y017524D01*
X023881Y01748D01*
X02379Y01741D01*
X02372Y017319D01*
X023676Y017214D01*
X023661Y0171D01*
X023676Y016986D01*
X02372Y016881D01*
X023782Y016799D01*
X023767Y016764D01*
X023757Y016753D01*
X02375Y016755D01*
X023652Y016736D01*
X02357Y01668D01*
X023514Y016598D01*
X023505Y01655D01*
X023995D01*
X023986Y016598D01*
X023962Y016632D01*
X023977Y016659D01*
X023994Y016675D01*
X0241Y016661D01*
X024214Y016676D01*
X024319Y01672D01*
X02441Y01679D01*
X02448Y016881D01*
X024524Y016986D01*
X024539Y0171D01*
X024524Y017214D01*
X02448Y017319D01*
X02441Y01741D01*
X024319Y01748D01*
X024214Y017524D01*
X024221Y017573D01*
X025979D01*
X025986Y017524D01*
X025881Y01748D01*
X02579Y01741D01*
X02572Y017319D01*
X025676Y017214D01*
X025661Y0171D01*
X025676Y016986D01*
X02572Y016881D01*
X02579Y01679D01*
X025881Y01672D01*
X025986Y016676D01*
X0261Y016661D01*
X026214Y016676D01*
X026319Y01672D01*
X02641Y01679D01*
X02648Y016881D01*
X026524Y016986D01*
X026539Y0171D01*
X026524Y017214D01*
X026512Y017242D01*
X026534Y017277D01*
X026546Y017287D01*
X027494D01*
X027498Y017285D01*
X027514Y017285D01*
X027564Y017284D01*
X027572Y017283D01*
X027618Y017252D01*
X0277Y017236D01*
X027782Y017252D01*
X027851Y017299D01*
X027898Y017368D01*
X027914Y01745D01*
X027898Y017532D01*
X027851Y017601D01*
X027782Y017648D01*
X0277Y017664D01*
X027618Y017648D01*
X027575Y017619D01*
X027495Y017615D01*
X027491Y017613D01*
X027077D01*
X027058Y017659D01*
X027429Y018031D01*
X027429Y018031D01*
X027454Y018067D01*
X027462Y01811D01*
X027462Y01811D01*
Y021604D01*
X027669Y02181D01*
X027674Y021812D01*
X027688Y021823D01*
X027701Y021832D01*
X027718Y02184D01*
X027739Y021848D01*
X027764Y021855D01*
X027793Y02186D01*
X027825Y021865D01*
X027903Y02187D01*
X027947Y02187D01*
X027952Y021872D01*
X028048Y021885D01*
X028139Y021922D01*
X028217Y021983D01*
X028278Y022061D01*
X028315Y022152D01*
X028328Y02225D01*
X028315Y022348D01*
X028278Y022439D01*
X028217Y022517D01*
X028139Y022578D01*
X028048Y022615D01*
X02795Y022628D01*
D02*
G37*
G36*
X012904Y02D02*
X012709D01*
Y019805D01*
X012757Y019814D01*
X01284Y01987D01*
X012895Y019952D01*
X012904Y02D01*
D02*
G37*
G36*
X012609D02*
X012414D01*
X012424Y019952D01*
X012479Y01987D01*
X012562Y019814D01*
X012609Y019805D01*
Y02D01*
D02*
G37*
G36*
X011075Y02072D02*
X010325D01*
Y01997D01*
X010857D01*
X010862Y019967D01*
X010867Y019968D01*
X010872Y019966D01*
X010881Y01997D01*
X010902D01*
X010905Y019967D01*
X010917Y019959D01*
X01095Y019932D01*
X010969Y019913D01*
X010975Y019911D01*
X011471Y019415D01*
X011471Y019415D01*
X011507Y019391D01*
X01155Y019382D01*
X01155Y019382D01*
X013679D01*
X013683Y01938D01*
X013686Y019381D01*
X013689Y01938D01*
X013698Y019379D01*
X013704Y019379D01*
X013705Y019379D01*
X013735Y019335D01*
X013788Y019299D01*
X01385Y019287D01*
X013912Y019299D01*
X013965Y019335D01*
X014001Y019388D01*
X014013Y01945D01*
X014001Y019512D01*
X013965Y019565D01*
X013912Y019601D01*
X01385Y019613D01*
X01382Y019607D01*
X013816Y019609D01*
X013701Y01961D01*
X013694Y019607D01*
X011596D01*
X011134Y020069D01*
X011132Y020075D01*
X011097Y020113D01*
X011086Y020127D01*
X011077Y020139D01*
X011075Y020143D01*
Y020163D01*
X011079Y020172D01*
X011077Y020177D01*
X011078Y020182D01*
X011075Y020187D01*
Y02072D01*
D02*
G37*
G36*
X0107Y019723D02*
X010602Y01971D01*
X010511Y019672D01*
X010433Y019612D01*
X010372Y019534D01*
X010335Y019442D01*
X010322Y019345D01*
X010335Y019247D01*
X010372Y019155D01*
X010433Y019077D01*
X010511Y019017D01*
X010602Y018979D01*
X0107Y018966D01*
X010798Y018979D01*
X010889Y019017D01*
X010967Y019077D01*
X011028Y019155D01*
X011032Y019166D01*
X011081Y019176D01*
X011371Y018886D01*
X011371Y018886D01*
X011407Y018862D01*
X01145Y018853D01*
X01145Y018853D01*
X013695D01*
X013701Y01885D01*
X013719Y01885D01*
X013725Y018849D01*
X01373Y018848D01*
X013733Y018847D01*
X013735Y018847D01*
X013735Y018847D01*
X013736Y018846D01*
X013738Y018845D01*
X013739Y018845D01*
X013739Y018845D01*
X01374Y018845D01*
X013742Y018844D01*
X013744Y018844D01*
X013788Y018814D01*
X01385Y018802D01*
X013912Y018814D01*
X013965Y01885D01*
X014001Y018903D01*
X014013Y018965D01*
X014001Y019028D01*
X013965Y01908D01*
X013912Y019116D01*
X01385Y019128D01*
X013788Y019116D01*
X013744Y019087D01*
X013742Y019086D01*
X01374Y019086D01*
X013739Y019085D01*
X013739Y019085D01*
X013738Y019085D01*
X013736Y019084D01*
X013735Y019084D01*
X013735Y019084D01*
X013733Y019083D01*
X01373Y019082D01*
X013726Y019081D01*
X013711Y01908D01*
X013702Y01908D01*
X013696Y019077D01*
X011496D01*
X01115Y019424D01*
X011114Y019448D01*
X011084Y019454D01*
X011071Y01946D01*
X011062Y01946D01*
X011058Y01946D01*
X011028Y019534D01*
X010967Y019612D01*
X010889Y019672D01*
X010798Y01971D01*
X0107Y019723D01*
D02*
G37*
G36*
X0281Y018819D02*
Y018624D01*
X028295D01*
X028286Y018671D01*
X02823Y018754D01*
X028148Y018809D01*
X0281Y018819D01*
D02*
G37*
G36*
X028D02*
X027952Y018809D01*
X02787Y018754D01*
X027815Y018671D01*
X027805Y018624D01*
X028D01*
Y018819D01*
D02*
G37*
G36*
X028295Y018524D02*
X0281D01*
Y018329D01*
X028148Y018338D01*
X02823Y018393D01*
X028286Y018476D01*
X028295Y018524D01*
D02*
G37*
G36*
X028D02*
X027805D01*
X027815Y018476D01*
X02787Y018393D01*
X027952Y018338D01*
X028Y018329D01*
Y018524D01*
D02*
G37*
G36*
X015482Y018495D02*
Y0183D01*
X015677D01*
X015667Y018348D01*
X015612Y01843D01*
X01553Y018485D01*
X015482Y018495D01*
D02*
G37*
G36*
X015382D02*
X015334Y018485D01*
X015252Y01843D01*
X015196Y018348D01*
X015187Y0183D01*
X015382D01*
Y018495D01*
D02*
G37*
G36*
X020759Y018235D02*
Y018091D01*
X020903D01*
X020898Y018119D01*
X020854Y018185D01*
X020787Y018229D01*
X020759Y018235D01*
D02*
G37*
G36*
X020659D02*
X020631Y018229D01*
X020565Y018185D01*
X020521Y018119D01*
X020515Y018091D01*
X020659D01*
Y018235D01*
D02*
G37*
G36*
X020903Y017991D02*
X020759D01*
Y017847D01*
X020787Y017852D01*
X020854Y017896D01*
X020898Y017963D01*
X020903Y017991D01*
D02*
G37*
G36*
X020659D02*
X020515D01*
X020521Y017963D01*
X020565Y017896D01*
X020631Y017852D01*
X020659Y017847D01*
Y017991D01*
D02*
G37*
G36*
X01845Y018093D02*
X018388Y018081D01*
X018335Y018045D01*
X018299Y017992D01*
X018294Y017966D01*
X018291Y017961D01*
X018288Y017958D01*
X018288Y017956D01*
X018287Y017956D01*
X018287Y017955D01*
X018286Y017953D01*
X018284Y017951D01*
X018282Y017948D01*
X018267Y01793D01*
X018261Y017924D01*
X018259Y017917D01*
X018054Y017712D01*
X0116D01*
X011557Y017704D01*
X011521Y017679D01*
X011521Y017679D01*
X011298Y017457D01*
X01121D01*
X011205Y017459D01*
X011187Y017461D01*
X011172Y017464D01*
X011154Y01747D01*
X011134Y01748D01*
X011111Y017492D01*
X011087Y017509D01*
X011061Y017528D01*
X011002Y01758D01*
X010971Y017611D01*
X010966Y017613D01*
X010889Y017672D01*
X010798Y01771D01*
X0107Y017723D01*
X010602Y01771D01*
X010511Y017672D01*
X010433Y017612D01*
X010372Y017534D01*
X010335Y017442D01*
X010322Y017345D01*
X010335Y017247D01*
X010372Y017155D01*
X010433Y017077D01*
X010511Y017017D01*
X010602Y016979D01*
X0107Y016966D01*
X010798Y016979D01*
X010889Y017017D01*
X010966Y017076D01*
X010971Y017078D01*
X011002Y017109D01*
X011061Y017161D01*
X011087Y01718D01*
X011111Y017197D01*
X011134Y01721D01*
X011154Y017219D01*
X011172Y017225D01*
X011187Y017228D01*
X011205Y01723D01*
X01121Y017232D01*
X011345D01*
X011345Y017232D01*
X011387Y017241D01*
X011424Y017265D01*
X011646Y017488D01*
X0181D01*
X0181Y017488D01*
X018143Y017496D01*
X018179Y017521D01*
X018401Y017742D01*
X018405Y017743D01*
X018407Y017747D01*
X018412Y017749D01*
X018418Y017756D01*
X018423Y01776D01*
X018428Y017763D01*
X018431Y017765D01*
X018433Y017767D01*
X018433Y017767D01*
X018434Y017767D01*
X018434Y017767D01*
X018436Y017768D01*
X018437Y017768D01*
X018437Y017768D01*
X018438Y017769D01*
X018438Y017769D01*
X01845Y017767D01*
X018512Y017779D01*
X018565Y017815D01*
X018601Y017867D01*
X018613Y01793D01*
X018601Y017992D01*
X018565Y018045D01*
X018512Y018081D01*
X01845Y018093D01*
D02*
G37*
G36*
X0107Y018723D02*
X010602Y01871D01*
X010511Y018672D01*
X010433Y018612D01*
X010372Y018534D01*
X010335Y018442D01*
X010322Y018345D01*
X010335Y018247D01*
X010372Y018155D01*
X010433Y018077D01*
X010511Y018017D01*
X010602Y017979D01*
X0107Y017966D01*
X010798Y017979D01*
X010889Y018017D01*
X010967Y018077D01*
X011028Y018155D01*
X011033Y018168D01*
X011039Y018172D01*
X011047Y018187D01*
X011053Y018196D01*
X011057Y0182D01*
X011106Y018215D01*
X011471Y017851D01*
X011471Y017851D01*
X011507Y017826D01*
X01155Y017818D01*
X01155Y017818D01*
X015945D01*
X015951Y017815D01*
X015969Y017814D01*
X015975Y017814D01*
X01598Y017813D01*
X015983Y017812D01*
X015985Y017811D01*
X015985Y017811D01*
X015986Y017811D01*
X015988Y01781D01*
X015989Y01781D01*
X015989Y01781D01*
X01599Y01781D01*
X015992Y017809D01*
X015994Y017808D01*
X016038Y017779D01*
X0161Y017767D01*
X016162Y017779D01*
X016215Y017815D01*
X016251Y017867D01*
X016263Y01793D01*
X016251Y017992D01*
X016215Y018045D01*
X016162Y018081D01*
X0161Y018093D01*
X016038Y018081D01*
X015994Y018051D01*
X015992Y018051D01*
X01599Y01805D01*
X015989Y01805D01*
X015989Y01805D01*
X015988Y01805D01*
X015986Y018049D01*
X015985Y018048D01*
X015985Y018048D01*
X015983Y018048D01*
X01598Y018047D01*
X015976Y018046D01*
X015961Y018045D01*
X015952Y018045D01*
X015946Y018042D01*
X015654D01*
X015627Y018092D01*
X015667Y018152D01*
X015677Y0182D01*
X015187D01*
X015196Y018152D01*
X015237Y018092D01*
X01521Y018042D01*
X011596D01*
X011215Y018424D01*
X011178Y018448D01*
X01115Y018454D01*
X011138Y018459D01*
X01112Y01846D01*
X011107Y018462D01*
X011095Y018465D01*
X011085Y018469D01*
X011076Y018473D01*
X011068Y018479D01*
X01106Y018485D01*
X011053Y018493D01*
X011047Y018503D01*
X011039Y018517D01*
X011033Y018522D01*
X011028Y018534D01*
X010967Y018612D01*
X010889Y018672D01*
X010798Y01871D01*
X0107Y018723D01*
D02*
G37*
G36*
X01925Y017894D02*
Y01775D01*
X019394D01*
X019388Y017778D01*
X019344Y017844D01*
X019278Y017888D01*
X01925Y017894D01*
D02*
G37*
G36*
X01915D02*
X019122Y017888D01*
X019056Y017844D01*
X019012Y017778D01*
X019006Y01775D01*
X01915D01*
Y017894D01*
D02*
G37*
G36*
X019394Y01765D02*
X01925D01*
Y017506D01*
X019278Y017512D01*
X019344Y017556D01*
X019388Y017622D01*
X019394Y01765D01*
D02*
G37*
G36*
X01915D02*
X019006D01*
X019012Y017622D01*
X019056Y017556D01*
X019122Y017512D01*
X01915Y017506D01*
Y01765D01*
D02*
G37*
G36*
X02655Y016695D02*
Y0165D01*
X026745D01*
X026735Y016548D01*
X02668Y01663D01*
X026598Y016686D01*
X02655Y016695D01*
D02*
G37*
G36*
X02645D02*
X026402Y016686D01*
X02632Y01663D01*
X026265Y016548D01*
X026255Y0165D01*
X02645D01*
Y016695D01*
D02*
G37*
G36*
X023995Y01645D02*
X0238D01*
Y016255D01*
X023848Y016264D01*
X02393Y01632D01*
X023986Y016402D01*
X023995Y01645D01*
D02*
G37*
G36*
X0237D02*
X023505D01*
X023514Y016402D01*
X02357Y01632D01*
X023652Y016264D01*
X0237Y016255D01*
Y01645D01*
D02*
G37*
G36*
X026745Y0164D02*
X02655D01*
Y016205D01*
X026598Y016214D01*
X02668Y01627D01*
X026735Y016352D01*
X026745Y0164D01*
D02*
G37*
G36*
X02645D02*
X026255D01*
X026265Y016352D01*
X02632Y01627D01*
X026402Y016214D01*
X02645Y016205D01*
Y0164D01*
D02*
G37*
G36*
X0139Y016295D02*
Y0161D01*
X014095D01*
X014086Y016148D01*
X01403Y01623D01*
X013948Y016286D01*
X0139Y016295D01*
D02*
G37*
G36*
X0138D02*
X013752Y016286D01*
X01367Y01623D01*
X013614Y016148D01*
X013605Y0161D01*
X0138D01*
Y016295D01*
D02*
G37*
G36*
X016Y016292D02*
Y016097D01*
X016195D01*
X016185Y016145D01*
X01613Y016227D01*
X016048Y016283D01*
X016Y016292D01*
D02*
G37*
G36*
X0159D02*
X015852Y016283D01*
X01577Y016227D01*
X015714Y016145D01*
X015705Y016097D01*
X0159D01*
Y016292D01*
D02*
G37*
G36*
X0107Y016723D02*
X010602Y01671D01*
X010511Y016672D01*
X010433Y016612D01*
X010372Y016534D01*
X010335Y016442D01*
X010322Y016345D01*
X010335Y016247D01*
X010372Y016155D01*
X010433Y016077D01*
X010511Y016017D01*
X010602Y015979D01*
X0107Y015966D01*
X010798Y015979D01*
X010889Y016017D01*
X010967Y016077D01*
X011028Y016155D01*
X011065Y016247D01*
X011078Y016345D01*
X011065Y016442D01*
X011028Y016534D01*
X010967Y016612D01*
X010889Y016672D01*
X010798Y01671D01*
X0107Y016723D01*
D02*
G37*
G36*
X014095Y016D02*
X0139D01*
Y015805D01*
X013948Y015814D01*
X01403Y01587D01*
X014086Y015952D01*
X014095Y016D01*
D02*
G37*
G36*
X0138D02*
X013605D01*
X013614Y015952D01*
X01367Y01587D01*
X013752Y015814D01*
X0138Y015805D01*
Y016D01*
D02*
G37*
G36*
X016195Y015997D02*
X016D01*
Y015802D01*
X016048Y015812D01*
X01613Y015867D01*
X016185Y01595D01*
X016195Y015997D01*
D02*
G37*
G36*
X0159D02*
X015705D01*
X015714Y01595D01*
X01577Y015867D01*
X015852Y015812D01*
X0159Y015802D01*
Y015997D01*
D02*
G37*
G36*
X01075Y015757D02*
Y015395D01*
X011112D01*
X011104Y015453D01*
X011062Y015554D01*
X010996Y015641D01*
X010909Y015707D01*
X010808Y015749D01*
X01075Y015757D01*
D02*
G37*
G36*
X01065D02*
X010592Y015749D01*
X010491Y015707D01*
X010404Y015641D01*
X010338Y015554D01*
X010296Y015453D01*
X010288Y015395D01*
X01065D01*
Y015757D01*
D02*
G37*
G36*
X019603Y015548D02*
Y015353D01*
X019798D01*
X019789Y015401D01*
X019733Y015483D01*
X019651Y015539D01*
X019603Y015548D01*
D02*
G37*
G36*
X019503D02*
X019456Y015539D01*
X019373Y015483D01*
X019318Y015401D01*
X019308Y015353D01*
X019503D01*
Y015548D01*
D02*
G37*
G36*
X019798Y015253D02*
X019603D01*
Y015058D01*
X019651Y015068D01*
X019733Y015123D01*
X019789Y015206D01*
X019798Y015253D01*
D02*
G37*
G36*
X019503D02*
X019308D01*
X019318Y015206D01*
X019373Y015123D01*
X019456Y015068D01*
X019503Y015058D01*
Y015253D01*
D02*
G37*
G36*
X011112Y015295D02*
X01075D01*
Y014933D01*
X010808Y01494D01*
X010909Y014982D01*
X010996Y015049D01*
X011062Y015135D01*
X011104Y015236D01*
X011112Y015295D01*
D02*
G37*
G36*
X01065D02*
X010288D01*
X010296Y015236D01*
X010338Y015135D01*
X010404Y015049D01*
X010491Y014982D01*
X010592Y01494D01*
X01065Y014933D01*
Y015295D01*
D02*
G37*
G36*
X0251Y015539D02*
X024986Y015524D01*
X024881Y01548D01*
X02479Y01541D01*
X02472Y015319D01*
X024676Y015214D01*
X024661Y0151D01*
X024676Y014986D01*
X02472Y014881D01*
X02479Y01479D01*
X024881Y01472D01*
X024986Y014676D01*
X0251Y014661D01*
X025214Y014676D01*
X025319Y01472D01*
X02541Y01479D01*
X02548Y014881D01*
X025524Y014986D01*
X025539Y0151D01*
X025524Y015214D01*
X02548Y015319D01*
X02541Y01541D01*
X025319Y01548D01*
X025214Y015524D01*
X0251Y015539D01*
D02*
G37*
G36*
X027895Y01484D02*
Y014645D01*
X02809D01*
X028081Y014693D01*
X028026Y014776D01*
X027943Y014831D01*
X027895Y01484D01*
D02*
G37*
G36*
X027795D02*
X027748Y014831D01*
X027665Y014776D01*
X02761Y014693D01*
X0276Y014645D01*
X027795D01*
Y01484D01*
D02*
G37*
G36*
X02809Y014545D02*
X027895D01*
Y01435D01*
X027943Y01436D01*
X028026Y014415D01*
X028081Y014498D01*
X02809Y014545D01*
D02*
G37*
G36*
X027795D02*
X0276D01*
X02761Y014498D01*
X027665Y014415D01*
X027748Y01436D01*
X027795Y01435D01*
Y014545D01*
D02*
G37*
G36*
X011549Y014268D02*
X011347D01*
Y013977D01*
X011795D01*
Y014022D01*
X011777Y014116D01*
X011723Y014196D01*
X011643Y01425D01*
X011549Y014268D01*
D02*
G37*
G36*
X011247D02*
X011045D01*
X010951Y01425D01*
X010871Y014196D01*
X010817Y014116D01*
X010798Y014022D01*
Y013977D01*
X011247D01*
Y014268D01*
D02*
G37*
G36*
X0153Y014858D02*
X015182Y014842D01*
X015071Y014796D01*
X014976Y014724D01*
X014904Y014629D01*
X014858Y014518D01*
X014842Y0144D01*
X014858Y014282D01*
X014904Y014171D01*
X014976Y014076D01*
X015071Y014004D01*
X015182Y013958D01*
X0153Y013942D01*
X015418Y013958D01*
X015529Y014004D01*
X015624Y014076D01*
X015696Y014171D01*
X015742Y014282D01*
X015758Y0144D01*
X015742Y014518D01*
X015696Y014629D01*
X015624Y014724D01*
X015529Y014796D01*
X015418Y014842D01*
X0153Y014858D01*
D02*
G37*
G36*
X0133D02*
X013182Y014842D01*
X013071Y014796D01*
X012976Y014724D01*
X012904Y014629D01*
X012858Y014518D01*
X012842Y0144D01*
X012858Y014282D01*
X012904Y014171D01*
X012976Y014076D01*
X013071Y014004D01*
X013182Y013958D01*
X0133Y013942D01*
X013418Y013958D01*
X013529Y014004D01*
X013624Y014076D01*
X013696Y014171D01*
X013742Y014282D01*
X013758Y0144D01*
X013742Y014518D01*
X013696Y014629D01*
X013624Y014724D01*
X013529Y014796D01*
X013418Y014842D01*
X0133Y014858D01*
D02*
G37*
G36*
X011795Y013877D02*
X011347D01*
Y013586D01*
X011549D01*
X011643Y013605D01*
X011723Y013659D01*
X011777Y013739D01*
X011795Y013833D01*
Y013877D01*
D02*
G37*
G36*
X011247D02*
X010798D01*
Y013833D01*
X010817Y013739D01*
X010871Y013659D01*
X010951Y013605D01*
X011045Y013586D01*
X011247D01*
Y013877D01*
D02*
G37*
G36*
X021445Y01334D02*
Y013145D01*
X02164D01*
X021631Y013193D01*
X021576Y013276D01*
X021493Y013331D01*
X021445Y01334D01*
D02*
G37*
G36*
X021345D02*
X021298Y013331D01*
X021215Y013276D01*
X02116Y013193D01*
X02115Y013145D01*
X021345D01*
Y01334D01*
D02*
G37*
G36*
X016924Y013171D02*
Y012976D01*
X017119D01*
X01711Y013023D01*
X017054Y013106D01*
X016972Y013161D01*
X016924Y013171D01*
D02*
G37*
G36*
X016824D02*
X016777Y013161D01*
X016694Y013106D01*
X016639Y013023D01*
X016629Y012976D01*
X016824D01*
Y013171D01*
D02*
G37*
G36*
X02164Y013045D02*
X021445D01*
Y01285D01*
X021493Y01286D01*
X021576Y012915D01*
X021631Y012998D01*
X02164Y013045D01*
D02*
G37*
G36*
X021345D02*
X02115D01*
X02116Y012998D01*
X021215Y012915D01*
X021298Y01286D01*
X021345Y01285D01*
Y013045D01*
D02*
G37*
G36*
X017119Y012876D02*
X016924D01*
Y012681D01*
X016972Y01269D01*
X017054Y012746D01*
X01711Y012828D01*
X017119Y012876D01*
D02*
G37*
G36*
X016824D02*
X016629D01*
X016639Y012828D01*
X016694Y012746D01*
X016777Y01269D01*
X016824Y012681D01*
Y012876D01*
D02*
G37*
G36*
X02245Y012614D02*
X022368Y012598D01*
X022325Y012569D01*
X022245Y012565D01*
X022241Y012563D01*
X019556D01*
X019552Y012565D01*
X019536Y012565D01*
X019487Y012566D01*
X019478Y012567D01*
X019432Y012598D01*
X01935Y012614D01*
X019268Y012598D01*
X019199Y012551D01*
X019152Y012482D01*
X019136Y0124D01*
X019152Y012318D01*
X019199Y012249D01*
X019268Y012202D01*
X01935Y012186D01*
X019432Y012202D01*
X019475Y012231D01*
X019555Y012235D01*
X019559Y012237D01*
X022244D01*
X022248Y012235D01*
X022264Y012235D01*
X022313Y012234D01*
X022322Y012233D01*
X022368Y012202D01*
X02245Y012186D01*
X022532Y012202D01*
X022601Y012249D01*
X022648Y012318D01*
X022664Y0124D01*
X022648Y012482D01*
X022601Y012551D01*
X022532Y012598D01*
X02245Y012614D01*
D02*
G37*
G36*
X014937Y012154D02*
Y011959D01*
X015132D01*
X015123Y012007D01*
X015067Y01209D01*
X014985Y012145D01*
X014937Y012154D01*
D02*
G37*
G36*
X014837D02*
X01479Y012145D01*
X014707Y01209D01*
X014652Y012007D01*
X014642Y011959D01*
X014837D01*
Y012154D01*
D02*
G37*
G36*
X0209Y012044D02*
Y0119D01*
X021044D01*
X021038Y011928D01*
X020994Y011994D01*
X020928Y012038D01*
X0209Y012044D01*
D02*
G37*
G36*
X0208D02*
X020772Y012038D01*
X020706Y011994D01*
X020662Y011928D01*
X020656Y0119D01*
X0208D01*
Y012044D01*
D02*
G37*
G36*
X021995Y011971D02*
Y011827D01*
X022139D01*
X022134Y011855D01*
X022089Y011922D01*
X022023Y011966D01*
X021995Y011971D01*
D02*
G37*
G36*
X021895D02*
X021867Y011966D01*
X021801Y011922D01*
X021757Y011855D01*
X021751Y011827D01*
X021895D01*
Y011971D01*
D02*
G37*
G36*
X015132Y011859D02*
X014937D01*
Y011665D01*
X014985Y011674D01*
X015067Y011729D01*
X015123Y011812D01*
X015132Y011859D01*
D02*
G37*
G36*
X014837D02*
X014642D01*
X014652Y011812D01*
X014707Y011729D01*
X01479Y011674D01*
X014837Y011665D01*
Y011859D01*
D02*
G37*
G36*
X021044Y0118D02*
X0209D01*
Y011656D01*
X020928Y011662D01*
X020994Y011706D01*
X021038Y011772D01*
X021044Y0118D01*
D02*
G37*
G36*
X0208D02*
X020656D01*
X020662Y011772D01*
X020706Y011706D01*
X020772Y011662D01*
X0208Y011656D01*
Y0118D01*
D02*
G37*
G36*
X022139Y011727D02*
X021995D01*
Y011583D01*
X022023Y011589D01*
X022089Y011633D01*
X022134Y011699D01*
X022139Y011727D01*
D02*
G37*
G36*
X021895D02*
X021751D01*
X021757Y011699D01*
X021801Y011633D01*
X021867Y011589D01*
X021895Y011583D01*
Y011727D01*
D02*
G37*
G36*
X011549Y01167D02*
X011347D01*
Y011379D01*
X011795D01*
Y011423D01*
X011777Y011518D01*
X011723Y011598D01*
X011643Y011651D01*
X011549Y01167D01*
D02*
G37*
G36*
X011247D02*
X011045D01*
X010951Y011651D01*
X010871Y011598D01*
X010817Y011518D01*
X010798Y011423D01*
Y011379D01*
X011247D01*
Y01167D01*
D02*
G37*
G36*
X011795Y011279D02*
X011347D01*
Y010988D01*
X011549D01*
X011643Y011007D01*
X011723Y01106D01*
X011777Y01114D01*
X011795Y011234D01*
Y011279D01*
D02*
G37*
G36*
X011247D02*
X010798D01*
Y011234D01*
X010817Y01114D01*
X010871Y01106D01*
X010951Y011007D01*
X011045Y010988D01*
X011247D01*
Y011279D01*
D02*
G37*
G36*
X020001Y011313D02*
X019938Y011301D01*
X019885Y011265D01*
X01985Y011212D01*
X019837Y01115D01*
X01985Y011088D01*
X019885Y011035D01*
X019938Y010999D01*
X020001Y010987D01*
X020063Y010999D01*
X020107Y011029D01*
X020109Y011029D01*
X02011Y01103D01*
X020111Y01103D01*
X020112Y01103D01*
X020113Y01103D01*
X020114Y011031D01*
X020115Y011031D01*
X020115Y011032D01*
X020117Y011032D01*
X020121Y011033D01*
X020125Y011034D01*
X02014Y011035D01*
X020148Y011035D01*
X020155Y011038D01*
X02046D01*
X020467Y011035D01*
X020476Y011035D01*
X020482Y011034D01*
X020487Y011034D01*
X02049Y011033D01*
X020491Y011033D01*
X020492Y011032D01*
X020493Y011032D01*
X020494Y011031D01*
X020495Y011031D01*
X02051Y01101D01*
X020563Y010974D01*
X020625Y010962D01*
X020687Y010974D01*
X02074Y01101D01*
X020776Y011063D01*
X020788Y011125D01*
X020776Y011187D01*
X02074Y01124D01*
X020687Y011276D01*
X020625Y011288D01*
X020563Y011276D01*
X020553Y011269D01*
X020552Y011269D01*
X020546Y011269D01*
X020544Y011268D01*
X020544Y011268D01*
X020544Y011268D01*
X020543Y011268D01*
X020543Y011268D01*
X020541Y011268D01*
X020538Y011267D01*
X020507Y011265D01*
X020498Y011265D01*
X020492Y011262D01*
X020156D01*
X02015Y011265D01*
X020131Y011266D01*
X020126Y011266D01*
X020121Y011267D01*
X020117Y011268D01*
X020115Y011268D01*
X020115Y011269D01*
X020114Y011269D01*
X020113Y01127D01*
X020112Y01127D01*
X020111Y01127D01*
X02011Y01127D01*
X020109Y011271D01*
X020107Y011271D01*
X020063Y011301D01*
X020001Y011313D01*
D02*
G37*
G36*
X014109Y011222D02*
X013794D01*
Y0107D01*
X014395D01*
Y010936D01*
X014109Y011222D01*
D02*
G37*
G36*
X013694D02*
X013379D01*
X013093Y010936D01*
Y0107D01*
X013694D01*
Y011222D01*
D02*
G37*
G36*
X025037Y010512D02*
Y01015D01*
X025399D01*
X025391Y010208D01*
X025349Y010309D01*
X025283Y010396D01*
X025196Y010462D01*
X025095Y010504D01*
X025037Y010512D01*
D02*
G37*
G36*
X024937Y010512D02*
X024879Y010504D01*
X024778Y010462D01*
X024691Y010396D01*
X024625Y010309D01*
X024583Y010208D01*
X024575Y01015D01*
X024937D01*
Y010512D01*
D02*
G37*
G36*
X016845Y011182D02*
X016155D01*
X015889Y010916D01*
Y010384D01*
X016155Y010118D01*
X016845D01*
X017111Y010384D01*
Y010916D01*
X016845Y011182D01*
D02*
G37*
G36*
X014395Y0106D02*
X013794D01*
Y010078D01*
X014109D01*
X014395Y010364D01*
Y0106D01*
D02*
G37*
G36*
X013694D02*
X013093D01*
Y010364D01*
X013379Y010078D01*
X013694D01*
Y0106D01*
D02*
G37*
G36*
X022045Y01015D02*
Y009955D01*
X02224D01*
X022231Y010002D01*
X022176Y010085D01*
X022093Y01014D01*
X022045Y01015D01*
D02*
G37*
G36*
X021945D02*
X021898Y01014D01*
X021815Y010085D01*
X02176Y010002D01*
X02175Y009955D01*
X021945D01*
Y01015D01*
D02*
G37*
G36*
X026362Y010475D02*
X025612D01*
Y009725D01*
X026362D01*
Y010475D01*
D02*
G37*
G36*
X024937Y01005D02*
X024575D01*
X024583Y009992D01*
X024625Y009891D01*
X024691Y009804D01*
X024778Y009738D01*
X024879Y009696D01*
X024937Y009688D01*
Y01005D01*
D02*
G37*
G36*
X025399D02*
X025037D01*
Y009688D01*
X025095Y009696D01*
X025196Y009738D01*
X025283Y009804D01*
X025349Y009891D01*
X025391Y009992D01*
X025399Y01005D01*
D02*
G37*
G36*
X019432Y009863D02*
Y009668D01*
X019626D01*
X019617Y009716D01*
X019562Y009799D01*
X019479Y009854D01*
X019432Y009863D01*
D02*
G37*
G36*
X019332D02*
X019284Y009854D01*
X019201Y009799D01*
X019146Y009716D01*
X019137Y009668D01*
X019332D01*
Y009863D01*
D02*
G37*
G36*
X018118D02*
Y009668D01*
X018313D01*
X018304Y009716D01*
X018249Y009799D01*
X018166Y009854D01*
X018118Y009863D01*
D02*
G37*
G36*
X018018D02*
X017971Y009854D01*
X017888Y009799D01*
X017833Y009716D01*
X017824Y009668D01*
X018018D01*
Y009863D01*
D02*
G37*
G36*
X02224Y009855D02*
X022045D01*
Y00966D01*
X022093Y009669D01*
X022176Y009724D01*
X022231Y009807D01*
X02224Y009855D01*
D02*
G37*
G36*
X021945D02*
X02175D01*
X02176Y009807D01*
X021815Y009724D01*
X021898Y009669D01*
X021945Y00966D01*
Y009855D01*
D02*
G37*
G36*
X020941Y009854D02*
Y009659D01*
X021136D01*
X021127Y009706D01*
X021072Y009789D01*
X020989Y009844D01*
X020941Y009854D01*
D02*
G37*
G36*
X020841D02*
X020794Y009844D01*
X020711Y009789D01*
X020656Y009706D01*
X020646Y009659D01*
X020841D01*
Y009854D01*
D02*
G37*
G36*
X019626Y009568D02*
X019432D01*
Y009374D01*
X019479Y009383D01*
X019562Y009438D01*
X019617Y009521D01*
X019626Y009568D01*
D02*
G37*
G36*
X019332D02*
X019137D01*
X019146Y009521D01*
X019201Y009438D01*
X019284Y009383D01*
X019332Y009374D01*
Y009568D01*
D02*
G37*
G36*
X018313D02*
X018118D01*
Y009374D01*
X018166Y009383D01*
X018249Y009438D01*
X018304Y009521D01*
X018313Y009568D01*
D02*
G37*
G36*
X018018D02*
X017824D01*
X017833Y009521D01*
X017888Y009438D01*
X017971Y009383D01*
X018018Y009374D01*
Y009568D01*
D02*
G37*
G36*
X021136Y009559D02*
X020941D01*
Y009364D01*
X020989Y009373D01*
X021072Y009428D01*
X021127Y009511D01*
X021136Y009559D01*
D02*
G37*
G36*
X020841D02*
X020646D01*
X020656Y009511D01*
X020711Y009428D01*
X020794Y009373D01*
X020841Y009364D01*
Y009559D01*
D02*
G37*
%LPD*%
G36*
X027155Y026007D02*
X026945D01*
X026946Y026009D01*
X026947Y026012D01*
X026948Y026018D01*
X026949Y026033D01*
X02695Y026085D01*
X02695Y026102D01*
X02715D01*
X027155Y026007D01*
D02*
G37*
G36*
X027154Y025791D02*
X027153Y025788D01*
X027152Y025782D01*
X027151Y025767D01*
X02715Y025715D01*
X02715Y025698D01*
X02695D01*
X026945Y025793D01*
X027155D01*
X027154Y025791D01*
D02*
G37*
G36*
X027155Y024762D02*
X026945D01*
X026946Y024764D01*
X026947Y024768D01*
X026948Y024773D01*
X026949Y024788D01*
X02695Y02484D01*
X02695Y024857D01*
X02715D01*
X027155Y024762D01*
D02*
G37*
G36*
X026579Y02813D02*
X026574Y028134D01*
X026569Y028137D01*
X026564Y02814D01*
X026557Y028143D01*
X02655Y028145D01*
X026542Y028147D01*
X026534Y028148D01*
X026524Y028149D01*
X026503Y02815D01*
Y02825D01*
X026514Y02825D01*
X026534Y028252D01*
X026542Y028253D01*
X02655Y028255D01*
X026557Y028257D01*
X026564Y02826D01*
X026569Y028263D01*
X026574Y028266D01*
X026579Y02827D01*
Y02813D01*
D02*
G37*
G36*
X026559Y02723D02*
X026555Y027234D01*
X02655Y027237D01*
X026544Y02724D01*
X026537Y027243D01*
X02653Y027245D01*
X026522Y027247D01*
X026514Y027248D01*
X026504Y027249D01*
X026484Y02725D01*
Y02735D01*
X026494Y02735D01*
X026514Y027352D01*
X026522Y027353D01*
X02653Y027355D01*
X026537Y027357D01*
X026544Y02736D01*
X02655Y027363D01*
X026555Y027366D01*
X026559Y02737D01*
Y02723D01*
D02*
G37*
G36*
X024779Y02623D02*
X024774Y026234D01*
X024769Y026237D01*
X024764Y02624D01*
X024757Y026243D01*
X02475Y026245D01*
X024742Y026247D01*
X024734Y026248D01*
X024724Y026249D01*
X024703Y02625D01*
Y02635D01*
X024714Y02635D01*
X024734Y026352D01*
X024742Y026353D01*
X02475Y026355D01*
X024757Y026357D01*
X024764Y02636D01*
X024769Y026363D01*
X024774Y026366D01*
X024779Y02637D01*
Y02623D01*
D02*
G37*
G36*
X023189Y02578D02*
X023184Y025784D01*
X023179Y025787D01*
X023174Y02579D01*
X023167Y025793D01*
X02316Y025795D01*
X023152Y025797D01*
X023144Y025798D01*
X023134Y025799D01*
X023113Y0258D01*
Y0259D01*
X023124Y0259D01*
X023144Y025902D01*
X023152Y025903D01*
X02316Y025905D01*
X023167Y025907D01*
X023174Y02591D01*
X023179Y025913D01*
X023184Y025916D01*
X023189Y02592D01*
Y02578D01*
D02*
G37*
G36*
X023067Y025096D02*
X023065Y025095D01*
X023062Y025093D01*
X023058Y02509D01*
X023046Y02508D01*
X023009Y025044D01*
X022997Y025032D01*
X022855Y025174D01*
X022919Y025244D01*
X023067Y025096D01*
D02*
G37*
G36*
X023366Y024874D02*
X023363Y024869D01*
X02336Y024864D01*
X023357Y024857D01*
X023355Y02485D01*
X023353Y024842D01*
X023352Y024834D01*
X023351Y024824D01*
X02335Y024803D01*
X02325D01*
X02325Y024814D01*
X023248Y024834D01*
X023247Y024842D01*
X023245Y02485D01*
X023243Y024857D01*
X02324Y024864D01*
X023237Y024869D01*
X023234Y024874D01*
X02323Y024879D01*
X02337D01*
X023366Y024874D01*
D02*
G37*
G36*
X0223Y024636D02*
X022302Y024616D01*
X022303Y024608D01*
X022305Y0246D01*
X022307Y024593D01*
X02231Y024586D01*
X022313Y024581D01*
X022316Y024576D01*
X02232Y024571D01*
X02218D01*
X022184Y024576D01*
X022187Y024581D01*
X02219Y024586D01*
X022193Y024593D01*
X022195Y0246D01*
X022197Y024608D01*
X022198Y024616D01*
X022199Y024626D01*
X0222Y024647D01*
X0223D01*
X0223Y024636D01*
D02*
G37*
G36*
X023676Y024252D02*
X023681Y024249D01*
X023686Y024246D01*
X023693Y024243D01*
X0237Y024241D01*
X023708Y024239D01*
X023716Y024238D01*
X023726Y024237D01*
X023747Y024236D01*
Y024136D01*
X023736Y024136D01*
X023716Y024134D01*
X023708Y024133D01*
X0237Y024131D01*
X023693Y024129D01*
X023686Y024126D01*
X023681Y024123D01*
X023676Y02412D01*
X023671Y024116D01*
Y024256D01*
X023676Y024252D01*
D02*
G37*
G36*
X027775Y023988D02*
X027732Y024016D01*
X027588Y024099D01*
X027558Y024112D01*
X027532Y024123D01*
X027508Y02413D01*
X027486Y024134D01*
X027467Y024136D01*
X027446Y024236D01*
X02747Y024238D01*
X027494Y024243D01*
X027518Y024252D01*
X027542Y024265D01*
X027566Y024282D01*
X02759Y024302D01*
X027614Y024326D01*
X027638Y024354D01*
X027661Y024385D01*
X027685Y02442D01*
X027775Y023988D01*
D02*
G37*
G36*
X023135Y023274D02*
X023131Y023269D01*
X023128Y023264D01*
X023126Y023257D01*
X023124Y02325D01*
X023122Y023242D01*
X02312Y023234D01*
X023119Y023224D01*
X023119Y023203D01*
X023019D01*
X023018Y023214D01*
X023017Y023234D01*
X023015Y023242D01*
X023014Y02325D01*
X023011Y023257D01*
X023009Y023264D01*
X023006Y023269D01*
X023002Y023274D01*
X022999Y023279D01*
X023139D01*
X023135Y023274D01*
D02*
G37*
G36*
X02255Y022936D02*
X022552Y022916D01*
X022553Y022908D01*
X022555Y0229D01*
X022557Y022893D01*
X02256Y022886D01*
X022563Y022881D01*
X022566Y022876D01*
X02257Y022871D01*
X02243D01*
X022434Y022876D01*
X022437Y022881D01*
X02244Y022886D01*
X022443Y022893D01*
X022445Y0229D01*
X022447Y022908D01*
X022448Y022916D01*
X022449Y022926D01*
X02245Y022947D01*
X02255D01*
X02255Y022936D01*
D02*
G37*
G36*
X02335Y022836D02*
X023352Y022816D01*
X023353Y022808D01*
X023355Y0228D01*
X023357Y022793D01*
X02336Y022786D01*
X023363Y022781D01*
X023366Y022776D01*
X02337Y022771D01*
X02323D01*
X023234Y022776D01*
X023237Y022781D01*
X02324Y022786D01*
X023243Y022793D01*
X023245Y0228D01*
X023247Y022808D01*
X023248Y022816D01*
X023249Y022826D01*
X02325Y022847D01*
X02335D01*
X02335Y022836D01*
D02*
G37*
G36*
X023119Y021583D02*
X023119Y021572D01*
X023121Y021544D01*
X023122Y021536D01*
X023125Y021522D01*
X023127Y021516D01*
X02313Y021511D01*
X023132Y021507D01*
X022995Y021533D01*
X022999Y021537D01*
X023003Y021541D01*
X023007Y021546D01*
X02301Y021552D01*
X023013Y021559D01*
X023015Y021567D01*
X023016Y021575D01*
X023018Y021584D01*
X023018Y021594D01*
X023019Y021605D01*
X023119Y021583D01*
D02*
G37*
G36*
X021875Y020566D02*
X021875Y020555D01*
X021878Y020507D01*
X021879Y020502D01*
X021881Y020498D01*
X021882Y020495D01*
X02175Y02054D01*
X021754Y020543D01*
X021759Y020547D01*
X021763Y020552D01*
X021766Y020557D01*
X021769Y020563D01*
X021771Y020571D01*
X021773Y020579D01*
X021774Y020588D01*
X021775Y020598D01*
X021775Y020608D01*
X021875Y020566D01*
D02*
G37*
G36*
X022501Y020852D02*
X022506Y020814D01*
X022513Y020777D01*
X022523Y020741D01*
X022535Y020706D01*
X022551Y020673D01*
X022569Y02064D01*
X022591Y020609D01*
X022615Y020579D01*
X022641Y02055D01*
Y020267D01*
X022615Y020292D01*
X022591Y02031D01*
X022569Y020321D01*
X022551Y020326D01*
X022535Y020323D01*
X022523Y020314D01*
X022513Y020298D01*
X022506Y020275D01*
X022501Y020245D01*
X0225Y020209D01*
X0223Y02065D01*
X0225Y020891D01*
X022501Y020852D01*
D02*
G37*
G36*
X022023Y020043D02*
X021925Y020097D01*
X02193Y020099D01*
X021934Y020101D01*
X021938Y020105D01*
X021941Y02011D01*
X021944Y020116D01*
X021946Y020123D01*
X021948Y02013D01*
X021949Y020139D01*
X02195Y020149D01*
X02195Y02016D01*
X022023Y020043D01*
D02*
G37*
G36*
X022045Y020031D02*
X022046Y020028D01*
X022047Y020025D01*
X022049Y020016D01*
X022049Y020013D01*
X02205Y020003D01*
X02205Y02D01*
X022023Y020043D01*
X022045Y020031D01*
D02*
G37*
G36*
X024443Y019445D02*
X024441Y019446D01*
X024438Y019447D01*
X024432Y019448D01*
X024417Y019449D01*
X024365Y01945D01*
X024348Y01945D01*
Y01965D01*
X024443Y019655D01*
Y019445D01*
D02*
G37*
G36*
X022505Y019207D02*
X022295D01*
X022296Y019209D01*
X022297Y019212D01*
X022298Y019218D01*
X022299Y019233D01*
X0223Y019285D01*
X0223Y019302D01*
X0225D01*
X022505Y019207D01*
D02*
G37*
G36*
X011005Y027693D02*
X01101Y027598D01*
X011016Y027556D01*
X011023Y027518D01*
X011032Y027484D01*
X011042Y027454D01*
X011054Y027428D01*
X011068Y027405D01*
X011084Y027387D01*
X011013Y027316D01*
X010995Y027332D01*
X010972Y027346D01*
X010946Y027358D01*
X010916Y027368D01*
X010882Y027377D01*
X010844Y027384D01*
X010802Y02739D01*
X010707Y027395D01*
X010654Y027396D01*
X011004Y027746D01*
X011005Y027693D01*
D02*
G37*
G36*
X012204Y025991D02*
X012203Y025988D01*
X012202Y025982D01*
X012201Y025967D01*
X0122Y025915D01*
X0122Y025898D01*
X012D01*
X011995Y025993D01*
X012205D01*
X012204Y025991D01*
D02*
G37*
G36*
X012205Y024325D02*
X011995D01*
X011996Y024327D01*
X011997Y024331D01*
X011998Y024336D01*
X011999Y024351D01*
X012Y024403D01*
X012Y02442D01*
X0122D01*
X012205Y024325D01*
D02*
G37*
G36*
X012929Y02383D02*
X012924Y023834D01*
X012919Y023837D01*
X012914Y02384D01*
X012907Y023843D01*
X0129Y023845D01*
X012892Y023847D01*
X012884Y023848D01*
X012874Y023849D01*
X012853Y02385D01*
Y02395D01*
X012864Y02395D01*
X012884Y023952D01*
X012892Y023953D01*
X0129Y023955D01*
X012907Y023957D01*
X012914Y02396D01*
X012919Y023963D01*
X012924Y023966D01*
X012929Y02397D01*
Y02383D01*
D02*
G37*
G36*
X011409Y02396D02*
X011414Y023958D01*
X011421Y023956D01*
X01143Y023954D01*
X01145Y023952D01*
X011476Y02395D01*
X011508Y02395D01*
X011506Y02385D01*
X011495Y02385D01*
X011476Y023848D01*
X011468Y023846D01*
X01146Y023844D01*
X011454Y023841D01*
X011448Y023838D01*
X011443Y023834D01*
X011439Y02383D01*
X011435Y023825D01*
X011404Y023962D01*
X011409Y02396D01*
D02*
G37*
G36*
X013203Y021909D02*
X0132Y021911D01*
X013196Y021912D01*
X013191Y021912D01*
X013179Y021914D01*
X013163Y021915D01*
X013132Y021915D01*
X013086Y022015D01*
X013097Y022015D01*
X013107Y022016D01*
X013116Y022017D01*
X013124Y022019D01*
X013131Y022022D01*
X013138Y022024D01*
X013143Y022028D01*
X013148Y022032D01*
X013151Y022036D01*
X013154Y022041D01*
X013203Y021909D01*
D02*
G37*
G36*
X027837Y022956D02*
X027821Y022961D01*
X027805Y022964D01*
X02779Y022965D01*
X027774Y022964D01*
X027759Y022961D01*
X027744Y022956D01*
X027729Y022949D01*
X027714Y022939D01*
X0277Y022928D01*
X027685Y022915D01*
X027615Y022985D01*
X027628Y023D01*
X027639Y023014D01*
X027649Y023029D01*
X027656Y023044D01*
X027661Y023059D01*
X027664Y023074D01*
X027665Y02309D01*
X027664Y023105D01*
X027661Y023121D01*
X027656Y023137D01*
X027837Y022956D01*
D02*
G37*
G36*
X026176Y023016D02*
X026181Y023013D01*
X026186Y02301D01*
X026193Y023007D01*
X0262Y023005D01*
X026208Y023003D01*
X026216Y023002D01*
X026226Y023001D01*
X026247Y023D01*
Y0229D01*
X026236Y0229D01*
X026216Y022898D01*
X026208Y022897D01*
X0262Y022895D01*
X026193Y022893D01*
X026186Y02289D01*
X026181Y022887D01*
X026176Y022884D01*
X026171Y02288D01*
Y02302D01*
X026176Y023016D01*
D02*
G37*
G36*
X027947Y021935D02*
X027901Y021935D01*
X027818Y021929D01*
X027782Y021924D01*
X027749Y021918D01*
X027719Y02191D01*
X027692Y0219D01*
X027669Y021889D01*
X027649Y021876D01*
X027632Y021861D01*
X027561Y021932D01*
X027576Y021949D01*
X027589Y021969D01*
X0276Y021992D01*
X02761Y022019D01*
X027618Y022049D01*
X027624Y022082D01*
X027629Y022118D01*
X027635Y022201D01*
X027635Y022247D01*
X027947Y021935D01*
D02*
G37*
G36*
X027129Y019716D02*
X027128Y019713D01*
X027127Y019707D01*
X027126Y019692D01*
X027125Y01964D01*
X027125Y019623D01*
X026925D01*
X02692Y019718D01*
X02713D01*
X027129Y019716D01*
D02*
G37*
G36*
X026521Y017379D02*
X026503Y017361D01*
X026475Y017328D01*
X026464Y017314D01*
X026455Y0173D01*
X026449Y017287D01*
X026445Y017276D01*
X026443Y017265D01*
X026443Y017255D01*
X026445Y017247D01*
X026247Y017445D01*
X026255Y017443D01*
X026265Y017443D01*
X026276Y017445D01*
X026287Y017449D01*
X0263Y017455D01*
X026314Y017464D01*
X026328Y017475D01*
X026344Y017488D01*
X026379Y017521D01*
X026521Y017379D01*
D02*
G37*
G36*
X027593Y017345D02*
X027591Y017346D01*
X027588Y017347D01*
X027582Y017348D01*
X027567Y017349D01*
X027515Y01735D01*
X027498Y01735D01*
Y01755D01*
X027593Y017555D01*
Y017345D01*
D02*
G37*
G36*
X020029Y017354D02*
X020032Y017353D01*
X020038Y017352D01*
X020053Y017351D01*
X020105Y01735D01*
X020122Y01735D01*
X020122Y01715D01*
X020027Y017145D01*
X020027Y017355D01*
X020029Y017354D01*
D02*
G37*
G36*
X021376Y017051D02*
X021381Y017048D01*
X021386Y017045D01*
X021393Y017042D01*
X0214Y01704D01*
X021408Y017038D01*
X021416Y017037D01*
X021426Y017036D01*
X021447Y017035D01*
Y016935D01*
X021436Y016935D01*
X021416Y016933D01*
X021408Y016932D01*
X0214Y01693D01*
X021393Y016928D01*
X021386Y016925D01*
X021381Y016922D01*
X021376Y016919D01*
X021371Y016915D01*
Y017055D01*
X021376Y017051D01*
D02*
G37*
G36*
X022253Y016594D02*
X022251Y016595D01*
X022248Y016595D01*
X022242Y016596D01*
X022227Y016597D01*
X022175Y016599D01*
X022158Y016599D01*
Y016799D01*
X022253Y016804D01*
Y016594D01*
D02*
G37*
G36*
X011008Y020164D02*
X011005Y020155D01*
Y020145D01*
X011008Y020133D01*
X011014Y020119D01*
X011022Y020104D01*
X011034Y020088D01*
X011048Y02007D01*
X011084Y020031D01*
X011014Y01996D01*
X010993Y01998D01*
X010956Y020011D01*
X01094Y020022D01*
X010925Y020031D01*
X010912Y020036D01*
X0109Y020039D01*
X010889D01*
X01088Y020036D01*
X010872Y020031D01*
X011014Y020172D01*
X011008Y020164D01*
D02*
G37*
G36*
X013815Y019544D02*
X013755Y019419D01*
X013753Y019424D01*
X01375Y019428D01*
X013746Y019432D01*
X013741Y019435D01*
X013735Y019438D01*
X013728Y01944D01*
X01372Y019442D01*
X013711Y019444D01*
X013701Y019444D01*
X01369Y019445D01*
X0137Y019545D01*
X013815Y019544D01*
D02*
G37*
G36*
X011009Y019407D02*
X011012Y019404D01*
X011015Y019402D01*
X01102Y0194D01*
X011025Y019398D01*
X011032Y019397D01*
X01104Y019396D01*
X011059Y019395D01*
X011071Y019395D01*
Y019295D01*
X011059Y019294D01*
X011032Y019292D01*
X011025Y019291D01*
X01102Y019289D01*
X011015Y019287D01*
X011012Y019285D01*
X011009Y019283D01*
X011008Y01928D01*
Y019409D01*
X011009Y019407D01*
D02*
G37*
G36*
X013779Y018895D02*
X013774Y018899D01*
X013769Y018902D01*
X013764Y018905D01*
X013757Y018908D01*
X01375Y01891D01*
X013742Y018912D01*
X013734Y018913D01*
X013724Y018914D01*
X013703Y018915D01*
Y019015D01*
X013714Y019015D01*
X013734Y019017D01*
X013742Y019018D01*
X01375Y01902D01*
X013757Y019022D01*
X013764Y019025D01*
X013769Y019028D01*
X013774Y019031D01*
X013779Y019035D01*
Y018895D01*
D02*
G37*
G36*
X018435Y017831D02*
X018429Y017832D01*
X018423Y017831D01*
X018417Y01783D01*
X01841Y017828D01*
X018404Y017825D01*
X018397Y017821D01*
X01839Y017816D01*
X018382Y01781D01*
X018375Y017804D01*
X018367Y017796D01*
X018308Y017879D01*
X018316Y017886D01*
X018334Y017908D01*
X018338Y017915D01*
X018342Y017921D01*
X018346Y017927D01*
X018348Y017933D01*
X01835Y017938D01*
X018351Y017943D01*
X018435Y017831D01*
D02*
G37*
G36*
X010958Y017533D02*
X01102Y017478D01*
X011049Y017456D01*
X011077Y017437D01*
X011104Y017422D01*
X01113Y01741D01*
X011154Y017401D01*
X011178Y017396D01*
X0112Y017395D01*
Y017295D01*
X011178Y017293D01*
X011154Y017288D01*
X01113Y017279D01*
X011104Y017267D01*
X011077Y017252D01*
X011049Y017233D01*
X01102Y017211D01*
X010958Y017156D01*
X010925Y017124D01*
Y017565D01*
X010958Y017533D01*
D02*
G37*
G36*
X010992Y018468D02*
X011002Y018452D01*
X011015Y018439D01*
X011028Y018427D01*
X011043Y018417D01*
X011059Y018409D01*
X011076Y018403D01*
X011095Y018398D01*
X011114Y018395D01*
X011135Y018395D01*
Y018295D01*
X011114Y018294D01*
X011095Y018291D01*
X011076Y018286D01*
X011059Y01828D01*
X011043Y018272D01*
X011028Y018262D01*
X011015Y01825D01*
X011002Y018237D01*
X010992Y018221D01*
X010982Y018204D01*
Y018485D01*
X010992Y018468D01*
D02*
G37*
G36*
X016029Y01786D02*
X016024Y017864D01*
X016019Y017867D01*
X016014Y01787D01*
X016007Y017873D01*
X016Y017875D01*
X015992Y017877D01*
X015984Y017878D01*
X015974Y017879D01*
X015953Y01788D01*
Y01798D01*
X015964Y01798D01*
X015984Y017982D01*
X015992Y017983D01*
X016Y017985D01*
X016007Y017987D01*
X016014Y01799D01*
X016019Y017993D01*
X016024Y017996D01*
X016029Y018D01*
Y01786D01*
D02*
G37*
G36*
X022343Y012295D02*
X022341Y012296D01*
X022338Y012297D01*
X022332Y012298D01*
X022317Y012299D01*
X022265Y0123D01*
X022248Y0123D01*
Y0125D01*
X022343Y012505D01*
Y012295D01*
D02*
G37*
G36*
X019459Y012504D02*
X019462Y012503D01*
X019468Y012502D01*
X019483Y012501D01*
X019535Y0125D01*
X019552Y0125D01*
Y0123D01*
X019457Y012295D01*
Y012505D01*
X019459Y012504D01*
D02*
G37*
G36*
X020076Y011216D02*
X020081Y011213D01*
X020087Y01121D01*
X020093Y011207D01*
X020101Y011205D01*
X020108Y011203D01*
X020117Y011202D01*
X020126Y011201D01*
X020147Y0112D01*
Y0111D01*
X020136Y0111D01*
X020117Y011098D01*
X020108Y011097D01*
X020101Y011095D01*
X020093Y011093D01*
X020087Y01109D01*
X020081Y011087D01*
X020076Y011084D01*
X020072Y01108D01*
Y01122D01*
X020076Y011216D01*
D02*
G37*
G36*
X020538Y011075D02*
X020535Y01108D01*
X020531Y011084D01*
X020526Y011088D01*
X02052Y011091D01*
X020514Y011094D01*
X020506Y011096D01*
X020498Y011098D01*
X020489Y011099D01*
X020479Y0111D01*
X020468Y0111D01*
X020499Y0112D01*
X02051Y0112D01*
X020546Y011203D01*
X020553Y011204D01*
X020559Y011205D01*
X020565Y011207D01*
X020569Y011209D01*
X020573Y011211D01*
X020538Y011075D01*
D02*
G37*
D12*
X02735Y02165D02*
X02795Y02225D01*
X02735Y01811D02*
Y02165D01*
X026925Y017685D02*
X02735Y01811D01*
X022Y0261D02*
X0232Y0273D01*
X02663D01*
X022Y020539D02*
Y0261D01*
X02225Y0256D02*
X02295Y0263D01*
X02485D01*
X02225Y0245D02*
Y0256D01*
X0225Y025455D02*
X022895Y02585D01*
X0225Y0228D02*
Y025455D01*
X022895Y02585D02*
X02326D01*
X020001Y01115D02*
X0206D01*
X020625Y011125D01*
X02Y01115D02*
X020001D01*
X022Y02D02*
Y020361D01*
X021785Y02045D02*
X021825Y02049D01*
X02225Y0282D02*
X02665D01*
X021825Y027775D02*
X02225Y0282D01*
X021825Y02049D02*
Y027775D01*
X023069Y02145D02*
Y02335D01*
X0213Y016985D02*
X02295D01*
X02365Y017685D02*
X026925D01*
X02295Y016985D02*
X02365Y017685D01*
X01135Y023878D02*
X0114D01*
X0111Y026957D02*
Y0273D01*
Y026957D02*
X011114Y026942D01*
Y026558D02*
Y026942D01*
X0111Y026543D02*
X011114Y026558D01*
X0111Y025957D02*
Y026543D01*
Y025957D02*
X011114Y025942D01*
Y025558D02*
Y025942D01*
X0111Y025543D02*
X011114Y025558D01*
X0111Y02265D02*
Y025543D01*
Y02265D02*
X011785Y021965D01*
X01065Y02775D02*
X0111Y0273D01*
X0114Y023878D02*
X011425Y023903D01*
X011428Y0239D01*
X01155Y01793D02*
X0161D01*
X02665Y0282D02*
X0267D01*
X0181Y0176D02*
X01845Y01795D01*
Y01793D02*
Y01795D01*
X022Y020539D02*
X022002Y020537D01*
Y020363D02*
Y020537D01*
X022Y020361D02*
X022002Y020363D01*
X02195Y02D02*
X022D01*
X021785Y02045D02*
X021792D01*
X0233Y0227D02*
Y02495D01*
X0116Y0176D02*
X0181D01*
X011345Y017345D02*
X0116Y0176D01*
X0236Y024186D02*
X02795D01*
X02765Y02295D02*
X02795Y02325D01*
X0261Y02295D02*
X02765D01*
X0107Y017345D02*
X011345D01*
X011135Y018345D02*
X01155Y01793D01*
X0107Y018345D02*
X011135D01*
X011071Y019345D02*
X01145Y018965D01*
X0107Y019345D02*
X011071D01*
X013805Y019495D02*
X01385Y01945D01*
X01155Y019495D02*
X013805D01*
X0107Y020345D02*
X01155Y019495D01*
X01145Y018965D02*
X01385D01*
X011428Y0239D02*
X013D01*
X01321Y021965D02*
X013245Y022D01*
X011785Y021965D02*
X01321D01*
D67*
X0165Y01065D02*
D03*
X013744D02*
D03*
D71*
X0153Y0144D02*
D03*
X0133D02*
D03*
D78*
X02745Y0293D02*
X027845D01*
X02705Y0289D02*
X02745Y0293D01*
X02705Y0259D02*
Y0289D01*
X0267Y018D02*
X027025Y018325D01*
Y019825D01*
X02705Y024655D02*
Y0259D01*
X01435Y0166D02*
X014449Y016699D01*
X01935Y0124D02*
X02245D01*
X0224Y02065D02*
X0235Y01955D01*
X02276Y024937D02*
X023069Y025246D01*
X02276Y022692D02*
Y024937D01*
X0224Y02065D02*
Y022332D01*
Y0191D02*
Y02065D01*
Y022332D02*
X02276Y022692D01*
X0235Y01955D02*
X02455D01*
X014449Y016699D02*
X02236D01*
X02645Y01745D02*
X0277D01*
X0261Y0171D02*
X02645Y01745D01*
X02275Y01725D02*
X0235Y018D01*
X01992Y01725D02*
X02275D01*
X0235Y018D02*
X0267D01*
X0121Y024218D02*
Y0261D01*
X0143Y01665D02*
X01435Y0166D01*
D80*
X025987Y0101D02*
D03*
X02685Y03035D02*
D03*
D81*
X024987Y0101D02*
D03*
X027845Y0283D02*
D03*
Y0293D02*
D03*
Y0303D02*
D03*
X02385Y03035D02*
D03*
X02485D02*
D03*
X02585D02*
D03*
X02795Y02225D02*
D03*
Y02325D02*
D03*
Y02425D02*
D03*
Y02525D02*
D03*
X0107Y019345D02*
D03*
Y018345D02*
D03*
Y017345D02*
D03*
Y016345D02*
D03*
Y015345D02*
D03*
D82*
X027845Y0273D02*
D03*
X02795Y02625D02*
D03*
X0107Y020345D02*
D03*
D83*
X01065Y02875D02*
D03*
D84*
Y02775D02*
D03*
Y02675D02*
D03*
Y02575D02*
D03*
D85*
X011297Y011329D02*
D03*
Y013927D02*
D03*
D86*
X0261Y0171D02*
D03*
X0251Y0151D02*
D03*
X0241Y0171D02*
D03*
D87*
X02085Y01185D02*
D03*
X021945Y011777D02*
D03*
X02663Y0273D02*
D03*
X02485Y0263D02*
D03*
X02326Y02585D02*
D03*
X020625Y011125D02*
D03*
X020001Y01115D02*
D03*
X0192Y0177D02*
D03*
X02305Y02145D02*
D03*
X0213Y016985D02*
D03*
X01236Y02335D02*
D03*
X01355Y02475D02*
D03*
X01135Y023878D02*
D03*
X0161Y01793D02*
D03*
X020709Y018041D02*
D03*
X02665Y0282D02*
D03*
X01845Y01793D02*
D03*
X02195Y02D02*
D03*
X021792Y02045D02*
D03*
X021615Y0256D02*
D03*
X02225Y0245D02*
D03*
X0225Y0228D02*
D03*
X023069Y02335D02*
D03*
X0233Y0227D02*
D03*
Y02495D02*
D03*
X02445Y024407D02*
D03*
X0236Y024186D02*
D03*
X0261Y02295D02*
D03*
X013Y0239D02*
D03*
X013245Y022D02*
D03*
X01385Y01945D02*
D03*
Y018965D02*
D03*
D88*
X0278Y00985D02*
D03*
X0108D02*
D03*
Y03025D02*
D03*
D89*
X0267Y02085D02*
D03*
X027025Y019825D02*
D03*
X02705Y0259D02*
D03*
Y024655D02*
D03*
X027845Y014595D02*
D03*
X02595Y02625D02*
D03*
X021395Y013095D02*
D03*
X020891Y009609D02*
D03*
X019382Y009618D02*
D03*
X018068D02*
D03*
X021995Y009905D02*
D03*
X02245Y0124D02*
D03*
X01935D02*
D03*
X02375Y0165D02*
D03*
X0136Y023004D02*
D03*
X0265Y01645D02*
D03*
X02236Y016699D02*
D03*
X02805Y018574D02*
D03*
X0277Y01745D02*
D03*
X012659Y02005D02*
D03*
X0121Y024218D02*
D03*
Y0261D02*
D03*
X01992Y01725D02*
D03*
X016724Y022957D02*
D03*
X017249Y02242D02*
D03*
Y022967D02*
D03*
X017784Y022947D02*
D03*
X016724Y02242D02*
D03*
X017784Y022428D02*
D03*
X017249Y021887D02*
D03*
X016724D02*
D03*
X017784D02*
D03*
X011156Y021144D02*
D03*
X02455Y01955D02*
D03*
X023069Y025246D02*
D03*
X0224Y0191D02*
D03*
X019553Y015303D02*
D03*
X0143Y01665D02*
D03*
X0139Y02555D02*
D03*
X015432Y01825D02*
D03*
X01385Y01605D02*
D03*
X01595Y016047D02*
D03*
X016874Y012926D02*
D03*
X014887Y011909D02*
D03*
M02*
