G04*
G04 #@! TF.GenerationSoftware,Altium Limited,Altium Designer,18.1.6 (161)*
G04*
G04 Layer_Color=65535*
%FSTAX24Y24*%
%MOIN*%
G70*
G01*
G75*
%ADD10C,0.0098*%
%ADD11C,0.0236*%
%ADD12C,0.0100*%
%ADD13C,0.0070*%
%ADD14C,0.0040*%
%ADD15C,0.0079*%
%ADD16C,0.0050*%
%ADD17C,0.0059*%
%ADD18C,0.0032*%
%ADD19R,0.0500X0.1000*%
D10*
X020958Y010691D02*
G03*
X020958Y010691I-000049J0D01*
G01*
X018091Y009618D02*
G03*
X018091Y009618I-000049J0D01*
G01*
X020762Y011315D02*
G03*
X020762Y011315I-000049J0D01*
G01*
X026918Y017216D02*
G03*
X026918Y017216I-000049J0D01*
G01*
X024644Y020917D02*
G03*
X024644Y020917I-000049J0D01*
G01*
X016598Y016745D02*
G03*
X016598Y016745I-000049J0D01*
G01*
X022334Y0152D02*
G03*
X022334Y0152I-000049J0D01*
G01*
D11*
X020004Y011809D02*
G03*
X020004Y011809I-000118J0D01*
G01*
X025128Y021803D02*
G03*
X025128Y021803I-000118J0D01*
G01*
D12*
X013754Y025479D02*
G03*
X013754Y025479I-000123J0D01*
G01*
X01108Y023632D02*
X01153D01*
X01007D02*
X01052D01*
X01007Y021412D02*
Y023632D01*
X01153Y021412D02*
Y023632D01*
X01105Y022022D02*
Y023022D01*
X01055Y022022D02*
X01105D01*
X01055D02*
Y023022D01*
X01105D01*
X01108Y021412D02*
X01153D01*
X01007D02*
X01052D01*
X0258Y00945D02*
Y00965D01*
X0257Y00955D01*
X025833D01*
X0259Y00945D02*
Y009483D01*
X025933D01*
Y00945D01*
X0259D01*
X0262D02*
X026067D01*
X0262Y009583D01*
Y009617D01*
X026167Y00965D01*
X0261D01*
X026067Y009617D01*
X026266Y00965D02*
Y009517D01*
X026333Y00945D01*
X0264Y009517D01*
Y00965D01*
X022493Y009867D02*
X02246Y0099D01*
X022393D01*
X02236Y009867D01*
Y009733D01*
X022393Y0097D01*
X02246D01*
X022493Y009733D01*
X02256Y0097D02*
X022627D01*
X022593D01*
Y0099D01*
X02256Y009867D01*
X022727Y0099D02*
X02286D01*
Y009867D01*
X022727Y009733D01*
Y0097D01*
X021936Y013267D02*
X021903Y0133D01*
X021836D01*
X021803Y013267D01*
Y013133D01*
X021836Y0131D01*
X021903D01*
X021936Y013133D01*
X022003Y0131D02*
X02207D01*
X022036D01*
Y0133D01*
X022003Y013267D01*
X022303Y0133D02*
X022236Y013267D01*
X02217Y0132D01*
Y013133D01*
X022203Y0131D01*
X022269D01*
X022303Y013133D01*
Y013167D01*
X022269Y0132D01*
X02217D01*
X021293Y009917D02*
X02126Y00995D01*
X021193D01*
X02116Y009917D01*
Y009783D01*
X021193Y00975D01*
X02126D01*
X021293Y009783D01*
X02136Y00975D02*
X021427D01*
X021393D01*
Y00995D01*
X02136Y009917D01*
X02166Y00995D02*
X021527D01*
Y00985D01*
X021593Y009883D01*
X021627D01*
X02166Y00985D01*
Y009783D01*
X021627Y00975D01*
X02156D01*
X021527Y009783D01*
X020909Y01115D02*
X021109D01*
Y01105D01*
X021075Y011017D01*
X021009D01*
X020975Y01105D01*
Y01115D01*
Y011083D02*
X020909Y011017D01*
Y010817D02*
Y01095D01*
X021042Y010817D01*
X021075D01*
X021109Y01085D01*
Y010917D01*
X021075Y01095D01*
X021109Y01075D02*
Y010617D01*
X021075D01*
X020942Y01075D01*
X020909D01*
X02111Y0096D02*
X021177D01*
X021143D01*
Y0094D01*
X02111D01*
X021177D01*
X02141Y009567D02*
X021377Y0096D01*
X02131D01*
X021277Y009567D01*
Y009433D01*
X02131Y0094D01*
X021377D01*
X02141Y009433D01*
X021477Y009567D02*
X02151Y0096D01*
X021577D01*
X02161Y009567D01*
Y009533D01*
X021577Y0095D01*
X02161Y009467D01*
Y009433D01*
X021577Y0094D01*
X02151D01*
X021477Y009433D01*
Y009467D01*
X02151Y0095D01*
X021477Y009533D01*
Y009567D01*
X02151Y0095D02*
X021577D01*
X017147Y00965D02*
X017213D01*
X01718D01*
Y00945D01*
X017147D01*
X017213D01*
X017447Y009617D02*
X017413Y00965D01*
X017347D01*
X017313Y009617D01*
Y009483D01*
X017347Y00945D01*
X017413D01*
X017447Y009483D01*
X017513Y00945D02*
X01758D01*
X017547D01*
Y00965D01*
X017513Y009617D01*
X01768D02*
X017713Y00965D01*
X01778D01*
X017813Y009617D01*
Y009483D01*
X01778Y00945D01*
X017713D01*
X01768Y009483D01*
Y009617D01*
X02278Y01548D02*
Y01488D01*
X02318D01*
X02338D02*
X02358D01*
X02348D01*
Y01548D01*
X02338Y01538D01*
X02635Y026317D02*
X026383Y02635D01*
X02645D01*
X026483Y026317D01*
Y026283D01*
X02645Y02625D01*
X026417D01*
X02645D01*
X026483Y026217D01*
Y026183D01*
X02645Y02615D01*
X026383D01*
X02635Y026183D01*
X02655Y02615D02*
Y026183D01*
X026583D01*
Y02615D01*
X02655D01*
X026717Y026317D02*
X02675Y02635D01*
X026817D01*
X02685Y026317D01*
Y026283D01*
X026817Y02625D01*
X026783D01*
X026817D01*
X02685Y026217D01*
Y026183D01*
X026817Y02615D01*
X02675D01*
X026717Y026183D01*
X026916Y02635D02*
Y026217D01*
X026983Y02615D01*
X02705Y026217D01*
Y02635D01*
X027116D02*
Y02615D01*
X027216D01*
X02725Y026183D01*
Y026317D01*
X027216Y02635D01*
X027116D01*
X02745Y026317D02*
X027416Y02635D01*
X02735D01*
X027316Y026317D01*
Y026183D01*
X02735Y02615D01*
X027416D01*
X02745Y026183D01*
X026742Y0222D02*
Y022D01*
X026842D01*
X026876Y022033D01*
Y022067D01*
X026842Y0221D01*
X026742D01*
X026842D01*
X026876Y022133D01*
Y022167D01*
X026842Y0222D01*
X026742D01*
X027042D02*
X026976D01*
X026942Y022167D01*
Y022033D01*
X026976Y022D01*
X027042D01*
X027076Y022033D01*
Y022167D01*
X027042Y0222D01*
X027242D02*
X027175D01*
X027142Y022167D01*
Y022033D01*
X027175Y022D01*
X027242D01*
X027275Y022033D01*
Y022167D01*
X027242Y0222D01*
X027342D02*
X027475D01*
X027409D01*
Y022D01*
X026742Y02305D02*
Y02325D01*
X026842D01*
X026876Y023217D01*
Y02315D01*
X026842Y023117D01*
X026742D01*
X026809D02*
X026876Y02305D01*
X026942Y02325D02*
X027076Y02305D01*
Y02325D02*
X026942Y02305D01*
X027142Y02325D02*
Y02305D01*
X027242D01*
X027275Y023083D01*
Y023217D01*
X027242Y02325D01*
X027142D01*
X027342Y023217D02*
X027375Y02325D01*
X027442D01*
X027475Y023217D01*
Y023083D01*
X027442Y02305D01*
X027375D01*
X027342Y023083D01*
Y023217D01*
X02665Y0242D02*
X026783D01*
X026717D01*
Y024D01*
X02685Y0242D02*
X026983Y024D01*
Y0242D02*
X02685Y024D01*
X02705Y0242D02*
Y024D01*
X02715D01*
X027183Y024033D01*
Y024167D01*
X02715Y0242D01*
X02705D01*
X02725Y024167D02*
X027283Y0242D01*
X02735D01*
X027383Y024167D01*
Y024033D01*
X02735Y024D01*
X027283D01*
X02725Y024033D01*
Y024167D01*
X027002Y025267D02*
X026968Y0253D01*
X026902D01*
X026869Y025267D01*
Y025133D01*
X026902Y0251D01*
X026968D01*
X027002Y025133D01*
Y0252D01*
X026935D01*
X027068Y0251D02*
Y0253D01*
X027202Y0251D01*
Y0253D01*
X027268D02*
Y0251D01*
X027368D01*
X027402Y025133D01*
Y025267D01*
X027368Y0253D01*
X027268D01*
X011483Y015367D02*
X01145Y0154D01*
X011383D01*
X01135Y015367D01*
Y015233D01*
X011383Y0152D01*
X01145D01*
X011483Y015233D01*
Y0153D01*
X011417D01*
X01155Y0152D02*
Y0154D01*
X011683Y0152D01*
Y0154D01*
X01175D02*
Y0152D01*
X01185D01*
X011883Y015233D01*
Y015367D01*
X01185Y0154D01*
X01175D01*
X011297Y016417D02*
X01133Y01645D01*
X011397D01*
X01143Y016417D01*
Y016383D01*
X011397Y01635D01*
X011364D01*
X011397D01*
X01143Y016317D01*
Y016283D01*
X011397Y01625D01*
X01133D01*
X011297Y016283D01*
X011497Y01625D02*
Y016283D01*
X01153D01*
Y01625D01*
X011497D01*
X011663Y016417D02*
X011697Y01645D01*
X011763D01*
X011797Y016417D01*
Y016383D01*
X011763Y01635D01*
X01173D01*
X011763D01*
X011797Y016317D01*
Y016283D01*
X011763Y01625D01*
X011697D01*
X011663Y016283D01*
X011863Y01645D02*
Y016317D01*
X01193Y01625D01*
X011997Y016317D01*
Y01645D01*
X012063D02*
Y01625D01*
X012163D01*
X012197Y016283D01*
Y016417D01*
X012163Y01645D01*
X012063D01*
X012396Y016417D02*
X012363Y01645D01*
X012297D01*
X012263Y016417D01*
Y016283D01*
X012297Y01625D01*
X012363D01*
X012396Y016283D01*
X011433Y0174D02*
X011367D01*
X0114D01*
Y017233D01*
X011367Y0172D01*
X011333D01*
X0113Y017233D01*
X0115Y0174D02*
Y0172D01*
X011633D01*
X0117Y0174D02*
X011767D01*
X011733D01*
Y0172D01*
X0117D01*
X011767D01*
X011866D02*
Y0174D01*
X012Y0172D01*
Y0174D01*
X012066D02*
Y0172D01*
Y017267D01*
X0122Y0174D01*
X0121Y0173D01*
X0122Y0172D01*
X012266Y017167D02*
X0124D01*
X012466Y0174D02*
X0126D01*
X012533D01*
Y0172D01*
X012666Y0174D02*
Y0172D01*
X012766D01*
X0128Y017233D01*
Y017367D01*
X012766Y0174D01*
X012666D01*
X012966D02*
X012899D01*
X012866Y017367D01*
Y017233D01*
X012899Y0172D01*
X012966D01*
X012999Y017233D01*
Y017367D01*
X012966Y0174D01*
X011333Y01835D02*
X011267D01*
X0113D01*
Y018183D01*
X011267Y01815D01*
X011233D01*
X0112Y018183D01*
X0114Y01835D02*
Y01815D01*
X011533D01*
X0116Y01835D02*
X011667D01*
X011633D01*
Y01815D01*
X0116D01*
X011667D01*
X011766D02*
Y01835D01*
X0119Y01815D01*
Y01835D01*
X011966D02*
Y01815D01*
Y018217D01*
X0121Y01835D01*
X012Y01825D01*
X0121Y01815D01*
X012166Y018117D02*
X0123D01*
X012366Y01835D02*
X0125D01*
X012433D01*
Y01815D01*
X0127Y018317D02*
X012666Y01835D01*
X0126D01*
X012566Y018317D01*
Y018183D01*
X0126Y01815D01*
X012666D01*
X0127Y018183D01*
X012766Y01835D02*
Y01815D01*
Y018217D01*
X012899Y01835D01*
X012799Y01825D01*
X012899Y01815D01*
X011333Y0194D02*
X011267D01*
X0113D01*
Y019233D01*
X011267Y0192D01*
X011233D01*
X0112Y019233D01*
X0114Y0194D02*
Y0192D01*
X011533D01*
X0116Y0194D02*
X011667D01*
X011633D01*
Y0192D01*
X0116D01*
X011667D01*
X011766D02*
Y0194D01*
X0119Y0192D01*
Y0194D01*
X011966D02*
Y0192D01*
Y019267D01*
X0121Y0194D01*
X012Y0193D01*
X0121Y0192D01*
X012166Y019167D02*
X0123D01*
X012366Y0194D02*
X0125D01*
X012433D01*
Y0192D01*
X012566Y0194D02*
Y0192D01*
X012666D01*
X0127Y019233D01*
Y019367D01*
X012666Y0194D01*
X012566D01*
X012766D02*
X012833D01*
X012799D01*
Y0192D01*
X012766D01*
X012833D01*
X011333Y020045D02*
X011267D01*
X0113D01*
Y019878D01*
X011267Y019845D01*
X011233D01*
X0112Y019878D01*
X0114Y020045D02*
Y019845D01*
X011533D01*
X0116Y020045D02*
X011667D01*
X011633D01*
Y019845D01*
X0116D01*
X011667D01*
X011766D02*
Y020045D01*
X0119Y019845D01*
Y020045D01*
X011966D02*
Y019845D01*
Y019911D01*
X0121Y020045D01*
X012Y019945D01*
X0121Y019845D01*
X012166Y019811D02*
X0123D01*
X012366Y020045D02*
X0125D01*
X012433D01*
Y019845D01*
X012566D02*
Y020045D01*
X012633Y019978D01*
X0127Y020045D01*
Y019845D01*
X012899Y020011D02*
X012866Y020045D01*
X012799D01*
X012766Y020011D01*
Y019978D01*
X012799Y019945D01*
X012866D01*
X012899Y019911D01*
Y019878D01*
X012866Y019845D01*
X012799D01*
X012766Y019878D01*
X02595Y0274D02*
X026083D01*
X026017D01*
Y0272D01*
X02615Y0274D02*
X026283Y0272D01*
Y0274D02*
X02615Y0272D01*
X02635Y0274D02*
Y0272D01*
X02645D01*
X026483Y027233D01*
Y027367D01*
X02645Y0274D01*
X02635D01*
X02655Y027167D02*
X026683D01*
X02675Y0274D02*
Y0272D01*
X02685D01*
X026883Y027233D01*
Y027367D01*
X02685Y0274D01*
X02675D01*
X02695D02*
Y027233D01*
X026983Y0272D01*
X02705D01*
X027083Y027233D01*
Y0274D01*
X027283Y027367D02*
X02725Y0274D01*
X027183D01*
X02715Y027367D01*
Y027333D01*
X027183Y0273D01*
X02725D01*
X027283Y027267D01*
Y027233D01*
X02725Y0272D01*
X027183D01*
X02715Y027233D01*
X02735Y0274D02*
X027483D01*
X027416D01*
Y0272D01*
X02595Y02815D02*
Y02835D01*
X02605D01*
X026083Y028317D01*
Y02825D01*
X02605Y028217D01*
X02595D01*
X026017D02*
X026083Y02815D01*
X02615Y02835D02*
X026283Y02815D01*
Y02835D02*
X02615Y02815D01*
X02635Y02835D02*
Y02815D01*
X02645D01*
X026483Y028183D01*
Y028317D01*
X02645Y02835D01*
X02635D01*
X02655Y028117D02*
X026683D01*
X02675Y02835D02*
Y02815D01*
X02685D01*
X026883Y028183D01*
Y028317D01*
X02685Y02835D01*
X02675D01*
X02695D02*
Y028183D01*
X026983Y02815D01*
X02705D01*
X027083Y028183D01*
Y02835D01*
X027283Y028317D02*
X02725Y02835D01*
X027183D01*
X02715Y028317D01*
Y028283D01*
X027183Y02825D01*
X02725D01*
X027283Y028217D01*
Y028183D01*
X02725Y02815D01*
X027183D01*
X02715Y028183D01*
X02735Y02835D02*
X027483D01*
X027416D01*
Y02815D01*
X026843Y02935D02*
X026709D01*
Y02925D01*
X026776Y029283D01*
X026809D01*
X026843Y02925D01*
Y029183D01*
X026809Y02915D01*
X026743D01*
X026709Y029183D01*
X026909Y02935D02*
Y029217D01*
X026976Y02915D01*
X027043Y029217D01*
Y02935D01*
X027109D02*
Y02915D01*
X027209D01*
X027242Y029183D01*
Y029317D01*
X027209Y02935D01*
X027109D01*
X027442Y029317D02*
X027409Y02935D01*
X027342D01*
X027309Y029317D01*
Y029183D01*
X027342Y02915D01*
X027409D01*
X027442Y029183D01*
X02545Y029667D02*
X025483Y0297D01*
X02555D01*
X025583Y029667D01*
Y029633D01*
X02555Y0296D01*
X025517D01*
X02555D01*
X025583Y029567D01*
Y029533D01*
X02555Y0295D01*
X025483D01*
X02545Y029533D01*
X02565Y0295D02*
Y029533D01*
X025683D01*
Y0295D01*
X02565D01*
X025817Y029667D02*
X02585Y0297D01*
X025917D01*
X02595Y029667D01*
Y029633D01*
X025917Y0296D01*
X025883D01*
X025917D01*
X02595Y029567D01*
Y029533D01*
X025917Y0295D01*
X02585D01*
X025817Y029533D01*
X026016Y0297D02*
Y029567D01*
X026083Y0295D01*
X02615Y029567D01*
Y0297D01*
X026216D02*
Y0295D01*
X026316D01*
X02635Y029533D01*
Y029667D01*
X026316Y0297D01*
X026216D01*
X02655Y029667D02*
X026516Y0297D01*
X02645D01*
X026416Y029667D01*
Y029533D01*
X02645Y0295D01*
X026516D01*
X02655Y029533D01*
X024833Y029667D02*
X0248Y0297D01*
X024733D01*
X0247Y029667D01*
Y029633D01*
X024733Y0296D01*
X0248D01*
X024833Y029567D01*
Y029533D01*
X0248Y0295D01*
X024733D01*
X0247Y029533D01*
X025033Y029667D02*
X025Y0297D01*
X024933D01*
X0249Y029667D01*
Y029533D01*
X024933Y0295D01*
X025D01*
X025033Y029533D01*
X0251Y0297D02*
Y0295D01*
X025233D01*
X023633Y029667D02*
X0236Y0297D01*
X023533D01*
X0235Y029667D01*
Y029633D01*
X023533Y0296D01*
X0236D01*
X023633Y029567D01*
Y029533D01*
X0236Y0295D01*
X023533D01*
X0235Y029533D01*
X0237Y0297D02*
Y0295D01*
X0238D01*
X023833Y029533D01*
Y029667D01*
X0238Y0297D01*
X0237D01*
X0239Y0295D02*
Y029633D01*
X023967Y0297D01*
X024033Y029633D01*
Y0295D01*
Y0296D01*
X0239D01*
X011433Y0289D02*
X0113D01*
Y0288D01*
X011367Y028833D01*
X0114D01*
X011433Y0288D01*
Y028733D01*
X0114Y0287D01*
X011333D01*
X0113Y028733D01*
X0115Y0289D02*
Y028767D01*
X011567Y0287D01*
X011633Y028767D01*
Y0289D01*
X0117D02*
Y0287D01*
X0118D01*
X011833Y028733D01*
Y028867D01*
X0118Y0289D01*
X0117D01*
X012033Y028867D02*
X012Y0289D01*
X011933D01*
X0119Y028867D01*
Y028733D01*
X011933Y0287D01*
X012D01*
X012033Y028733D01*
X026654Y01506D02*
X026621Y015094D01*
X026554D01*
X026521Y01506D01*
Y014927D01*
X026554Y014894D01*
X026621D01*
X026654Y014927D01*
X026721D02*
X026754Y014894D01*
X026821D01*
X026854Y014927D01*
Y01506D01*
X026821Y015094D01*
X026754D01*
X026721Y01506D01*
Y015027D01*
X026754Y014994D01*
X026854D01*
X026983Y02695D02*
X026917D01*
X02695D01*
Y026783D01*
X026917Y02675D01*
X026883D01*
X02685Y026783D01*
X02705Y02675D02*
Y02695D01*
X02715D01*
X027183Y026917D01*
Y02685D01*
X02715Y026817D01*
X02705D01*
X02735Y02675D02*
Y02695D01*
X02725Y02685D01*
X027383D01*
X02115Y0131D02*
Y0133D01*
X02125D01*
X021283Y013267D01*
Y0132D01*
X02125Y013167D01*
X02115D01*
X021217D02*
X021283Y0131D01*
X02135Y013267D02*
X021383Y0133D01*
X02145D01*
X021483Y013267D01*
Y013233D01*
X02145Y0132D01*
X021417D01*
X02145D01*
X021483Y013167D01*
Y013133D01*
X02145Y0131D01*
X021383D01*
X02135Y013133D01*
X02155Y0131D02*
X021617D01*
X021583D01*
Y0133D01*
X02155Y013267D01*
X01725Y011155D02*
Y011355D01*
X01735D01*
X017383Y011321D01*
Y011255D01*
X01735Y011221D01*
X01725D01*
X017317D02*
X017383Y011155D01*
X017583D02*
X01745D01*
X017583Y011288D01*
Y011321D01*
X01755Y011355D01*
X017483D01*
X01745Y011321D01*
X01765Y011188D02*
X017683Y011155D01*
X01775D01*
X017783Y011188D01*
Y011321D01*
X01775Y011355D01*
X017683D01*
X01765Y011321D01*
Y011288D01*
X017683Y011255D01*
X017783D01*
X0225Y0142D02*
Y0144D01*
X0226D01*
X022633Y014367D01*
Y0143D01*
X0226Y014267D01*
X0225D01*
X022567D02*
X022633Y0142D01*
X022833D02*
X0227D01*
X022833Y014333D01*
Y014367D01*
X0228Y0144D01*
X022733D01*
X0227Y014367D01*
X023Y0142D02*
Y0144D01*
X0229Y0143D01*
X023033D01*
X02195Y0159D02*
Y0161D01*
X02205D01*
X022083Y016067D01*
Y016D01*
X02205Y015967D01*
X02195D01*
X022017D02*
X022083Y0159D01*
X022283D02*
X02215D01*
X022283Y016033D01*
Y016067D01*
X02225Y0161D01*
X022183D01*
X02215Y016067D01*
X02235D02*
X022383Y0161D01*
X02245D01*
X022483Y016067D01*
Y016033D01*
X02245Y016D01*
X022417D01*
X02245D01*
X022483Y015967D01*
Y015933D01*
X02245Y0159D01*
X022383D01*
X02235Y015933D01*
X026471Y015418D02*
Y015618D01*
X026571D01*
X026604Y015584D01*
Y015518D01*
X026571Y015484D01*
X026471D01*
X026537D02*
X026604Y015418D01*
X026804D02*
X026671D01*
X026804Y015551D01*
Y015584D01*
X026771Y015618D01*
X026704D01*
X026671Y015584D01*
X027004Y015418D02*
X026871D01*
X027004Y015551D01*
Y015584D01*
X026971Y015618D01*
X026904D01*
X026871Y015584D01*
X023705Y026245D02*
Y026445D01*
X023805D01*
X023838Y026412D01*
Y026345D01*
X023805Y026312D01*
X023705D01*
X023771D02*
X023838Y026245D01*
X024038D02*
X023905D01*
X024038Y026379D01*
Y026412D01*
X024005Y026445D01*
X023938D01*
X023905Y026412D01*
X024105Y026245D02*
X024171D01*
X024138D01*
Y026445D01*
X024105Y026412D01*
X02485Y0262D02*
Y0264D01*
X02495D01*
X024983Y026367D01*
Y0263D01*
X02495Y026267D01*
X02485D01*
X024917D02*
X024983Y0262D01*
X025183D02*
X02505D01*
X025183Y026333D01*
Y026367D01*
X02515Y0264D01*
X025083D01*
X02505Y026367D01*
X02525D02*
X025283Y0264D01*
X02535D01*
X025383Y026367D01*
Y026233D01*
X02535Y0262D01*
X025283D01*
X02525Y026233D01*
Y026367D01*
X0159Y011455D02*
Y011255D01*
X016033D01*
X016233Y011455D02*
X0161D01*
Y011255D01*
X016233D01*
X0161Y011355D02*
X016167D01*
X0163Y011455D02*
Y011255D01*
X0164D01*
X016433Y011288D01*
Y011421D01*
X0164Y011455D01*
X0163D01*
X0165Y011421D02*
X016533Y011455D01*
X0166D01*
X016633Y011421D01*
Y011388D01*
X0166Y011355D01*
X016566D01*
X0166D01*
X016633Y011321D01*
Y011288D01*
X0166Y011255D01*
X016533D01*
X0165Y011288D01*
X012542Y01629D02*
Y01609D01*
X012676D01*
X012876Y01629D02*
X012742D01*
Y01609D01*
X012876D01*
X012742Y01619D02*
X012809D01*
X012942Y01629D02*
Y01609D01*
X013042D01*
X013076Y016123D01*
Y016257D01*
X013042Y01629D01*
X012942D01*
X013275Y01609D02*
X013142D01*
X013275Y016223D01*
Y016257D01*
X013242Y01629D01*
X013175D01*
X013142Y016257D01*
X011866Y026067D02*
X011833Y0261D01*
X011766D01*
X011733Y026067D01*
Y025933D01*
X011766Y0259D01*
X011833D01*
X011866Y025933D01*
X012066Y0259D02*
X011932D01*
X012066Y026033D01*
Y026067D01*
X012032Y0261D01*
X011966D01*
X011932Y026067D01*
X012132D02*
X012166Y0261D01*
X012232D01*
X012266Y026067D01*
Y026033D01*
X012232Y026D01*
X012199D01*
X012232D01*
X012266Y025967D01*
Y025933D01*
X012232Y0259D01*
X012166D01*
X012132Y025933D01*
X011918Y026724D02*
X011885Y026758D01*
X011818D01*
X011785Y026724D01*
Y026591D01*
X011818Y026558D01*
X011885D01*
X011918Y026591D01*
X012118Y026558D02*
X011985D01*
X012118Y026691D01*
Y026724D01*
X012085Y026758D01*
X012018D01*
X011985Y026724D01*
X012318Y026558D02*
X012185D01*
X012318Y026691D01*
Y026724D01*
X012285Y026758D01*
X012218D01*
X012185Y026724D01*
X025848Y026417D02*
X025815Y02645D01*
X025748D01*
X025715Y026417D01*
Y026283D01*
X025748Y02625D01*
X025815D01*
X025848Y026283D01*
X026048Y02625D02*
X025915D01*
X026048Y026383D01*
Y026417D01*
X026015Y02645D01*
X025948D01*
X025915Y026417D01*
X026115D02*
X026148Y02645D01*
X026215D01*
X026248Y026417D01*
Y026283D01*
X026215Y02625D01*
X026148D01*
X026115Y026283D01*
Y026417D01*
X014583Y012267D02*
X01455Y0123D01*
X014483D01*
X01445Y012267D01*
Y012133D01*
X014483Y0121D01*
X01455D01*
X014583Y012133D01*
X01465Y0121D02*
X014717D01*
X014683D01*
Y0123D01*
X01465Y012267D01*
X014817D02*
X01485Y0123D01*
X014917D01*
X01495Y012267D01*
Y012233D01*
X014917Y0122D01*
X01495Y012167D01*
Y012133D01*
X014917Y0121D01*
X01485D01*
X014817Y012133D01*
Y012167D01*
X01485Y0122D01*
X014817Y012233D01*
Y012267D01*
X01485Y0122D02*
X014917D01*
X016656Y013067D02*
X016622Y0131D01*
X016556D01*
X016522Y013067D01*
Y012933D01*
X016556Y0129D01*
X016622D01*
X016656Y012933D01*
X016722Y0129D02*
X016789D01*
X016756D01*
Y0131D01*
X016722Y013067D01*
X016889D02*
X016922Y0131D01*
X016989D01*
X017022Y013067D01*
Y013033D01*
X016989Y013D01*
X016956D01*
X016989D01*
X017022Y012967D01*
Y012933D01*
X016989Y0129D01*
X016922D01*
X016889Y012933D01*
X015533Y016779D02*
X0155Y016812D01*
X015433D01*
X0154Y016779D01*
Y016645D01*
X015433Y016612D01*
X0155D01*
X015533Y016645D01*
X0156Y016612D02*
X015667D01*
X015633D01*
Y016812D01*
X0156Y016779D01*
X0159Y016612D02*
X015767D01*
X0159Y016745D01*
Y016779D01*
X015867Y016812D01*
X0158D01*
X015767Y016779D01*
X014913D02*
X01488Y016812D01*
X014813D01*
X01478Y016779D01*
Y016645D01*
X014813Y016612D01*
X01488D01*
X014913Y016645D01*
X01498Y016612D02*
X015047D01*
X015013D01*
Y016812D01*
X01498Y016779D01*
X015147Y016612D02*
X015213D01*
X01518D01*
Y016812D01*
X015147Y016779D01*
X023283Y014367D02*
X02325Y0144D01*
X023183D01*
X02315Y014367D01*
Y014233D01*
X023183Y0142D01*
X02325D01*
X023283Y014233D01*
X02335Y0142D02*
X023417D01*
X023383D01*
Y0144D01*
X02335Y014367D01*
X023517D02*
X02355Y0144D01*
X023617D01*
X02365Y014367D01*
Y014233D01*
X023617Y0142D01*
X02355D01*
X023517Y014233D01*
Y014367D01*
X019783Y015817D02*
X01975Y01585D01*
X019683D01*
X01965Y015817D01*
Y015683D01*
X019683Y01565D01*
X01975D01*
X019783Y015683D01*
X01985Y015817D02*
X019883Y01585D01*
X01995D01*
X019983Y015817D01*
Y015783D01*
X01995Y01575D01*
X019983Y015717D01*
Y015683D01*
X01995Y01565D01*
X019883D01*
X01985Y015683D01*
Y015717D01*
X019883Y01575D01*
X01985Y015783D01*
Y015817D01*
X019883Y01575D02*
X01995D01*
X02655Y0175D02*
X026617D01*
X026583D01*
Y0173D01*
X02655D01*
X026617D01*
X02685Y017467D02*
X026817Y0175D01*
X02675D01*
X026717Y017467D01*
Y017333D01*
X02675Y0173D01*
X026817D01*
X02685Y017333D01*
X02705Y0173D02*
X026917D01*
X02705Y017433D01*
Y017467D01*
X027017Y0175D01*
X02695D01*
X026917Y017467D01*
X0237Y01945D02*
Y01925D01*
X0238D01*
X023833Y019283D01*
Y019417D01*
X0238Y01945D01*
X0237D01*
X0239Y019417D02*
X023933Y01945D01*
X024D01*
X024033Y019417D01*
Y019383D01*
X024Y01935D01*
X023967D01*
X024D01*
X024033Y019317D01*
Y019283D01*
X024Y01925D01*
X023933D01*
X0239Y019283D01*
X010333Y0212D02*
X010267D01*
X0103D01*
Y021033D01*
X010267Y021D01*
X010233D01*
X0102Y021033D01*
X0104Y021D02*
Y0212D01*
X0105D01*
X010533Y021167D01*
Y0211D01*
X0105Y021067D01*
X0104D01*
X0106Y021167D02*
X010633Y0212D01*
X0107D01*
X010733Y021167D01*
Y021133D01*
X0107Y0211D01*
X010667D01*
X0107D01*
X010733Y021067D01*
Y021033D01*
X0107Y021D01*
X010633D01*
X0106Y021033D01*
X013633Y017D02*
X0135D01*
Y0169D01*
X013567D01*
X0135D01*
Y0168D01*
X0137Y017D02*
Y0168D01*
X0138D01*
X013833Y016833D01*
Y016867D01*
X0138Y0169D01*
X0137D01*
X0138D01*
X013833Y016933D01*
Y016967D01*
X0138Y017D01*
X0137D01*
X014033Y0168D02*
X0139D01*
X014033Y016933D01*
Y016967D01*
X014Y017D01*
X013933D01*
X0139Y016967D01*
X019783Y01655D02*
X01965D01*
Y01645D01*
X019717D01*
X01965D01*
Y01635D01*
X01985Y01655D02*
Y01635D01*
X01995D01*
X019983Y016383D01*
Y016417D01*
X01995Y01645D01*
X01985D01*
X01995D01*
X019983Y016483D01*
Y016517D01*
X01995Y01655D01*
X01985D01*
X02005Y01635D02*
X020117D01*
X020083D01*
Y01655D01*
X02005Y016517D01*
X022883Y017017D02*
X02285Y01705D01*
X022783D01*
X02275Y017017D01*
Y016883D01*
X022783Y01685D01*
X02285D01*
X022883Y016883D01*
X02295Y01705D02*
X023083D01*
Y017017D01*
X02295Y016883D01*
Y01685D01*
X024826Y0172D02*
Y017067D01*
X024892Y017D01*
X024959Y017067D01*
Y0172D01*
X025026Y017D02*
Y0172D01*
X025126D01*
X025159Y017167D01*
Y0171D01*
X025126Y017067D01*
X025026D01*
X025092D02*
X025159Y017D01*
X025359D02*
X025226D01*
X025359Y017133D01*
Y017167D01*
X025326Y0172D01*
X025259D01*
X025226Y017167D01*
X01027Y01474D02*
Y014573D01*
X010303Y01454D01*
X01037D01*
X010403Y014573D01*
Y01474D01*
X010603Y014707D02*
X01057Y01474D01*
X010503D01*
X01047Y014707D01*
Y014673D01*
X010503Y01464D01*
X01057D01*
X010603Y014607D01*
Y014573D01*
X01057Y01454D01*
X010503D01*
X01047Y014573D01*
X01067Y01474D02*
Y01454D01*
X01077D01*
X010803Y014573D01*
Y014607D01*
X01077Y01464D01*
X01067D01*
X01077D01*
X010803Y014673D01*
Y014707D01*
X01077Y01474D01*
X01067D01*
X01087Y01454D02*
X010936D01*
X010903D01*
Y01474D01*
X01087Y014707D01*
X0137Y026213D02*
Y026046D01*
X013733Y026013D01*
X0138D01*
X013833Y026046D01*
Y026213D01*
X0139Y026013D02*
X013967D01*
X013933D01*
Y026213D01*
X0139Y026179D01*
X01205Y01055D02*
Y01075D01*
X01215D01*
X012183Y010717D01*
Y01065D01*
X01215Y010617D01*
X01205D01*
X012117D02*
X012183Y01055D01*
X01235D02*
Y01075D01*
X01225Y01065D01*
X012383D01*
X01255Y01055D02*
Y01075D01*
X01245Y01065D01*
X012583D01*
X014412Y01255D02*
Y01275D01*
X014512D01*
X014546Y012717D01*
Y01265D01*
X014512Y012617D01*
X014412D01*
X014479D02*
X014546Y01255D01*
X014612Y012717D02*
X014646Y01275D01*
X014712D01*
X014746Y012717D01*
Y012683D01*
X014712Y01265D01*
X014679D01*
X014712D01*
X014746Y012617D01*
Y012583D01*
X014712Y01255D01*
X014646D01*
X014612Y012583D01*
X014912Y01255D02*
Y01275D01*
X014812Y01265D01*
X014945D01*
X0118Y0215D02*
Y0217D01*
X0119D01*
X011933Y021667D01*
Y0216D01*
X0119Y021567D01*
X0118D01*
X011867D02*
X011933Y0215D01*
X012Y021667D02*
X012033Y0217D01*
X0121D01*
X012133Y021667D01*
Y021633D01*
X0121Y0216D01*
X012067D01*
X0121D01*
X012133Y021567D01*
Y021533D01*
X0121Y0215D01*
X012033D01*
X012Y021533D01*
X0122Y021667D02*
X012233Y0217D01*
X0123D01*
X012333Y021667D01*
Y021633D01*
X0123Y0216D01*
X012267D01*
X0123D01*
X012333Y021567D01*
Y021533D01*
X0123Y0215D01*
X012233D01*
X0122Y021533D01*
X01725Y0115D02*
Y0117D01*
X01735D01*
X017383Y011667D01*
Y0116D01*
X01735Y011567D01*
X01725D01*
X017317D02*
X017383Y0115D01*
X01745Y011667D02*
X017483Y0117D01*
X01755D01*
X017583Y011667D01*
Y011633D01*
X01755Y0116D01*
X017517D01*
X01755D01*
X017583Y011567D01*
Y011533D01*
X01755Y0115D01*
X017483D01*
X01745Y011533D01*
X01765Y011667D02*
X017683Y0117D01*
X01775D01*
X017783Y011667D01*
Y011533D01*
X01775Y0115D01*
X017683D01*
X01765Y011533D01*
Y011667D01*
X022285Y011315D02*
Y011515D01*
X022385D01*
X022418Y011482D01*
Y011415D01*
X022385Y011382D01*
X022285D01*
X022352D02*
X022418Y011315D01*
X022618D02*
X022485D01*
X022618Y011449D01*
Y011482D01*
X022585Y011515D01*
X022518D01*
X022485Y011482D01*
X022685D02*
X022718Y011515D01*
X022785D01*
X022818Y011482D01*
Y011449D01*
X022785Y011415D01*
X022818Y011382D01*
Y011349D01*
X022785Y011315D01*
X022718D01*
X022685Y011349D01*
Y011382D01*
X022718Y011415D01*
X022685Y011449D01*
Y011482D01*
X022718Y011415D02*
X022785D01*
X027418Y018928D02*
Y019128D01*
X027518D01*
X027551Y019095D01*
Y019028D01*
X027518Y018995D01*
X027418D01*
X027484D02*
X027551Y018928D01*
X027751D02*
X027618D01*
X027751Y019061D01*
Y019095D01*
X027718Y019128D01*
X027651D01*
X027618Y019095D01*
X027951Y019128D02*
X027884Y019095D01*
X027818Y019028D01*
Y018961D01*
X027851Y018928D01*
X027917D01*
X027951Y018961D01*
Y018995D01*
X027917Y019028D01*
X027818D01*
X012666Y0166D02*
Y0168D01*
X012766D01*
X012799Y016767D01*
Y0167D01*
X012766Y016667D01*
X012666D01*
X012732D02*
X012799Y0166D01*
X012999D02*
X012866D01*
X012999Y016733D01*
Y016767D01*
X012966Y0168D01*
X012899D01*
X012866Y016767D01*
X013199Y0168D02*
X013066D01*
Y0167D01*
X013132Y016733D01*
X013166D01*
X013199Y0167D01*
Y016633D01*
X013166Y0166D01*
X013099D01*
X013066Y016633D01*
X01175Y022824D02*
Y023024D01*
X01185D01*
X011883Y02299D01*
Y022924D01*
X01185Y02289D01*
X01175D01*
X011817D02*
X011883Y022824D01*
X01195D02*
X012017D01*
X011983D01*
Y023024D01*
X01195Y02299D01*
X012117Y022857D02*
X01215Y022824D01*
X012217D01*
X01225Y022857D01*
Y02299D01*
X012217Y023024D01*
X01215D01*
X012117Y02299D01*
Y022957D01*
X01215Y022924D01*
X01225D01*
X02175Y0183D02*
Y0185D01*
X02185D01*
X021883Y018467D01*
Y0184D01*
X02185Y018367D01*
X02175D01*
X021817D02*
X021883Y0183D01*
X02195D02*
X022017D01*
X021983D01*
Y0185D01*
X02195Y018467D01*
X022117D02*
X02215Y0185D01*
X022217D01*
X02225Y018467D01*
Y018433D01*
X022217Y0184D01*
X02225Y018367D01*
Y018333D01*
X022217Y0183D01*
X02215D01*
X022117Y018333D01*
Y018367D01*
X02215Y0184D01*
X022117Y018433D01*
Y018467D01*
X02215Y0184D02*
X022217D01*
X0118Y020428D02*
Y020628D01*
X0119D01*
X011933Y020595D01*
Y020528D01*
X0119Y020495D01*
X0118D01*
X011867D02*
X011933Y020428D01*
X012D02*
X012067D01*
X012033D01*
Y020628D01*
X012Y020595D01*
X012167Y020628D02*
X0123D01*
Y020595D01*
X012167Y020461D01*
Y020428D01*
X020295Y0181D02*
Y0183D01*
X020395D01*
X020429Y018267D01*
Y0182D01*
X020395Y018167D01*
X020295D01*
X020362D02*
X020429Y0181D01*
X020495D02*
X020562D01*
X020529D01*
Y0183D01*
X020495Y018267D01*
X020795Y0183D02*
X020728Y018267D01*
X020662Y0182D01*
Y018133D01*
X020695Y0181D01*
X020762D01*
X020795Y018133D01*
Y018167D01*
X020762Y0182D01*
X020662D01*
X022629Y01825D02*
Y01845D01*
X022729D01*
X022763Y018417D01*
Y01835D01*
X022729Y018317D01*
X022629D01*
X022696D02*
X022763Y01825D01*
X022829D02*
X022896D01*
X022863D01*
Y01845D01*
X022829Y018417D01*
X023129Y01845D02*
X022996D01*
Y01835D01*
X023063Y018383D01*
X023096D01*
X023129Y01835D01*
Y018283D01*
X023096Y01825D01*
X023029D01*
X022996Y018283D01*
X0118Y020965D02*
Y021165D01*
X0119D01*
X011933Y021132D01*
Y021065D01*
X0119Y021032D01*
X0118D01*
X011867D02*
X011933Y020965D01*
X012D02*
X012067D01*
X012033D01*
Y021165D01*
X012Y021132D01*
X012267Y020965D02*
Y021165D01*
X012167Y021065D01*
X0123D01*
X02175Y018D02*
Y0182D01*
X02185D01*
X021883Y018167D01*
Y0181D01*
X02185Y018067D01*
X02175D01*
X021817D02*
X021883Y018D01*
X02195D02*
X022017D01*
X021983D01*
Y0182D01*
X02195Y018167D01*
X022117D02*
X02215Y0182D01*
X022217D01*
X02225Y018167D01*
Y018133D01*
X022217Y0181D01*
X022183D01*
X022217D01*
X02225Y018067D01*
Y018033D01*
X022217Y018D01*
X02215D01*
X022117Y018033D01*
X01165Y02395D02*
Y02415D01*
X01175D01*
X011783Y024117D01*
Y02405D01*
X01175Y024017D01*
X01165D01*
X011717D02*
X011783Y02395D01*
X01185D02*
X011917D01*
X011883D01*
Y02415D01*
X01185Y024117D01*
X01215Y02395D02*
X012017D01*
X01215Y024083D01*
Y024117D01*
X012117Y02415D01*
X01205D01*
X012017Y024117D01*
X0257Y02415D02*
Y02435D01*
X0258D01*
X025833Y024317D01*
Y02425D01*
X0258Y024217D01*
X0257D01*
X025767D02*
X025833Y02415D01*
X0259D02*
X025967D01*
X025933D01*
Y02435D01*
X0259Y024317D01*
X026067Y02415D02*
X026133D01*
X0261D01*
Y02435D01*
X026067Y024317D01*
X0228Y02242D02*
Y02262D01*
X0229D01*
X022933Y022587D01*
Y02252D01*
X0229Y022487D01*
X0228D01*
X022867D02*
X022933Y02242D01*
X023D02*
X023067D01*
X023033D01*
Y02262D01*
X023Y022587D01*
X023167D02*
X0232Y02262D01*
X023267D01*
X0233Y022587D01*
Y022453D01*
X023267Y02242D01*
X0232D01*
X023167Y022453D01*
Y022587D01*
X0235Y0237D02*
Y0239D01*
X0236D01*
X023633Y023867D01*
Y0238D01*
X0236Y023767D01*
X0235D01*
X023567D02*
X023633Y0237D01*
X0237Y023733D02*
X023733Y0237D01*
X0238D01*
X023833Y023733D01*
Y023867D01*
X0238Y0239D01*
X023733D01*
X0237Y023867D01*
Y023833D01*
X023733Y0238D01*
X023833D01*
X02285Y02185D02*
Y02205D01*
X02295D01*
X022983Y022017D01*
Y02195D01*
X02295Y021917D01*
X02285D01*
X022917D02*
X022983Y02185D01*
X02305Y022017D02*
X023083Y02205D01*
X02315D01*
X023183Y022017D01*
Y021983D01*
X02315Y02195D01*
X023183Y021917D01*
Y021883D01*
X02315Y02185D01*
X023083D01*
X02305Y021883D01*
Y021917D01*
X023083Y02195D01*
X02305Y021983D01*
Y022017D01*
X023083Y02195D02*
X02315D01*
X02285Y02083D02*
Y02103D01*
X02295D01*
X022983Y020996D01*
Y02093D01*
X02295Y020896D01*
X02285D01*
X022917D02*
X022983Y02083D01*
X02305Y02103D02*
X023183D01*
Y020996D01*
X02305Y020863D01*
Y02083D01*
X0247Y02415D02*
Y02435D01*
X0248D01*
X024833Y024317D01*
Y02425D01*
X0248Y024217D01*
X0247D01*
X024767D02*
X024833Y02415D01*
X025033Y02435D02*
X024967Y024317D01*
X0249Y02425D01*
Y024183D01*
X024933Y02415D01*
X025D01*
X025033Y024183D01*
Y024217D01*
X025Y02425D01*
X0249D01*
X0252Y02415D02*
Y02435D01*
X0253D01*
X025333Y024317D01*
Y02425D01*
X0253Y024217D01*
X0252D01*
X025267D02*
X025333Y02415D01*
X025533Y02435D02*
X0254D01*
Y02425D01*
X025467Y024283D01*
X0255D01*
X025533Y02425D01*
Y024183D01*
X0255Y02415D01*
X025433D01*
X0254Y024183D01*
X02635Y0241D02*
Y0243D01*
X02645D01*
X026483Y024267D01*
Y0242D01*
X02645Y024167D01*
X02635D01*
X026417D02*
X026483Y0241D01*
X02665D02*
Y0243D01*
X02655Y0242D01*
X026683D01*
X02635Y0198D02*
Y02D01*
X02645D01*
X026483Y019967D01*
Y0199D01*
X02645Y019867D01*
X02635D01*
X026417D02*
X026483Y0198D01*
X02655Y019967D02*
X026583Y02D01*
X02665D01*
X026683Y019967D01*
Y019933D01*
X02665Y0199D01*
X026617D01*
X02665D01*
X026683Y019867D01*
Y019833D01*
X02665Y0198D01*
X026583D01*
X02655Y019833D01*
X02535Y019D02*
Y0192D01*
X02545D01*
X025483Y019167D01*
Y0191D01*
X02545Y019067D01*
X02535D01*
X025417D02*
X025483Y019D01*
X025683D02*
X02555D01*
X025683Y019133D01*
Y019167D01*
X02565Y0192D01*
X025583D01*
X02555Y019167D01*
X0244Y02005D02*
Y02025D01*
X0245D01*
X024533Y020217D01*
Y02015D01*
X0245Y020117D01*
X0244D01*
X024467D02*
X024533Y02005D01*
X0246D02*
X024667D01*
X024633D01*
Y02025D01*
X0246Y020217D01*
X020583Y016378D02*
Y016511D01*
X02055Y016545D01*
X020483D01*
X02045Y016511D01*
Y016378D01*
X020483Y016345D01*
X02055D01*
X020517Y016411D02*
X020583Y016345D01*
X02055D02*
X020583Y016378D01*
X020783Y016345D02*
X02065D01*
X020783Y016478D01*
Y016511D01*
X02075Y016545D01*
X020683D01*
X02065Y016511D01*
X01575Y0131D02*
Y0129D01*
X015883D01*
X016083Y0131D02*
X01595D01*
Y0129D01*
X016083D01*
X01595Y013D02*
X016017D01*
X01615Y0131D02*
Y0129D01*
X01625D01*
X016283Y012933D01*
Y013067D01*
X01625Y0131D01*
X01615D01*
X01645Y0129D02*
Y0131D01*
X01635Y013D01*
X016483D01*
X011548Y02255D02*
Y02235D01*
X011681D01*
X011881Y02255D02*
X011748D01*
Y02235D01*
X011881D01*
X011748Y02245D02*
X011815D01*
X011948Y02255D02*
Y02235D01*
X012048D01*
X012081Y022383D01*
Y022517D01*
X012048Y02255D01*
X011948D01*
X012148Y02235D02*
X012215D01*
X012181D01*
Y02255D01*
X012148Y022517D01*
X027723Y02155D02*
X027657D01*
X02769D01*
Y021383D01*
X027657Y02135D01*
X027623D01*
X02759Y021383D01*
X02779Y02135D02*
Y02155D01*
X02789D01*
X027923Y021517D01*
Y02145D01*
X02789Y021417D01*
X02779D01*
X028123Y02135D02*
X02799D01*
X028123Y021483D01*
Y021517D01*
X02809Y02155D01*
X028023D01*
X02799Y021517D01*
X022833Y0306D02*
X022767D01*
X0228D01*
Y030433D01*
X022767Y0304D01*
X022733D01*
X0227Y030433D01*
X0229Y0304D02*
Y0306D01*
X023D01*
X023033Y030567D01*
Y0305D01*
X023Y030467D01*
X0229D01*
X0231Y0304D02*
X023167D01*
X023133D01*
Y0306D01*
X0231Y030567D01*
X018636Y013731D02*
X018703D01*
X01867D01*
Y013531D01*
X018636D01*
X018703D01*
X018936Y013697D02*
X018903Y013731D01*
X018836D01*
X018803Y013697D01*
Y013564D01*
X018836Y013531D01*
X018903D01*
X018936Y013564D01*
X019003D02*
X019036Y013531D01*
X019103D01*
X019136Y013564D01*
Y013697D01*
X019103Y013731D01*
X019036D01*
X019003Y013697D01*
Y013664D01*
X019036Y013631D01*
X019136D01*
X0166Y0171D02*
X016667D01*
X016633D01*
Y0169D01*
X0166D01*
X016667D01*
X0169Y017067D02*
X016867Y0171D01*
X0168D01*
X016767Y017067D01*
Y016933D01*
X0168Y0169D01*
X016867D01*
X0169Y016933D01*
X0171Y0171D02*
X017033Y017067D01*
X016967Y017D01*
Y016933D01*
X017Y0169D01*
X017067D01*
X0171Y016933D01*
Y016967D01*
X017067Y017D01*
X016967D01*
X024295Y02375D02*
X024362D01*
X024329D01*
Y02355D01*
X024295D01*
X024362D01*
X024595Y023717D02*
X024562Y02375D01*
X024495D01*
X024462Y023717D01*
Y023583D01*
X024495Y02355D01*
X024562D01*
X024595Y023583D01*
X024662Y02355D02*
X024728D01*
X024695D01*
Y02375D01*
X024662Y023717D01*
X012843Y01565D02*
X01271D01*
Y01555D01*
X012777D01*
X01271D01*
Y01545D01*
X01291D02*
X012977D01*
X012943D01*
Y01565D01*
X01291Y015617D01*
X0105Y02995D02*
Y02975D01*
X0106D01*
X010633Y029783D01*
Y029917D01*
X0106Y02995D01*
X0105D01*
X0107D02*
Y02975D01*
Y02985D01*
X010833D01*
Y02995D01*
Y02975D01*
X0109Y02995D02*
X011033D01*
X010967D01*
Y02975D01*
X0111D02*
X011166D01*
X011133D01*
Y02995D01*
X0111Y029917D01*
X013Y01285D02*
Y01265D01*
X0131D01*
X013133Y012683D01*
Y012817D01*
X0131Y01285D01*
X013D01*
X013333Y01265D02*
X0132D01*
X013333Y012783D01*
Y012817D01*
X0133Y01285D01*
X013233D01*
X0132Y012817D01*
X019136Y014836D02*
Y014636D01*
X019236D01*
X01927Y014669D01*
Y014802D01*
X019236Y014836D01*
X019136D01*
X019336Y014636D02*
X019403D01*
X019369D01*
Y014836D01*
X019336Y014802D01*
X016583Y013517D02*
X01655Y01355D01*
X016483D01*
X01645Y013517D01*
Y013383D01*
X016483Y01335D01*
X01655D01*
X016583Y013383D01*
X01665Y01335D02*
X016717D01*
X016683D01*
Y01355D01*
X01665Y013517D01*
X016917Y01335D02*
Y01355D01*
X016817Y01345D01*
X01695D01*
X011883Y024867D02*
X01185Y0249D01*
X011783D01*
X01175Y024867D01*
Y024733D01*
X011783Y0247D01*
X01185D01*
X011883Y024733D01*
X012083Y0249D02*
X012017Y024867D01*
X01195Y0248D01*
Y024733D01*
X011983Y0247D01*
X01205D01*
X012083Y024733D01*
Y024767D01*
X01205Y0248D01*
X01195D01*
X011866Y025567D02*
X011833Y0256D01*
X011766D01*
X011733Y025567D01*
Y025433D01*
X011766Y0254D01*
X011833D01*
X011866Y025433D01*
X012066Y0256D02*
X011932D01*
Y0255D01*
X011999Y025533D01*
X012032D01*
X012066Y0255D01*
Y025433D01*
X012032Y0254D01*
X011966D01*
X011932Y025433D01*
X021183Y018207D02*
X02115Y01824D01*
X021083D01*
X02105Y018207D01*
Y018074D01*
X021083Y018041D01*
X02115D01*
X021183Y018074D01*
X02135Y018041D02*
Y01824D01*
X02125Y018141D01*
X021383D01*
X011833Y023567D02*
X0118Y0236D01*
X011733D01*
X0117Y023567D01*
Y023433D01*
X011733Y0234D01*
X0118D01*
X011833Y023433D01*
X0119Y023567D02*
X011933Y0236D01*
X012D01*
X012033Y023567D01*
Y023533D01*
X012Y0235D01*
X011967D01*
X012D01*
X012033Y023467D01*
Y023433D01*
X012Y0234D01*
X011933D01*
X0119Y023433D01*
X024183Y024267D02*
X02415Y0243D01*
X024083D01*
X02405Y024267D01*
Y024133D01*
X024083Y0241D01*
X02415D01*
X024183Y024133D01*
X024383Y0241D02*
X02425D01*
X024383Y024233D01*
Y024267D01*
X02435Y0243D01*
X024283D01*
X02425Y024267D01*
X023633Y024317D02*
X0236Y02435D01*
X023533D01*
X0235Y024317D01*
Y024183D01*
X023533Y02415D01*
X0236D01*
X023633Y024183D01*
X0237Y02415D02*
X023767D01*
X023733D01*
Y02435D01*
X0237Y024317D01*
X01015Y02405D02*
Y02385D01*
X01025D01*
X010283Y023883D01*
Y023917D01*
X01025Y02395D01*
X01015D01*
X01025D01*
X010283Y023983D01*
Y024017D01*
X01025Y02405D01*
X01015D01*
X01035D02*
X010483D01*
X010417D01*
Y02385D01*
X01055D02*
X010617D01*
X010583D01*
Y02405D01*
X01055Y024017D01*
D13*
X024056Y016637D02*
G03*
X024681Y014989I001044J-000547D01*
G01*
X025519Y014999D02*
G03*
X026144Y016647I-000419J001101D01*
G01*
X014862Y013496D02*
X015042D01*
X014862Y012956D02*
X015042D01*
X02588Y01754D02*
X02639D01*
X02379D02*
X0243D01*
X024685Y01464D02*
X02556D01*
X0261Y01473D01*
X02641Y01504D01*
Y01679D01*
X02442Y0174D02*
X02579D01*
X0238Y01503D02*
Y01678D01*
Y01503D02*
X0241Y01473D01*
X024685Y01464D01*
X02443Y01681D02*
X02578D01*
X02602Y01597D02*
Y01624D01*
X02525D02*
X02602D01*
X02525D02*
Y01654D01*
X02498D02*
X02525D01*
X02498Y01625D02*
Y01654D01*
X02418Y01625D02*
X02498D01*
X02418Y01596D02*
Y01625D01*
Y01596D02*
X02497D01*
Y01571D02*
Y01596D01*
Y01571D02*
X02524D01*
Y01597D01*
X02601D01*
D14*
X02232Y01113D02*
X02278D01*
X02232Y01006D02*
Y01113D01*
Y01006D02*
X02278D01*
Y01113D01*
X02271Y01056D02*
Y01064D01*
X02239Y01056D02*
Y01064D01*
X021715Y01293D02*
X022175D01*
X021715Y01186D02*
Y01293D01*
Y01186D02*
X022175D01*
Y01293D01*
X022105Y01236D02*
Y01244D01*
X021785Y01236D02*
Y01244D01*
X02117Y01007D02*
Y01053D01*
Y01007D02*
X02224D01*
Y01053D01*
X02117D02*
X02224D01*
X02166Y01046D02*
X02174D01*
X02166Y01014D02*
X02174D01*
X02223Y01062D02*
Y01108D01*
X02116D02*
X02223D01*
X02116Y01062D02*
Y01108D01*
Y01062D02*
X02223D01*
X02166Y01069D02*
X02174D01*
X02166Y01101D02*
X02174D01*
X017584Y012032D02*
X017664D01*
X017584Y011712D02*
X017664D01*
X017084Y011642D02*
X018154D01*
X017084D02*
Y012102D01*
X018154D01*
Y011642D02*
Y012102D01*
Y012696D02*
Y013156D01*
X017084D02*
X018154D01*
X017084Y012696D02*
Y013156D01*
Y012696D02*
X018154D01*
X017584Y012766D02*
X017664D01*
X017584Y013086D02*
X017664D01*
X023015Y01511D02*
Y01519D01*
X022695Y01511D02*
Y01519D01*
X022625Y01462D02*
Y01569D01*
X023085D01*
Y01462D02*
Y01569D01*
X022625Y01462D02*
X023085D01*
X02311Y016375D02*
X02319D01*
X02311Y016695D02*
X02319D01*
X02262Y016765D02*
X02369D01*
Y016305D02*
Y016765D01*
X02262Y016305D02*
X02369D01*
X02262D02*
Y016765D01*
X02157Y01747D02*
Y01793D01*
Y01747D02*
X02264D01*
Y01793D01*
X02157D02*
X02264D01*
X02206Y01786D02*
X02214D01*
X02206Y01754D02*
X02214D01*
X025807Y020385D02*
X026267D01*
X025807Y019315D02*
Y020385D01*
Y019315D02*
X026267D01*
Y020385D01*
X026197Y019815D02*
Y019895D01*
X025877Y019815D02*
Y019895D01*
X026639Y024922D02*
Y025002D01*
X026319Y024922D02*
Y025002D01*
X026249Y024432D02*
Y025502D01*
X026709D01*
Y024432D02*
Y025502D01*
X026249Y024432D02*
X026709D01*
X02506Y02574D02*
X02514D01*
X02506Y02606D02*
X02514D01*
X02457Y02613D02*
X02564D01*
Y02567D02*
Y02613D01*
X02457Y02567D02*
X02564D01*
X02457D02*
Y02613D01*
X02161Y01161D02*
X02169D01*
X02161Y01129D02*
X02169D01*
X02111Y01122D02*
X02218D01*
X02111D02*
Y01168D01*
X02218D01*
Y01122D02*
Y01168D01*
X02702Y014764D02*
Y015224D01*
Y014764D02*
X02809D01*
Y015224D01*
X02702D02*
X02809D01*
X02751Y015154D02*
X02759D01*
X02751Y014834D02*
X02759D01*
X014465Y01574D02*
Y01586D01*
X014145Y01574D02*
Y01586D01*
X02517Y024435D02*
X02563D01*
Y025505D01*
X02517D02*
X02563D01*
X02517Y024435D02*
Y025505D01*
X02524Y024925D02*
Y025005D01*
X02556Y024925D02*
Y025005D01*
X01348Y02137D02*
Y02183D01*
X01241D02*
X01348D01*
X01241Y02137D02*
Y02183D01*
Y02137D02*
X01348D01*
X01291Y02144D02*
X01299D01*
X01291Y02176D02*
X01299D01*
X01242Y02642D02*
Y02688D01*
Y02642D02*
X01349D01*
Y02688D01*
X01242D02*
X01349D01*
X01291Y02681D02*
X01299D01*
X01291Y02649D02*
X01299D01*
X01291Y02594D02*
X01299D01*
X01291Y02626D02*
X01299D01*
X01242Y02633D02*
X01349D01*
Y02587D02*
Y02633D01*
X01242Y02587D02*
X01349D01*
X01242D02*
Y02633D01*
X021165Y01293D02*
X021625D01*
X021165Y01186D02*
Y01293D01*
Y01186D02*
X021625D01*
Y01293D01*
X021555Y01236D02*
Y01244D01*
X021235Y01236D02*
Y01244D01*
X02391Y02574D02*
X02399D01*
X02391Y02606D02*
X02399D01*
X02342Y02613D02*
X02449D01*
Y02567D02*
Y02613D01*
X02342Y02567D02*
X02449D01*
X02342D02*
Y02613D01*
X02391Y020805D02*
X02399D01*
X02391Y021125D02*
X02399D01*
X02342Y021195D02*
X02449D01*
Y020735D02*
Y021195D01*
X02342Y020735D02*
X02449D01*
X02342D02*
Y021195D01*
X02391Y02351D02*
X02399D01*
X02391Y02319D02*
X02399D01*
X02341Y02312D02*
X02448D01*
X02341D02*
Y02358D01*
X02448D01*
Y02312D02*
Y02358D01*
X020735Y015073D02*
Y015533D01*
X019665D02*
X020735D01*
X019665Y015073D02*
Y015533D01*
Y015073D02*
X020735D01*
X020165Y015143D02*
X020245D01*
X020165Y015463D02*
X020245D01*
X023915Y02276D02*
X023995D01*
X023915Y02244D02*
X023995D01*
X023415Y02237D02*
X024485D01*
X023415D02*
Y02283D01*
X024485D01*
Y02237D02*
Y02283D01*
X02621Y02606D02*
X02629D01*
X02621Y02574D02*
X02629D01*
X02571Y02567D02*
X02678D01*
X02571D02*
Y02613D01*
X02678D01*
Y02567D02*
Y02613D01*
X01348Y02397D02*
Y02443D01*
X01241D02*
X01348D01*
X01241Y02397D02*
Y02443D01*
Y02397D02*
X01348D01*
X01291Y02404D02*
X01299D01*
X01291Y02436D02*
X01299D01*
X01291Y02371D02*
X01299D01*
X01291Y02339D02*
X01299D01*
X01241Y02332D02*
X01348D01*
X01241D02*
Y02378D01*
X01348D01*
Y02332D02*
Y02378D01*
X02361Y01511D02*
Y01519D01*
X02329Y01511D02*
Y01519D01*
X02322Y01462D02*
Y01569D01*
X02368D01*
Y01462D02*
Y01569D01*
X02322Y01462D02*
X02368D01*
X015096Y012735D02*
X015556D01*
X015096Y011665D02*
Y012735D01*
Y011665D02*
X015556D01*
Y012735D01*
X015486Y012165D02*
Y012245D01*
X015166Y012165D02*
Y012245D01*
X02217Y019065D02*
Y019145D01*
X02185Y019065D02*
Y019145D01*
X02178Y018575D02*
Y019645D01*
X02224D01*
Y018575D02*
Y019645D01*
X02178Y018575D02*
X02224D01*
X01291Y02121D02*
X01299D01*
X01291Y02089D02*
X01299D01*
X01241Y02082D02*
X01348D01*
X01241D02*
Y02128D01*
X01348D01*
Y02082D02*
Y02128D01*
X012915Y02029D02*
X012995D01*
X012915Y02061D02*
X012995D01*
X012425Y02068D02*
X013495D01*
Y02022D02*
Y02068D01*
X012425Y02022D02*
X013495D01*
X012425D02*
Y02068D01*
X02349Y02491D02*
Y02499D01*
X02381Y02491D02*
Y02499D01*
X02388Y02441D02*
Y02548D01*
X02342Y02441D02*
X02388D01*
X02342D02*
Y02548D01*
X02388D01*
X02751Y015358D02*
X02759D01*
X02751Y015678D02*
X02759D01*
X02702Y015748D02*
X02809D01*
Y015288D02*
Y015748D01*
X02702Y015288D02*
X02809D01*
X02702D02*
Y015748D01*
X02311Y01616D02*
X02319D01*
X02311Y01584D02*
X02319D01*
X02261Y01577D02*
X02368D01*
X02261D02*
Y01623D01*
X02368D01*
Y01577D02*
Y01623D01*
X01532Y015222D02*
X01578D01*
Y016292D01*
X01532D02*
X01578D01*
X01532Y015222D02*
Y016292D01*
X01539Y015712D02*
Y015792D01*
X01571Y015712D02*
Y015792D01*
X015086Y015712D02*
Y015792D01*
X014766Y015712D02*
Y015792D01*
X014696Y015222D02*
Y016292D01*
X015156D01*
Y015222D02*
Y016292D01*
X014696Y015222D02*
X015156D01*
X017587Y01361D02*
X017667D01*
X017587Y01329D02*
X017667D01*
X017087Y01322D02*
X018157D01*
X017087D02*
Y01368D01*
X018157D01*
Y01322D02*
Y01368D01*
X01242Y02452D02*
Y02498D01*
Y02452D02*
X01349D01*
Y02498D01*
X01242D02*
X01349D01*
X01291Y02491D02*
X01299D01*
X01291Y02459D02*
X01299D01*
X01291Y02539D02*
X01299D01*
X01291Y02571D02*
X01299D01*
X01242Y02578D02*
X01349D01*
Y02532D02*
Y02578D01*
X01242Y02532D02*
X01349D01*
X01242D02*
Y02578D01*
X021535Y01747D02*
Y01793D01*
X020465D02*
X021535D01*
X020465Y01747D02*
Y01793D01*
Y01747D02*
X021535D01*
X020965Y01754D02*
X021045D01*
X020965Y01786D02*
X021045D01*
X024085Y024923D02*
Y025003D01*
X024405Y024923D02*
Y025003D01*
X024475Y024423D02*
Y025493D01*
X024015Y024423D02*
X024475D01*
X024015D02*
Y025493D01*
X024475D01*
X018154Y01217D02*
Y01263D01*
X017084D02*
X018154D01*
X017084Y01217D02*
Y01263D01*
Y01217D02*
X018154D01*
X017584Y01224D02*
X017664D01*
X017584Y01256D02*
X017664D01*
X027449Y018808D02*
X027909D01*
X027449Y017738D02*
Y018808D01*
Y017738D02*
X027909D01*
Y018808D01*
X027839Y018238D02*
Y018318D01*
X027519Y018238D02*
Y018318D01*
X013656Y01582D02*
Y01628D01*
X012586D02*
X013656D01*
X012586Y01582D02*
Y01628D01*
Y01582D02*
X013656D01*
X013086Y01589D02*
X013166D01*
X013086Y01621D02*
X013166D01*
X01348Y022774D02*
Y023234D01*
X01241D02*
X01348D01*
X01241Y022774D02*
Y023234D01*
Y022774D02*
X01348D01*
X01291Y022844D02*
X01299D01*
X01291Y023164D02*
X01299D01*
X01981Y01754D02*
X01989D01*
X01981Y01786D02*
X01989D01*
X01932Y01793D02*
X02039D01*
Y01747D02*
Y01793D01*
X01932Y01747D02*
X02039D01*
X01932D02*
Y01793D01*
X02262Y01968D02*
X02308D01*
X02262Y01861D02*
Y01968D01*
Y01861D02*
X02308D01*
Y01968D01*
X02301Y01911D02*
Y01919D01*
X02269Y01911D02*
Y01919D01*
X02572Y025493D02*
X02618D01*
X02572Y024423D02*
Y025493D01*
Y024423D02*
X02618D01*
Y025493D01*
X02611Y024923D02*
Y025003D01*
X02579Y024923D02*
Y025003D01*
X02342Y02177D02*
Y02223D01*
Y02177D02*
X02449D01*
Y02223D01*
X02342D02*
X02449D01*
X02391Y02216D02*
X02399D01*
X02391Y02184D02*
X02399D01*
X024989Y024922D02*
Y025002D01*
X024669Y024922D02*
Y025002D01*
X024599Y024432D02*
Y025502D01*
X025059D01*
Y024432D02*
Y025502D01*
X024599Y024432D02*
X025059D01*
X02534Y01981D02*
Y01989D01*
X02566Y01981D02*
Y01989D01*
X02573Y01931D02*
Y02038D01*
X02527Y01931D02*
X02573D01*
X02527D02*
Y02038D01*
X02573D01*
X02484Y01981D02*
Y01989D01*
X02516Y01981D02*
Y01989D01*
X02523Y01931D02*
Y02038D01*
X02477Y01931D02*
X02523D01*
X02477D02*
Y02038D01*
X02523D01*
X02014Y015797D02*
X02026D01*
X02014Y016117D02*
X02026D01*
D15*
X01959Y009953D02*
X02081D01*
X01959Y010347D02*
X02081D01*
X01959Y009953D02*
Y010347D01*
X02081Y009953D02*
Y010347D01*
X018159Y009973D02*
Y010327D01*
X019341Y009973D02*
Y010327D01*
X018159Y009973D02*
X019341D01*
X018159Y010327D02*
X019341D01*
X02028Y011416D02*
Y013384D01*
X01902Y011416D02*
Y013384D01*
Y011416D02*
X02028D01*
X01902Y013384D02*
X02028D01*
X014261Y01287D02*
Y01358D01*
Y01287D02*
X014806D01*
X014261Y01358D02*
X014806D01*
X015111D02*
X015639D01*
Y01287D02*
Y01358D01*
X015111Y01287D02*
X015639D01*
X012947Y010029D02*
Y011229D01*
X017147D01*
X017147Y010029D02*
X017147Y011229D01*
X012947Y010029D02*
X017147Y010029D01*
X01513Y010637D02*
X01523Y010737D01*
X01493Y010637D02*
X01513D01*
X01483Y010537D02*
X01493Y010637D01*
X023703Y0178D02*
X026629D01*
Y017987D01*
X023703Y0178D02*
Y01835D01*
X026629Y018913D02*
Y0191D01*
X023703Y01835D02*
X023779D01*
Y0178D02*
Y01835D01*
Y01855D02*
Y0191D01*
X023703Y01855D02*
X023779D01*
X023703Y0191D02*
X026629D01*
X023703Y01855D02*
Y0191D01*
X025022Y018253D02*
Y018647D01*
Y01845D02*
X025297Y018293D01*
X025022Y01845D02*
X025297Y018647D01*
Y018293D02*
Y018647D01*
X024982Y01845D02*
X025022D01*
X025297D02*
X025376D01*
X027577Y015877D02*
Y017058D01*
X027223Y015877D02*
Y017058D01*
Y015877D02*
X027577D01*
X027223Y017058D02*
X027577D01*
X029446Y028467D02*
X031569D01*
X029446Y028133D02*
X031569D01*
X029436Y027467D02*
X031569D01*
X029446Y027133D02*
X031569D01*
X029436Y0268D02*
Y0308D01*
X028436D02*
X029436D01*
X028436Y0268D02*
X029436D01*
X028436D02*
Y0308D01*
X028452Y026983D02*
X028619Y026817D01*
X031569Y027133D02*
X031736Y0273D01*
X031569Y028467D02*
X031736Y0283D01*
X031569Y028133D02*
X031736Y0283D01*
X031569Y027467D02*
X031736Y0273D01*
X031569Y029467D02*
X031736Y0293D01*
X031569Y030133D02*
X031736Y0303D01*
X031569Y030467D02*
X031736Y0303D01*
X031569Y029133D02*
X031736Y0293D01*
X029446Y029133D02*
X031569D01*
X029436Y029467D02*
X031569D01*
X029446Y030133D02*
X031569D01*
X029446Y030467D02*
X031569D01*
X02635Y02985D02*
Y03085D01*
X02735Y02985D02*
Y03085D01*
X02335Y02985D02*
X02735D01*
X02335Y03085D02*
X02735D01*
X02335Y02985D02*
Y03085D01*
X0101Y0251D02*
X0112D01*
X0101D02*
Y0294D01*
X0112Y0251D02*
Y0294D01*
X0101D02*
X0112D01*
X01265Y01373D02*
X01595Y01373D01*
X01595Y01511D01*
X01265D02*
X01595D01*
X01265Y01373D02*
Y01511D01*
X024616Y021409D02*
X026742D01*
X024616Y02322D02*
X026742D01*
X024616Y021409D02*
Y02322D01*
X026742Y021409D02*
Y02322D01*
X01709Y014131D02*
Y016769D01*
X01831Y014131D02*
Y016769D01*
X01709D02*
X01831D01*
X01709Y014131D02*
X01831D01*
X02745Y02675D02*
X02845D01*
Y02175D02*
Y02675D01*
X02745Y02175D02*
Y02675D01*
Y02175D02*
X02845D01*
X02745Y02575D02*
X02845D01*
X021409Y016126D02*
Y016441D01*
X021803D01*
X021409Y015259D02*
Y015574D01*
Y015259D02*
X021803D01*
X012458Y011801D02*
Y01192D01*
X011769Y014164D02*
X011848D01*
X010214Y011053D02*
Y014203D01*
X010824D01*
X010214Y011053D02*
X010824D01*
X010726D02*
Y014203D01*
X01045Y011053D02*
Y014203D01*
X011769Y011093D02*
X011848D01*
X012458Y013337D02*
Y013455D01*
X0102Y014845D02*
X0112D01*
X0102Y020845D02*
X0112D01*
Y014845D02*
Y020845D01*
X0102Y014845D02*
Y020845D01*
Y019845D02*
X0112D01*
X021168Y014245D02*
X021247D01*
X020853D02*
X020893D01*
X021168Y014088D02*
Y014442D01*
X020893Y014245D02*
X021168Y014442D01*
X020893Y014245D02*
X021168Y014088D01*
X020893Y014048D02*
Y014442D01*
X019574Y014345D02*
Y014895D01*
X0225D01*
X019574Y014345D02*
X01965D01*
Y014895D01*
Y013595D02*
Y014145D01*
X019574D02*
X01965D01*
X0225Y014708D02*
Y014895D01*
X019574Y013595D02*
Y014145D01*
X0225Y013595D02*
Y013783D01*
X019574Y013595D02*
X0225D01*
D16*
X02715Y01045D02*
Y011462D01*
X0232Y01045D02*
X02715D01*
X0232D02*
Y011462D01*
X023199Y013543D02*
Y014555D01*
X02715D01*
Y013543D02*
Y014555D01*
X016985Y012362D02*
Y012638D01*
X015715Y012766D02*
X016148D01*
X015715Y012234D02*
X016148D01*
X015715D02*
Y012766D01*
X016503D02*
X016857D01*
X016503Y012234D02*
X016857D01*
X016936Y012313D01*
X016926Y012303D02*
X016985Y012362D01*
X016916Y012707D02*
X016985Y012638D01*
X016936Y012313D02*
Y012687D01*
X016857Y012766D02*
X016936Y012687D01*
X021367Y018337D02*
Y018456D01*
X020343Y018337D02*
X021367D01*
X01428D02*
X015304D01*
X01428D02*
Y018456D01*
X014267Y028377D02*
X021381Y028377D01*
X021381Y025808D02*
Y028377D01*
X016855Y012111D02*
X016934Y012032D01*
Y011658D02*
Y012032D01*
X016914Y012052D02*
X016983Y011983D01*
X016924Y011648D02*
X016983Y011707D01*
X016855Y01158D02*
X016934Y011658D01*
X016501Y01158D02*
X016855D01*
X016501Y012111D02*
X016855D01*
X015713Y01158D02*
Y012111D01*
Y01158D02*
X016146D01*
X015713Y012111D02*
X016146D01*
X016983Y011707D02*
Y011983D01*
X012516Y015313D02*
X012594Y015234D01*
X012516Y015313D02*
Y015687D01*
X012466Y015362D02*
X012535Y015293D01*
X012466Y015638D02*
X012525Y015697D01*
X012516Y015687D02*
X012594Y015766D01*
X012949D01*
X012594Y015234D02*
X012949D01*
X013736D02*
Y015766D01*
X013303D02*
X013736D01*
X013303Y015234D02*
X013736D01*
X012466Y015362D02*
Y015638D01*
X012291Y022312D02*
Y022588D01*
X013127Y022184D02*
X01356D01*
X013127Y022716D02*
X01356D01*
Y022184D02*
Y022716D01*
X012419Y022184D02*
X012773D01*
X012419Y022716D02*
X012773D01*
X01234Y022637D02*
X012419Y022716D01*
X012291Y022588D02*
X01235Y022647D01*
X012291Y022312D02*
X012359Y022243D01*
X01234Y022263D02*
Y022637D01*
Y022263D02*
X012419Y022184D01*
D17*
X01473Y010637D02*
Y010837D01*
X01453Y010637D02*
X01473D01*
Y010837D02*
Y010937D01*
X01533D01*
Y010337D02*
Y010937D01*
X01473Y010337D02*
X01533D01*
X01473D02*
Y010637D01*
X01533D02*
X01553D01*
X0141Y0146D02*
X0145Y0142D01*
X0148D01*
X0138Y0144D02*
Y0145D01*
X0148D01*
Y0144D02*
Y0145D01*
Y0143D02*
Y0144D01*
X0138Y0143D02*
X0148D01*
X0138D02*
Y0144D01*
X014267Y025808D02*
Y028377D01*
D18*
X011395Y012628D02*
X011474D01*
D19*
X0108Y022522D02*
D03*
M02*
