G04*
G04 #@! TF.GenerationSoftware,Altium Limited,Altium Designer,18.1.6 (161)*
G04*
G04 Layer_Color=2752767*
%FSTAX24Y24*%
%MOIN*%
G70*
G01*
G75*
%ADD90C,0.0020*%
%ADD91C,0.0027*%
D90*
X027895Y019348D02*
Y019508D01*
X028055D01*
Y019348D01*
X027895D01*
Y020348D02*
Y020508D01*
X028055D01*
Y020348D01*
X027895D01*
Y021348D02*
Y021508D01*
X028055D01*
Y021348D01*
X027895D01*
Y022348D02*
Y022508D01*
X028055D01*
Y022348D01*
X027895D01*
X011297Y011249D02*
X011217Y011409D01*
X011377D01*
X011297Y011249D01*
Y013847D02*
X011217Y014007D01*
X011377D01*
X011297Y013847D01*
X0107Y02867D02*
X01074Y02871D01*
X01078D01*
X01074Y02875D01*
X01078Y02879D01*
X01074D01*
X0107Y02883D01*
X01066Y02879D01*
X01062D01*
X01066Y02875D01*
X01062Y02871D01*
X01066D01*
X0107Y02867D01*
Y02767D02*
X01074Y02771D01*
X01078D01*
X01074Y02775D01*
X01078Y02779D01*
X01074D01*
X0107Y02783D01*
X01066Y02779D01*
X01062D01*
X01066Y02775D01*
X01062Y02771D01*
X01066D01*
X0107Y02767D01*
Y02667D02*
X01074Y02671D01*
X01078D01*
X01074Y02675D01*
X01078Y02679D01*
X01074D01*
X0107Y02683D01*
X01066Y02679D01*
X01062D01*
X01066Y02675D01*
X01062Y02671D01*
X01066D01*
X0107Y02667D01*
Y02567D02*
X01074Y02571D01*
X01078D01*
X01074Y02575D01*
X01078Y02579D01*
X01074D01*
X0107Y02583D01*
X01066Y02579D01*
X01062D01*
X01066Y02575D01*
X01062Y02571D01*
X01066D01*
X0107Y02567D01*
X01062Y014905D02*
Y015065D01*
X01078D01*
Y014905D01*
X01062D01*
Y015905D02*
Y016065D01*
X01078D01*
Y015905D01*
X01062D01*
Y016905D02*
Y017065D01*
X01078D01*
Y016905D01*
X01062D01*
Y017905D02*
Y018065D01*
X01078D01*
Y017905D01*
X01062D01*
Y018905D02*
Y019065D01*
X01078D01*
Y018905D01*
X01062D01*
Y019905D02*
Y020065D01*
X01078D01*
Y019905D01*
X01062D01*
X02647Y03002D02*
Y03018D01*
X02663D01*
Y03002D01*
X02647D01*
X02547D02*
Y03018D01*
X02563D01*
Y03002D01*
X02547D01*
X02447D02*
Y03018D01*
X02463D01*
Y03002D01*
X02447D01*
X02347D02*
Y03018D01*
X02363D01*
Y03002D01*
X02347D01*
X02402Y01702D02*
X02406Y0171D01*
X02402Y01718D01*
X0241Y01714D01*
X02418Y01718D01*
X02414Y0171D01*
X02418Y01702D01*
X0241Y01706D01*
X02402Y01702D01*
X02502Y01502D02*
X02506Y0151D01*
X02502Y01518D01*
X0251Y01514D01*
X02518Y01518D01*
X02514Y0151D01*
X02518Y01502D01*
X0251Y01506D01*
X02502Y01502D01*
X02602Y01702D02*
X02606Y0171D01*
X02602Y01718D01*
X0261Y01714D01*
X02618Y01718D01*
X02614Y0171D01*
X02618Y01702D01*
X0261Y01706D01*
X02602Y01702D01*
X02802Y02762D02*
Y02778D01*
X02818D01*
Y02762D01*
X02802D01*
Y02662D02*
Y02678D01*
X02818D01*
Y02662D01*
X02802D01*
Y02562D02*
Y02578D01*
X02818D01*
Y02562D01*
X02802D01*
Y02462D02*
Y02478D01*
X02818D01*
Y02462D01*
X02802D01*
Y02362D02*
Y02378D01*
X02818D01*
Y02362D01*
X02802D01*
X02596Y00981D02*
Y00977D01*
X02604D01*
Y00981D01*
X02608D01*
Y00989D01*
X02604D01*
Y00993D01*
X02596D01*
Y00989D01*
X02592D01*
Y00981D01*
X02596D01*
X02496D02*
Y00977D01*
X02504D01*
Y00981D01*
X02508D01*
Y00989D01*
X02504D01*
Y00993D01*
X02496D01*
Y00989D01*
X02492D01*
Y00981D01*
X02496D01*
X02092Y011781D02*
X02096D01*
X021Y011821D01*
X02104Y011781D01*
X02108D01*
Y011821D01*
X02104Y011861D01*
X02108Y011901D01*
Y011941D01*
X02104D01*
X021Y011901D01*
X02096Y011941D01*
X02092D01*
Y011901D01*
X02096Y011861D01*
X02092Y011821D01*
Y011781D01*
X01372Y02555D02*
X0138Y02563D01*
X01388Y02555D01*
X0138Y02547D01*
X01372Y02555D01*
X013535Y02467D02*
X013575D01*
X013615Y02471D01*
X013655Y02467D01*
X013695D01*
Y02471D01*
X013655Y02475D01*
X013695Y02479D01*
Y02483D01*
X013655D01*
X013615Y02479D01*
X013575Y02483D01*
X013535D01*
Y02479D01*
X013575Y02475D01*
X013535Y02471D01*
Y02467D01*
X01362Y023004D02*
X0137Y023084D01*
X01378Y023004D01*
X0137Y022924D01*
X01362Y023004D01*
X01507Y01825D02*
X01515Y01833D01*
X01523Y01825D01*
X01515Y01817D01*
X01507Y01825D01*
X021574Y01882D02*
X021614D01*
X021654Y01886D01*
X021694Y01882D01*
X021734D01*
Y01886D01*
X021694Y0189D01*
X021734Y01894D01*
Y01898D01*
X021694D01*
X021654Y01894D01*
X021614Y01898D01*
X021574D01*
Y01894D01*
X021614Y0189D01*
X021574Y01886D01*
Y01882D01*
X022975Y01955D02*
X023055Y01963D01*
X023135Y01955D01*
X023055Y01947D01*
X022975Y01955D01*
X02162Y02482D02*
X02166D01*
X0217Y02486D01*
X02174Y02482D01*
X02178D01*
Y02486D01*
X02174Y0249D01*
X02178Y02494D01*
Y02498D01*
X02174D01*
X0217Y02494D01*
X02166Y02498D01*
X02162D01*
Y02494D01*
X02166Y0249D01*
X02162Y02486D01*
Y02482D01*
X022975Y0184D02*
X023055Y01848D01*
X023135Y0184D01*
X023055Y01832D01*
X022975Y0184D01*
X02097Y01802D02*
X02101D01*
X02105Y01806D01*
X02109Y01802D01*
X02113D01*
Y01806D01*
X02109Y0181D01*
X02113Y01814D01*
Y01818D01*
X02109D01*
X02105Y01814D01*
X02101Y01818D01*
X02097D01*
Y01814D01*
X02101Y0181D01*
X02097Y01806D01*
Y01802D01*
X02452Y019798D02*
X02456D01*
X0246Y019838D01*
X02464Y019798D01*
X02468D01*
Y019838D01*
X02464Y019878D01*
X02468Y019918D01*
Y019958D01*
X02464D01*
X0246Y019918D01*
X02456Y019958D01*
X02452D01*
Y019918D01*
X02456Y019878D01*
X02452Y019838D01*
Y019798D01*
X01482Y016468D02*
X0149Y016548D01*
X01498Y016468D01*
X0149Y016388D01*
X01482Y016468D01*
X01587Y016352D02*
X01595Y016432D01*
X01603Y016352D01*
X01595Y016272D01*
X01587Y016352D01*
X02252Y02162D02*
X02256D01*
X0226Y02166D01*
X02264Y02162D01*
X02268D01*
Y02166D01*
X02264Y0217D01*
X02268Y02174D01*
Y02178D01*
X02264D01*
X0226Y02174D01*
X02256Y02178D01*
X02252D01*
Y02174D01*
X02256Y0217D01*
X02252Y02166D01*
Y02162D01*
X02167Y02212D02*
X02171D01*
X02175Y02216D01*
X02179Y02212D01*
X02183D01*
Y02216D01*
X02179Y0222D01*
X02183Y02224D01*
Y02228D01*
X02179D01*
X02175Y02224D01*
X02171Y02228D01*
X02167D01*
Y02224D01*
X02171Y0222D01*
X02167Y02216D01*
Y02212D01*
X02345Y022848D02*
X02349D01*
X02353Y022888D01*
X02357Y022848D01*
X02361D01*
Y022888D01*
X02357Y022928D01*
X02361Y022968D01*
Y023008D01*
X02357D01*
X02353Y022968D01*
X02349Y023008D01*
X02345D01*
Y022968D01*
X02349Y022928D01*
X02345Y022888D01*
Y022848D01*
Y02422D02*
X02349D01*
X02353Y02426D01*
X02357Y02422D01*
X02361D01*
Y02426D01*
X02357Y0243D01*
X02361Y02434D01*
Y02438D01*
X02357D01*
X02353Y02434D01*
X02349Y02438D01*
X02345D01*
Y02434D01*
X02349Y0243D01*
X02345Y02426D01*
Y02422D01*
X02452Y024567D02*
X02456D01*
X0246Y024607D01*
X02464Y024567D01*
X02468D01*
Y024607D01*
X02464Y024647D01*
X02468Y024687D01*
Y024727D01*
X02464D01*
X0246Y024687D01*
X02456Y024727D01*
X02452D01*
Y024687D01*
X02456Y024647D01*
X02452Y024607D01*
Y024567D01*
X022975Y0238D02*
X023055Y02388D01*
X023135Y0238D01*
X023055Y02372D01*
X022975Y0238D01*
X022425Y01957D02*
X022465D01*
X022505Y01961D01*
X022545Y01957D01*
X022585D01*
Y01961D01*
X022545Y01965D01*
X022585Y01969D01*
Y01973D01*
X022545D01*
X022505Y01969D01*
X022465Y01973D01*
X022425D01*
Y01969D01*
X022465Y01965D01*
X022425Y01961D01*
Y01957D01*
X011138Y024227D02*
X011178D01*
X011218Y024267D01*
X011258Y024227D01*
X011298D01*
Y024267D01*
X011258Y024307D01*
X011298Y024347D01*
Y024387D01*
X011258D01*
X011218Y024347D01*
X011178Y024387D01*
X011138D01*
Y024347D01*
X011178Y024307D01*
X011138Y024267D01*
Y024227D01*
X01137Y02382D02*
X01141D01*
X01145Y02386D01*
X01149Y02382D01*
X01153D01*
Y02386D01*
X01149Y0239D01*
X01153Y02394D01*
Y02398D01*
X01149D01*
X01145Y02394D01*
X01141Y02398D01*
X01137D01*
Y02394D01*
X01141Y0239D01*
X01137Y02386D01*
Y02382D01*
X01228D02*
X01232D01*
X01236Y02386D01*
X0124Y02382D01*
X01244D01*
Y02386D01*
X0124Y0239D01*
X01244Y02394D01*
Y02398D01*
X0124D01*
X01236Y02394D01*
X01232Y02398D01*
X01228D01*
Y02394D01*
X01232Y0239D01*
X01228Y02386D01*
Y02382D01*
X017704Y021887D02*
X017784Y021967D01*
X017864Y021887D01*
X017784Y021807D01*
X017704Y021887D01*
X016644D02*
X016724Y021967D01*
X016804Y021887D01*
X016724Y021807D01*
X016644Y021887D01*
X017169D02*
X017249Y021967D01*
X017329Y021887D01*
X017249Y021807D01*
X017169Y021887D01*
X017704Y022428D02*
X017784Y022508D01*
X017864Y022428D01*
X017784Y022348D01*
X017704Y022428D01*
X016644Y02242D02*
X016724Y0225D01*
X016804Y02242D01*
X016724Y02234D01*
X016644Y02242D01*
X017704Y022947D02*
X017784Y023027D01*
X017864Y022947D01*
X017784Y022867D01*
X017704Y022947D01*
X017169Y022967D02*
X017249Y023047D01*
X017329Y022967D01*
X017249Y022887D01*
X017169Y022967D01*
Y02242D02*
X017249Y0225D01*
X017329Y02242D01*
X017249Y02234D01*
X017169Y02242D01*
X016644Y022957D02*
X016724Y023037D01*
X016804Y022957D01*
X016724Y022877D01*
X016644Y022957D01*
X027865Y02992D02*
Y03008D01*
X028025D01*
Y02992D01*
X027865D01*
X027905Y02996D02*
Y03004D01*
X027985D01*
Y02996D01*
X027905D01*
X02388Y0289D02*
X02396Y02898D01*
X02404Y0289D01*
X02396Y02882D01*
X02388Y0289D01*
X024738Y02885D02*
X024818Y02893D01*
X024898Y02885D01*
X024818Y02877D01*
X024738Y02885D01*
X02487Y02587D02*
X02491D01*
X02495Y02591D01*
X02499Y02587D01*
X02503D01*
Y02591D01*
X02499Y02595D01*
X02503Y02599D01*
Y02603D01*
X02499D01*
X02495Y02599D01*
X02491Y02603D01*
X02487D01*
Y02599D01*
X02491Y02595D01*
X02487Y02591D01*
Y02587D01*
X02587Y02552D02*
X02591D01*
X02595Y02556D01*
X02599Y02552D01*
X02603D01*
Y02556D01*
X02599Y0256D01*
X02603Y02564D01*
Y02568D01*
X02599D01*
X02595Y02564D01*
X02591Y02568D01*
X02587D01*
Y02564D01*
X02591Y0256D01*
X02587Y02556D01*
Y02552D01*
X02702Y01905D02*
X0271Y01913D01*
X02718Y01905D01*
X0271Y01897D01*
X02702Y01905D01*
X02742Y02205D02*
X0275Y02213D01*
X02758Y02205D01*
X0275Y02197D01*
X02742Y02205D01*
X02182Y02347D02*
X02186D01*
X0219Y02351D01*
X02194Y02347D01*
X02198D01*
Y02351D01*
X02194Y02355D01*
X02198Y02359D01*
Y02363D01*
X02194D01*
X0219Y02359D01*
X02186Y02363D01*
X02182D01*
Y02359D01*
X02186Y02355D01*
X02182Y02351D01*
Y02347D01*
X02257D02*
X02261D01*
X02265Y02351D01*
X02269Y02347D01*
X02273D01*
Y02351D01*
X02269Y02355D01*
X02273Y02359D01*
Y02363D01*
X02269D01*
X02265Y02359D01*
X02261Y02363D01*
X02257D01*
Y02359D01*
X02261Y02355D01*
X02257Y02351D01*
Y02347D01*
X02157Y02562D02*
X02161D01*
X02165Y02566D01*
X02169Y02562D01*
X02173D01*
Y02566D01*
X02169Y0257D01*
X02173Y02574D01*
Y02578D01*
X02169D01*
X02165Y02574D01*
X02161Y02578D01*
X02157D01*
Y02574D01*
X02161Y0257D01*
X02157Y02566D01*
Y02562D01*
X02252Y022348D02*
X02256D01*
X0226Y022388D01*
X02264Y022348D01*
X02268D01*
Y022388D01*
X02264Y022428D01*
X02268Y022468D01*
Y022508D01*
X02264D01*
X0226Y022468D01*
X02256Y022508D01*
X02252D01*
Y022468D01*
X02256Y022428D01*
X02252Y022388D01*
Y022348D01*
X021798Y023848D02*
X021838D01*
X021878Y023888D01*
X021918Y023848D01*
X021958D01*
Y023888D01*
X021918Y023928D01*
X021958Y023968D01*
Y024008D01*
X021918D01*
X021878Y023968D01*
X021838Y024008D01*
X021798D01*
Y023968D01*
X021838Y023928D01*
X021798Y023888D01*
Y023848D01*
X02232Y02387D02*
X02236D01*
X0224Y02391D01*
X02244Y02387D01*
X02248D01*
Y02391D01*
X02244Y02395D01*
X02248Y02399D01*
Y02403D01*
X02244D01*
X0224Y02399D01*
X02236Y02403D01*
X02232D01*
Y02399D01*
X02236Y02395D01*
X02232Y02391D01*
Y02387D01*
X02037Y0173D02*
X02045Y01738D01*
X02053Y0173D01*
X02045Y01722D01*
X02037Y0173D01*
X02077Y01695D02*
X02085Y01703D01*
X02093Y01695D01*
X02085Y01687D01*
X02077Y01695D01*
X01997D02*
X02005Y01703D01*
X02013Y01695D01*
X02005Y01687D01*
X01997Y01695D01*
X02447Y02042D02*
X02451D01*
X02455Y02046D01*
X02459Y02042D01*
X02463D01*
Y02046D01*
X02459Y0205D01*
X02463Y02054D01*
Y02058D01*
X02459D01*
X02455Y02054D01*
X02451Y02058D01*
X02447D01*
Y02054D01*
X02451Y0205D01*
X02447Y02046D01*
Y02042D01*
X027865Y01455D02*
X027945Y01463D01*
X028025Y01455D01*
X027945Y01447D01*
X027865Y01455D01*
X01257Y01767D02*
X01261D01*
X01265Y01771D01*
X01269Y01767D01*
X01273D01*
Y01771D01*
X01269Y01775D01*
X01273Y01779D01*
Y01783D01*
X01269D01*
X01265Y01779D01*
X01261Y01783D01*
X01257D01*
Y01779D01*
X01261Y01775D01*
X01257Y01771D01*
Y01767D01*
X01232Y017903D02*
X01236D01*
X0124Y017943D01*
X01244Y017903D01*
X01248D01*
Y017943D01*
X01244Y017983D01*
X01248Y018023D01*
Y018063D01*
X01244D01*
X0124Y018023D01*
X01236Y018063D01*
X01232D01*
Y018023D01*
X01236Y017983D01*
X01232Y017943D01*
Y017903D01*
Y01887D02*
X01236D01*
X0124Y01891D01*
X01244Y01887D01*
X01248D01*
Y01891D01*
X01244Y01895D01*
X01248Y01899D01*
Y01903D01*
X01244D01*
X0124Y01899D01*
X01236Y01903D01*
X01232D01*
Y01899D01*
X01236Y01895D01*
X01232Y01891D01*
Y01887D01*
X0123Y019415D02*
X01234D01*
X01238Y019455D01*
X01242Y019415D01*
X01246D01*
Y019455D01*
X01242Y019495D01*
X01246Y019535D01*
Y019575D01*
X01242D01*
X01238Y019535D01*
X01234Y019575D01*
X0123D01*
Y019535D01*
X01234Y019495D01*
X0123Y019455D01*
Y019415D01*
X012315Y027865D02*
X012395Y027945D01*
X012475Y027865D01*
X012395Y027785D01*
X012315Y027865D01*
X01172Y024965D02*
X0118Y025045D01*
X01188Y024965D01*
X0118Y024885D01*
X01172Y024965D01*
X02067Y009618D02*
X02075Y009699D01*
X02083Y009618D01*
X02075Y009538D01*
X02067Y009618D01*
X0123Y01593D02*
X01238Y01601D01*
X01246Y01593D01*
X01238Y01585D01*
X0123Y01593D01*
X019825Y0154D02*
X019905Y01548D01*
X019985Y0154D01*
X019905Y01532D01*
X019825Y0154D01*
X027895Y00947D02*
Y00963D01*
X028055D01*
Y00947D01*
X027895D01*
X027935Y00951D02*
Y00959D01*
X028015D01*
Y00951D01*
X027935D01*
X01072Y00947D02*
Y00963D01*
X01088D01*
Y00947D01*
X01072D01*
X01076Y00951D02*
Y00959D01*
X01084D01*
Y00951D01*
X01076D01*
X01067Y03002D02*
Y03018D01*
X01083D01*
Y03002D01*
X01067D01*
X01071Y03006D02*
Y03014D01*
X01079D01*
Y03006D01*
X01071D01*
X02662Y02085D02*
X0267Y02093D01*
X02678Y02085D01*
X0267Y02077D01*
X02662Y02085D01*
X021865Y011697D02*
X021905D01*
X021945Y011737D01*
X021985Y011697D01*
X022025D01*
Y011737D01*
X021985Y011777D01*
X022025Y011817D01*
Y011857D01*
X021985D01*
X021945Y011817D01*
X021905Y011857D01*
X021865D01*
Y011817D01*
X021905Y011777D01*
X021865Y011737D01*
Y011697D01*
X021315Y013095D02*
X021395Y013175D01*
X021475Y013095D01*
X021395Y013015D01*
X021315Y013095D01*
X019302Y009618D02*
X019382Y009699D01*
X019461Y009618D01*
X019382Y009538D01*
X019302Y009618D01*
X017989D02*
X018068Y009699D01*
X018148Y009618D01*
X018068Y009538D01*
X017989Y009618D01*
X021915Y009905D02*
X021995Y009985D01*
X022075Y009905D01*
X021995Y009825D01*
X021915Y009905D01*
X020545Y011045D02*
X020585D01*
X020625Y011085D01*
X020665Y011045D01*
X020705D01*
Y011085D01*
X020665Y011125D01*
X020705Y011165D01*
Y011205D01*
X020665D01*
X020625Y011165D01*
X020585Y011205D01*
X020545D01*
Y011165D01*
X020585Y011125D01*
X020545Y011085D01*
Y011045D01*
X019921Y01107D02*
X019961D01*
X020001Y01111D01*
X020041Y01107D01*
X020081D01*
Y01111D01*
X020041Y01115D01*
X020081Y01119D01*
Y01123D01*
X020041D01*
X020001Y01119D01*
X019961Y01123D01*
X019921D01*
Y01119D01*
X019961Y01115D01*
X019921Y01111D01*
Y01107D01*
X02237Y0124D02*
X02245Y01248D01*
X02253Y0124D01*
X02245Y01232D01*
X02237Y0124D01*
X01927D02*
X01935Y01248D01*
X01943Y0124D01*
X01935Y01232D01*
X01927Y0124D01*
X02367Y0165D02*
X02375Y01658D01*
X02383Y0165D01*
X02375Y01642D01*
X02367Y0165D01*
X02642Y01645D02*
X0265Y01653D01*
X02658Y01645D01*
X0265Y01637D01*
X02642Y01645D01*
X02827Y01745D02*
X02835Y01753D01*
X02843Y01745D01*
X02835Y01737D01*
X02827Y01745D01*
X02762D02*
X0277Y01753D01*
X02778Y01745D01*
X0277Y01737D01*
X02762Y01745D01*
X012579Y02005D02*
X012659Y02013D01*
X012739Y02005D01*
X012659Y01997D01*
X012579Y02005D01*
X01228Y02327D02*
X01232D01*
X01236Y02331D01*
X0124Y02327D01*
X01244D01*
Y02331D01*
X0124Y02335D01*
X01244Y02339D01*
Y02343D01*
X0124D01*
X01236Y02339D01*
X01232Y02343D01*
X01228D01*
Y02339D01*
X01232Y02335D01*
X01228Y02331D01*
Y02327D01*
X01202Y024218D02*
X0121Y024298D01*
X01218Y024218D01*
X0121Y024138D01*
X01202Y024218D01*
X011126Y021132D02*
X011206Y021212D01*
X011286Y021132D01*
X011206Y021052D01*
X011126Y021132D01*
X013165Y02192D02*
X013205D01*
X013245Y02196D01*
X013285Y02192D01*
X013325D01*
Y02196D01*
X013285Y022D01*
X013325Y02204D01*
Y02208D01*
X013285D01*
X013245Y02204D01*
X013205Y02208D01*
X013165D01*
Y02204D01*
X013205Y022D01*
X013165Y02196D01*
Y02192D01*
X016794Y012926D02*
X016874Y013006D01*
X016954Y012926D01*
X016874Y012846D01*
X016794Y012926D01*
X014807Y011909D02*
X014887Y011989D01*
X014967Y011909D01*
X014887Y011829D01*
X014807Y011909D01*
D91*
X01538Y0144D02*
G03*
X01538Y0144I-00008J0D01*
G01*
X01338D02*
G03*
X01338Y0144I-00008J0D01*
G01*
X013824Y01065D02*
G03*
X013824Y01065I-00008J0D01*
G01*
X01658D02*
G03*
X01658Y01065I-00008J0D01*
G01*
M02*
