G04*
G04 #@! TF.GenerationSoftware,Altium Limited,Altium Designer,18.1.6 (161)*
G04*
G04 Layer_Color=32896*
%FSTAX24Y24*%
%MOIN*%
G70*
G01*
G75*
%ADD13C,0.0100*%
%ADD14C,0.0079*%
%ADD84C,0.0250*%
D13*
X0118Y0278D02*
Y0276D01*
X0117D01*
X011667Y027633D01*
Y027767D01*
X0117Y0278D01*
X0118D01*
X0116Y0276D02*
Y027733D01*
X011533Y0278D01*
X011467Y027733D01*
Y0276D01*
Y0277D01*
X0116D01*
X0114Y0278D02*
X011267D01*
X011333D01*
Y0276D01*
X0112D02*
Y027733D01*
X011134Y0278D01*
X011067Y027733D01*
Y0276D01*
Y0277D01*
X0112D01*
X011715Y025817D02*
X011748Y02585D01*
X011815D01*
X011848Y025817D01*
Y025683D01*
X011815Y02565D01*
X011748D01*
X011715Y025683D01*
Y02575D01*
X011781D01*
X011648Y02565D02*
Y02585D01*
X011515Y02565D01*
Y02585D01*
X011448D02*
Y02565D01*
X011348D01*
X011315Y025683D01*
Y025817D01*
X011348Y02585D01*
X011448D01*
X026767Y029517D02*
X0268Y02955D01*
X026867D01*
X0269Y029517D01*
Y029383D01*
X026867Y02935D01*
X0268D01*
X026767Y029383D01*
Y02945D01*
X026833D01*
X0267Y02935D02*
Y02955D01*
X026567Y02935D01*
Y02955D01*
X0265D02*
Y02935D01*
X0264D01*
X026367Y029383D01*
Y029517D01*
X0264Y02955D01*
X0265D01*
X027317Y022517D02*
X02735Y02255D01*
X027417D01*
X02745Y022517D01*
Y022383D01*
X027417Y02235D01*
X02735D01*
X027317Y022383D01*
Y02245D01*
X027383D01*
X02725Y02235D02*
Y02255D01*
X027117Y02235D01*
Y02255D01*
X02705D02*
Y02235D01*
X02695D01*
X026917Y022383D01*
Y022517D01*
X02695Y02255D01*
X02705D01*
X0275Y0237D02*
Y0235D01*
X0274D01*
X027367Y023533D01*
Y023567D01*
X0274Y0236D01*
X0275D01*
X0274D01*
X027367Y023633D01*
Y023667D01*
X0274Y0237D01*
X0275D01*
X0272D02*
X027267D01*
X0273Y023667D01*
Y023533D01*
X027267Y0235D01*
X0272D01*
X027167Y023533D01*
Y023667D01*
X0272Y0237D01*
X027D02*
X027067D01*
X0271Y023667D01*
Y023533D01*
X027067Y0235D01*
X027D01*
X026967Y023533D01*
Y023667D01*
X027Y0237D01*
X0269D02*
X026767D01*
X026834D01*
Y0235D01*
X027613Y011D02*
Y0108D01*
Y0109D01*
X02748D01*
Y011D01*
Y0108D01*
X027413D02*
X027346D01*
X02738D01*
Y011D01*
X027413Y010967D01*
X028217Y0286D02*
X028283D01*
X02825D01*
Y028433D01*
X028283Y0284D01*
X028317D01*
X02835Y028433D01*
X02815Y0284D02*
Y0286D01*
X02805D01*
X028017Y028567D01*
Y0285D01*
X02805Y028467D01*
X02815D01*
X027817Y0284D02*
X02795D01*
X027817Y028533D01*
Y028567D01*
X02785Y0286D01*
X027917D01*
X02795Y028567D01*
D14*
X011517Y015017D02*
X01155Y01505D01*
X011617D01*
X01165Y015017D01*
Y014883D01*
X011617Y01485D01*
X01155D01*
X011517Y014883D01*
Y01495D01*
X011583D01*
X01145Y01485D02*
Y01505D01*
X011317Y01485D01*
Y01505D01*
X01125D02*
Y01485D01*
X01115D01*
X011117Y014883D01*
Y015017D01*
X01115Y01505D01*
X01125D01*
X01215Y016067D02*
X012117Y0161D01*
X01205D01*
X012017Y016067D01*
Y016033D01*
X01205Y016D01*
X012083D01*
X01205D01*
X012017Y015967D01*
Y015933D01*
X01205Y0159D01*
X012117D01*
X01215Y015933D01*
X01195Y0159D02*
Y015933D01*
X011917D01*
Y0159D01*
X01195D01*
X011783Y016067D02*
X01175Y0161D01*
X011683D01*
X01165Y016067D01*
Y016033D01*
X011683Y016D01*
X011717D01*
X011683D01*
X01165Y015967D01*
Y015933D01*
X011683Y0159D01*
X01175D01*
X011783Y015933D01*
X011584Y0161D02*
Y015967D01*
X011517Y0159D01*
X01145Y015967D01*
Y0161D01*
X011384D02*
Y0159D01*
X011284D01*
X01125Y015933D01*
Y016067D01*
X011284Y0161D01*
X011384D01*
X01105Y016067D02*
X011084Y0161D01*
X01115D01*
X011184Y016067D01*
Y015933D01*
X01115Y0159D01*
X011084D01*
X01105Y015933D01*
X012717Y0171D02*
X012783D01*
X01275D01*
Y016933D01*
X012783Y0169D01*
X012817D01*
X01285Y016933D01*
X01265Y0171D02*
Y0169D01*
X012517D01*
X01245Y0171D02*
X012383D01*
X012417D01*
Y0169D01*
X01245D01*
X012383D01*
X012284D02*
Y0171D01*
X01215Y0169D01*
Y0171D01*
X012084D02*
Y0169D01*
Y016967D01*
X01195Y0171D01*
X01205Y017D01*
X01195Y0169D01*
X011884Y016867D02*
X01175D01*
X011684Y0171D02*
X01155D01*
X011617D01*
Y0169D01*
X011484Y0171D02*
Y0169D01*
X011384D01*
X01135Y016933D01*
Y017067D01*
X011384Y0171D01*
X011484D01*
X011184D02*
X011251D01*
X011284Y017067D01*
Y016933D01*
X011251Y0169D01*
X011184D01*
X011151Y016933D01*
Y017067D01*
X011184Y0171D01*
X012717Y0181D02*
X012783D01*
X01275D01*
Y017933D01*
X012783Y0179D01*
X012817D01*
X01285Y017933D01*
X01265Y0181D02*
Y0179D01*
X012517D01*
X01245Y0181D02*
X012383D01*
X012417D01*
Y0179D01*
X01245D01*
X012383D01*
X012284D02*
Y0181D01*
X01215Y0179D01*
Y0181D01*
X012084D02*
Y0179D01*
Y017967D01*
X01195Y0181D01*
X01205Y018D01*
X01195Y0179D01*
X011884Y017867D02*
X01175D01*
X011684Y0181D02*
X01155D01*
X011617D01*
Y0179D01*
X01135Y018067D02*
X011384Y0181D01*
X01145D01*
X011484Y018067D01*
Y017933D01*
X01145Y0179D01*
X011384D01*
X01135Y017933D01*
X011284Y0181D02*
Y0179D01*
Y017967D01*
X011151Y0181D01*
X011251Y018D01*
X011151Y0179D01*
X012667Y01905D02*
X012733D01*
X0127D01*
Y018883D01*
X012733Y01885D01*
X012767D01*
X0128Y018883D01*
X0126Y01905D02*
Y01885D01*
X012467D01*
X0124Y01905D02*
X012333D01*
X012367D01*
Y01885D01*
X0124D01*
X012333D01*
X012234D02*
Y01905D01*
X0121Y01885D01*
Y01905D01*
X012034D02*
Y01885D01*
Y018917D01*
X0119Y01905D01*
X012Y01895D01*
X0119Y01885D01*
X011834Y018817D02*
X0117D01*
X011634Y01905D02*
X0115D01*
X011567D01*
Y01885D01*
X011434Y01905D02*
Y01885D01*
X011334D01*
X0113Y018883D01*
Y019017D01*
X011334Y01905D01*
X011434D01*
X011234D02*
X011167D01*
X011201D01*
Y01885D01*
X011234D01*
X011167D01*
X01264Y02D02*
X012706D01*
X012673D01*
Y019833D01*
X012706Y0198D01*
X01274D01*
X012773Y019833D01*
X012573Y02D02*
Y0198D01*
X01244D01*
X012373Y02D02*
X012306D01*
X01234D01*
Y0198D01*
X012373D01*
X012306D01*
X012206D02*
Y02D01*
X012073Y0198D01*
Y02D01*
X012006D02*
Y0198D01*
Y019867D01*
X011873Y02D01*
X011973Y0199D01*
X011873Y0198D01*
X011806Y019767D02*
X011673D01*
X011607Y02D02*
X011473D01*
X01154D01*
Y0198D01*
X011407D02*
Y02D01*
X01134Y019933D01*
X011273Y02D01*
Y0198D01*
X011073Y019967D02*
X011107Y02D01*
X011173D01*
X011207Y019967D01*
Y019933D01*
X011173Y0199D01*
X011107D01*
X011073Y019867D01*
Y019833D01*
X011107Y0198D01*
X011173D01*
X011207Y019833D01*
X023517Y029467D02*
X02355Y0295D01*
X023617D01*
X02365Y029467D01*
Y029433D01*
X023617Y0294D01*
X02355D01*
X023517Y029367D01*
Y029333D01*
X02355Y0293D01*
X023617D01*
X02365Y029333D01*
X023317Y029467D02*
X02335Y0295D01*
X023417D01*
X02345Y029467D01*
Y029333D01*
X023417Y0293D01*
X02335D01*
X023317Y029333D01*
X02325Y0295D02*
Y0293D01*
X023117D01*
X024617Y029517D02*
X02465Y02955D01*
X024717D01*
X02475Y029517D01*
Y029483D01*
X024717Y02945D01*
X02465D01*
X024617Y029417D01*
Y029383D01*
X02465Y02935D01*
X024717D01*
X02475Y029383D01*
X02455Y02955D02*
Y02935D01*
X02445D01*
X024417Y029383D01*
Y029517D01*
X02445Y02955D01*
X02455D01*
X02435Y02935D02*
Y029483D01*
X024283Y02955D01*
X024217Y029483D01*
Y02935D01*
Y02945D01*
X02435D01*
X026Y029517D02*
X025967Y02955D01*
X0259D01*
X025867Y029517D01*
Y029483D01*
X0259Y02945D01*
X025933D01*
X0259D01*
X025867Y029417D01*
Y029383D01*
X0259Y02935D01*
X025967D01*
X026Y029383D01*
X0258Y02935D02*
Y029383D01*
X025767D01*
Y02935D01*
X0258D01*
X025633Y029517D02*
X0256Y02955D01*
X025533D01*
X0255Y029517D01*
Y029483D01*
X025533Y02945D01*
X025567D01*
X025533D01*
X0255Y029417D01*
Y029383D01*
X025533Y02935D01*
X0256D01*
X025633Y029383D01*
X025434Y02955D02*
Y029417D01*
X025367Y02935D01*
X0253Y029417D01*
Y02955D01*
X025234D02*
Y02935D01*
X025134D01*
X0251Y029383D01*
Y029517D01*
X025134Y02955D01*
X025234D01*
X0249Y029517D02*
X024934Y02955D01*
X025D01*
X025034Y029517D01*
Y029383D01*
X025Y02935D01*
X024934D01*
X0249Y029383D01*
X027317Y026767D02*
X02735Y0268D01*
X027417D01*
X02745Y026767D01*
Y026633D01*
X027417Y0266D01*
X02735D01*
X027317Y026633D01*
Y0267D01*
X027383D01*
X02725Y0266D02*
Y0268D01*
X027117Y0266D01*
Y0268D01*
X02705D02*
Y0266D01*
X02695D01*
X026917Y026633D01*
Y026767D01*
X02695Y0268D01*
X02705D01*
X02745Y027867D02*
X027417Y0279D01*
X02735D01*
X027317Y027867D01*
Y027833D01*
X02735Y0278D01*
X027383D01*
X02735D01*
X027317Y027767D01*
Y027733D01*
X02735Y0277D01*
X027417D01*
X02745Y027733D01*
X02725Y0277D02*
Y027733D01*
X027217D01*
Y0277D01*
X02725D01*
X027083Y027867D02*
X02705Y0279D01*
X026983D01*
X02695Y027867D01*
Y027833D01*
X026983Y0278D01*
X027017D01*
X026983D01*
X02695Y027767D01*
Y027733D01*
X026983Y0277D01*
X02705D01*
X027083Y027733D01*
X026884Y0279D02*
Y027767D01*
X026817Y0277D01*
X02675Y027767D01*
Y0279D01*
X026684D02*
Y0277D01*
X026584D01*
X02655Y027733D01*
Y027867D01*
X026584Y0279D01*
X026684D01*
X02635Y027867D02*
X026384Y0279D01*
X02645D01*
X026484Y027867D01*
Y027733D01*
X02645Y0277D01*
X026384D01*
X02635Y027733D01*
X02751Y02585D02*
X027377D01*
X027443D01*
Y02565D01*
X02731Y02585D02*
X027177Y02565D01*
Y02585D02*
X02731Y02565D01*
X02711Y02585D02*
Y02565D01*
X02701D01*
X026977Y025683D01*
Y025817D01*
X02701Y02585D01*
X02711D01*
X02691Y025817D02*
X026877Y02585D01*
X02681D01*
X026777Y025817D01*
Y025683D01*
X02681Y02565D01*
X026877D01*
X02691Y025683D01*
Y025817D01*
X02751Y0246D02*
Y0248D01*
X02741D01*
X027377Y024767D01*
Y0247D01*
X02741Y024667D01*
X02751D01*
X027443D02*
X027377Y0246D01*
X02731Y0248D02*
X027177Y0246D01*
Y0248D02*
X02731Y0246D01*
X02711Y0248D02*
Y0246D01*
X02701D01*
X026977Y024633D01*
Y024767D01*
X02701Y0248D01*
X02711D01*
X02691Y024767D02*
X026877Y0248D01*
X02681D01*
X026777Y024767D01*
Y024633D01*
X02681Y0246D01*
X026877D01*
X02691Y024633D01*
Y024767D01*
X02755Y02025D02*
Y02045D01*
X02745D01*
X027417Y020417D01*
Y02035D01*
X02745Y020317D01*
X02755D01*
X027483D02*
X027417Y02025D01*
X02735Y02045D02*
X027217Y02025D01*
Y02045D02*
X02735Y02025D01*
X02715Y02045D02*
Y02025D01*
X02705D01*
X027017Y020283D01*
Y020417D01*
X02705Y02045D01*
X02715D01*
X02695Y020217D02*
X026817D01*
X02675Y02045D02*
Y02025D01*
X02665D01*
X026617Y020283D01*
Y020417D01*
X02665Y02045D01*
X02675D01*
X02655D02*
Y020283D01*
X026517Y02025D01*
X02645D01*
X026417Y020283D01*
Y02045D01*
X026217Y020417D02*
X02625Y02045D01*
X026317D01*
X02635Y020417D01*
Y020383D01*
X026317Y02035D01*
X02625D01*
X026217Y020317D01*
Y020283D01*
X02625Y02025D01*
X026317D01*
X02635Y020283D01*
X02615Y02045D02*
X026017D01*
X026084D01*
Y02025D01*
X027444Y0215D02*
X027577D01*
Y0214D01*
X027511Y021433D01*
X027477D01*
X027444Y0214D01*
Y021333D01*
X027477Y0213D01*
X027544D01*
X027577Y021333D01*
X027377Y0215D02*
Y021367D01*
X027311Y0213D01*
X027244Y021367D01*
Y0215D01*
X027177D02*
Y0213D01*
X027077D01*
X027044Y021333D01*
Y021467D01*
X027077Y0215D01*
X027177D01*
X026844Y021467D02*
X026877Y0215D01*
X026944D01*
X026977Y021467D01*
Y021333D01*
X026944Y0213D01*
X026877D01*
X026844Y021333D01*
X02751Y01945D02*
X027377D01*
X027443D01*
Y01925D01*
X02731Y01945D02*
X027177Y01925D01*
Y01945D02*
X02731Y01925D01*
X02711Y01945D02*
Y01925D01*
X02701D01*
X026977Y019283D01*
Y019417D01*
X02701Y01945D01*
X02711D01*
X02691Y019217D02*
X026777D01*
X02671Y01945D02*
Y01925D01*
X02661D01*
X026577Y019283D01*
Y019417D01*
X02661Y01945D01*
X02671D01*
X02651D02*
Y019283D01*
X026477Y01925D01*
X02641D01*
X026377Y019283D01*
Y01945D01*
X026177Y019417D02*
X02621Y01945D01*
X026277D01*
X02631Y019417D01*
Y019383D01*
X026277Y01935D01*
X02621D01*
X026177Y019317D01*
Y019283D01*
X02621Y01925D01*
X026277D01*
X02631Y019283D01*
X02611Y01945D02*
X025977D01*
X026044D01*
Y01925D01*
X011767Y02885D02*
X0119D01*
Y02875D01*
X011833Y028783D01*
X0118D01*
X011767Y02875D01*
Y028683D01*
X0118Y02865D01*
X011867D01*
X0119Y028683D01*
X0117Y02885D02*
Y028717D01*
X011633Y02865D01*
X011567Y028717D01*
Y02885D01*
X0115D02*
Y02865D01*
X0114D01*
X011367Y028683D01*
Y028817D01*
X0114Y02885D01*
X0115D01*
X011167Y028817D02*
X0112Y02885D01*
X011267D01*
X0113Y028817D01*
Y028683D01*
X011267Y02865D01*
X0112D01*
X011167Y028683D01*
X028217Y0188D02*
X028283D01*
X02825D01*
Y018633D01*
X028283Y0186D01*
X028317D01*
X02835Y018633D01*
X02815Y0186D02*
Y0188D01*
X02805D01*
X028017Y018767D01*
Y0187D01*
X02805Y018667D01*
X02815D01*
X02785Y0186D02*
Y0188D01*
X02795Y0187D01*
X027817D01*
X010717Y0208D02*
X010783D01*
X01075D01*
Y020633D01*
X010783Y0206D01*
X010817D01*
X01085Y020633D01*
X01065Y0206D02*
Y0208D01*
X01055D01*
X010517Y020767D01*
Y0207D01*
X01055Y020667D01*
X01065D01*
X01045Y020767D02*
X010417Y0208D01*
X01035D01*
X010317Y020767D01*
Y020733D01*
X01035Y0207D01*
X010383D01*
X01035D01*
X010317Y020667D01*
Y020633D01*
X01035Y0206D01*
X010417D01*
X01045Y020633D01*
X022817Y0304D02*
X022883D01*
X02285D01*
Y030233D01*
X022883Y0302D01*
X022917D01*
X02295Y030233D01*
X02275Y0302D02*
Y0304D01*
X02265D01*
X022617Y030367D01*
Y0303D01*
X02265Y030267D01*
X02275D01*
X02255Y0302D02*
X022483D01*
X022517D01*
Y0304D01*
X02255Y030367D01*
X01105Y0249D02*
Y0247D01*
X01095D01*
X010917Y024733D01*
Y024867D01*
X01095Y0249D01*
X01105D01*
X01085D02*
Y0247D01*
Y0248D01*
X010717D01*
Y0249D01*
Y0247D01*
X01065Y0249D02*
X010517D01*
X010583D01*
Y0247D01*
X01045D02*
X010384D01*
X010417D01*
Y0249D01*
X01045Y024867D01*
D84*
X026976Y00896D02*
Y011212D01*
X024024D02*
X026976D01*
X024024Y00896D02*
Y011212D01*
Y00896D02*
X026976D01*
M02*
