G04*
G04 #@! TF.GenerationSoftware,Altium Limited,Altium Designer,18.1.6 (161)*
G04*
G04 Layer_Color=16711935*
%FSTAX24Y24*%
%MOIN*%
G70*
G01*
G75*
%ADD15C,0.0079*%
%ADD91C,0.0039*%
%ADD92C,0.0020*%
%ADD93C,0.0030*%
%ADD94R,0.0244X0.1150*%
D15*
X014047Y010629D02*
X014098Y010337D01*
X013754Y010578D02*
X014047Y010629D01*
X013995Y010922D02*
X014047Y010629D01*
X014339Y010681D01*
X013538Y010713D02*
X016407Y011219D01*
X016523Y01056D01*
X013654Y010054D02*
X016523Y01056D01*
X013538Y010713D02*
X013654Y010054D01*
X01321Y01449D02*
X01339Y01431D01*
X01321D02*
X01339Y01449D01*
X012791Y014484D02*
X012907Y013825D01*
X01582Y01436D01*
X01566Y01499D02*
X01582Y01436D01*
X012791Y014484D02*
X01566Y01499D01*
X021685Y0157D02*
Y016D01*
X021535Y01585D02*
X021835D01*
X021173Y016441D02*
X022197D01*
X021173Y015259D02*
X022197D01*
X021173D02*
Y016441D01*
X022197Y015259D02*
Y016441D01*
D91*
X02028Y01177D02*
G03*
X02028Y01177I-000197J0D01*
G01*
X025167Y021606D02*
G03*
X025167Y021606I-000197J0D01*
G01*
X022393Y010915D02*
X022707D01*
X022393Y010285D02*
X022707D01*
Y010915D01*
X022393Y010285D02*
Y010915D01*
X021788Y012715D02*
X022103D01*
X021788Y012085D02*
X022103D01*
Y012715D01*
X021788Y012085D02*
Y012715D01*
X021385Y010143D02*
Y010457D01*
X022015Y010143D02*
Y010457D01*
X021385D02*
X022015D01*
X021385Y010143D02*
X022015D01*
X022015Y010693D02*
Y011007D01*
X021385Y010693D02*
Y011007D01*
Y010693D02*
X022015D01*
X021385Y011007D02*
X022015D01*
X0196Y009806D02*
Y010494D01*
X0208Y009806D02*
Y010494D01*
X0196Y009806D02*
X0208D01*
X0196Y010494D02*
X0208D01*
X018156Y009815D02*
X019344D01*
X018156Y010485D02*
X019344D01*
X018156Y009815D02*
Y010485D01*
X019344Y009815D02*
Y010485D01*
X017309Y01203D02*
X017938D01*
X017309Y011715D02*
X017938D01*
X017309D02*
Y01203D01*
X017938Y011715D02*
Y01203D01*
X020437Y011416D02*
Y013384D01*
X018863Y011416D02*
Y013384D01*
Y011416D02*
X020437D01*
X018863Y013384D02*
X020437D01*
X017938Y012768D02*
Y013083D01*
X017309Y012768D02*
Y013083D01*
Y012768D02*
X017938D01*
X017309Y013083D02*
X017938D01*
X023012Y014835D02*
Y015465D01*
X022697Y014835D02*
Y015465D01*
X023012D01*
X022697Y014835D02*
X023012D01*
X022835Y016377D02*
X023465D01*
X022835Y016692D02*
X023465D01*
Y016377D02*
Y016692D01*
X022835Y016377D02*
Y016692D01*
X021785Y017543D02*
Y017857D01*
X022415Y017543D02*
Y017857D01*
X021785D02*
X022415D01*
X021785Y017543D02*
X022415D01*
X02588Y02017D02*
X026195D01*
X02588Y01954D02*
X026195D01*
Y02017D01*
X02588Y01954D02*
Y02017D01*
X026085Y017875D02*
Y019025D01*
X024274Y017875D02*
Y019025D01*
Y017875D02*
X026085D01*
X024274Y019025D02*
X026085D01*
X026637Y024647D02*
Y025277D01*
X026322Y024647D02*
Y025277D01*
X026637D01*
X026322Y024647D02*
X026637D01*
X024785Y025743D02*
X025415D01*
X024785Y026057D02*
X025415D01*
Y025743D02*
Y026057D01*
X024785Y025743D02*
Y026057D01*
X027065Y015873D02*
X027735D01*
X027065Y017062D02*
X027735D01*
Y015873D02*
Y017062D01*
X027065Y015873D02*
Y017062D01*
X021335Y011607D02*
X021965D01*
X021335Y011293D02*
X021965D01*
X021335D02*
Y011607D01*
X021965Y011293D02*
Y011607D01*
X027235Y014836D02*
Y015151D01*
X027865Y014836D02*
Y015151D01*
X027235D02*
X027865D01*
X027235Y014836D02*
X027865D01*
X025243Y02465D02*
X025557D01*
X025243Y02528D02*
X025557D01*
X025243Y02465D02*
Y02528D01*
X025557Y02465D02*
Y02528D01*
X024616Y021252D02*
X026742D01*
X024616Y023378D02*
X026742D01*
X024616Y021252D02*
Y023378D01*
X026742Y021252D02*
Y023378D01*
X016972Y014131D02*
Y016769D01*
X018428Y014131D02*
Y016769D01*
X016972D02*
X018428D01*
X016972Y014131D02*
X018428D01*
X013265Y021443D02*
Y021757D01*
X012635Y021443D02*
Y021757D01*
Y021443D02*
X013265D01*
X012635Y021757D02*
X013265D01*
X012635Y026493D02*
Y026807D01*
X013265Y026493D02*
Y026807D01*
X012635D02*
X013265D01*
X012635Y026493D02*
X013265D01*
X012635Y025943D02*
X013265D01*
X012635Y026257D02*
X013265D01*
Y025943D02*
Y026257D01*
X012635Y025943D02*
Y026257D01*
X021238Y012715D02*
X021553D01*
X021238Y012085D02*
X021553D01*
Y012715D01*
X021238Y012085D02*
Y012715D01*
X023635Y025743D02*
X024265D01*
X023635Y026057D02*
X024265D01*
Y025743D02*
Y026057D01*
X023635Y025743D02*
Y026057D01*
Y020807D02*
X024265D01*
X023635Y021122D02*
X024265D01*
Y020807D02*
Y021122D01*
X023635Y020807D02*
Y021122D01*
X023635Y023507D02*
X024265D01*
X023635Y023193D02*
X024265D01*
X023635D02*
Y023507D01*
X024265Y023193D02*
Y023507D01*
X02052Y015146D02*
Y015461D01*
X01989Y015146D02*
Y015461D01*
Y015146D02*
X02052D01*
X01989Y015461D02*
X02052D01*
X02364Y022757D02*
X02427D01*
X02364Y022443D02*
X02427D01*
X02364D02*
Y022757D01*
X02427Y022443D02*
Y022757D01*
X025935Y026057D02*
X026565D01*
X025935Y025743D02*
X026565D01*
X025935D02*
Y026057D01*
X026565Y025743D02*
Y026057D01*
X013265Y024043D02*
Y024357D01*
X012635Y024043D02*
Y024357D01*
Y024043D02*
X013265D01*
X012635Y024357D02*
X013265D01*
X012635Y023707D02*
X013265D01*
X012635Y023393D02*
X013265D01*
X012635D02*
Y023707D01*
X013265Y023393D02*
Y023707D01*
X023607Y014835D02*
Y015465D01*
X023293Y014835D02*
Y015465D01*
X023607D01*
X023293Y014835D02*
X023607D01*
X015168Y01252D02*
X015483D01*
X015168Y01189D02*
X015483D01*
Y01252D01*
X015168Y01189D02*
Y01252D01*
X022168Y01879D02*
Y01942D01*
X021853Y01879D02*
Y01942D01*
X022168D01*
X021853Y01879D02*
X022168D01*
X012635Y021207D02*
X013265D01*
X012635Y020893D02*
X013265D01*
X012635D02*
Y021207D01*
X013265Y020893D02*
Y021207D01*
X01264Y020293D02*
X01327D01*
X01264Y020607D02*
X01327D01*
Y020293D02*
Y020607D01*
X01264Y020293D02*
Y020607D01*
X023493Y024636D02*
Y025265D01*
X023807Y024636D02*
Y025265D01*
X023493Y024636D02*
X023807D01*
X023493Y025265D02*
X023807D01*
X027235Y01536D02*
X027865D01*
X027235Y015675D02*
X027865D01*
Y01536D02*
Y015675D01*
X027235Y01536D02*
Y015675D01*
X022835Y016157D02*
X023465D01*
X022835Y015843D02*
X023465D01*
X022835D02*
Y016157D01*
X023465Y015843D02*
Y016157D01*
X015393Y015437D02*
X015707D01*
X015393Y016067D02*
X015707D01*
X015393Y015437D02*
Y016067D01*
X015707Y015437D02*
Y016067D01*
X015084Y015437D02*
Y016067D01*
X014769Y015437D02*
Y016067D01*
X015084D01*
X014769Y015437D02*
X015084D01*
X017312Y013607D02*
X017942D01*
X017312Y013293D02*
X017942D01*
X017312D02*
Y013607D01*
X017942Y013293D02*
Y013607D01*
X012635Y024593D02*
Y024907D01*
X013265Y024593D02*
Y024907D01*
X012635D02*
X013265D01*
X012635Y024593D02*
X013265D01*
X012635Y025393D02*
X013265D01*
X012635Y025707D02*
X013265D01*
Y025393D02*
Y025707D01*
X012635Y025393D02*
Y025707D01*
X02132Y017543D02*
Y017857D01*
X02069Y017543D02*
Y017857D01*
Y017543D02*
X02132D01*
X02069Y017857D02*
X02132D01*
X024088Y024648D02*
Y025278D01*
X024403Y024648D02*
Y025278D01*
X024088Y024648D02*
X024403D01*
X024088Y025278D02*
X024403D01*
X017938Y012243D02*
Y012557D01*
X017309Y012243D02*
Y012557D01*
Y012243D02*
X017938D01*
X017309Y012557D02*
X017938D01*
X027522Y018593D02*
X027837D01*
X027522Y017963D02*
X027837D01*
Y018593D01*
X027522Y017963D02*
Y018593D01*
X013441Y015893D02*
Y016207D01*
X012811Y015893D02*
Y016207D01*
Y015893D02*
X013441D01*
X012811Y016207D02*
X013441D01*
X013265Y022847D02*
Y023162D01*
X012635Y022847D02*
Y023162D01*
Y022847D02*
X013265D01*
X012635Y023162D02*
X013265D01*
X019535Y017543D02*
X020165D01*
X019535Y017857D02*
X020165D01*
Y017543D02*
Y017857D01*
X019535Y017543D02*
Y017857D01*
X022693Y019465D02*
X023007D01*
X022693Y018835D02*
X023007D01*
Y019465D01*
X022693Y018835D02*
Y019465D01*
X025793Y025278D02*
X026107D01*
X025793Y024648D02*
X026107D01*
Y025278D01*
X025793Y024648D02*
Y025278D01*
X023635Y021843D02*
Y022157D01*
X024265Y021843D02*
Y022157D01*
X023635D02*
X024265D01*
X023635Y021843D02*
X024265D01*
X024987Y024647D02*
Y025277D01*
X024672Y024647D02*
Y025277D01*
X024987D01*
X024672Y024647D02*
X024987D01*
X025343Y019535D02*
Y020165D01*
X025657Y019535D02*
Y020165D01*
X025343Y019535D02*
X025657D01*
X025343Y020165D02*
X025657D01*
X024843Y019535D02*
Y020165D01*
X025157Y019535D02*
Y020165D01*
X024843Y019535D02*
X025157D01*
X024843Y020165D02*
X025157D01*
X020144Y01482D02*
X021956D01*
X020144Y01367D02*
X021956D01*
X020144D02*
Y01482D01*
X021956Y01367D02*
Y01482D01*
D92*
X016089Y012343D02*
X016562Y012343D01*
X016089Y012657D02*
X016562Y012657D01*
X016011Y012343D02*
X016129D01*
X016011D02*
Y012657D01*
X016089Y012343D02*
Y012657D01*
X016011Y012657D02*
X016129D01*
X016522D02*
X016641D01*
Y012343D02*
Y012657D01*
X016522Y012343D02*
X016641D01*
X016562D02*
Y012657D01*
X01609Y012343D02*
Y012657D01*
X016561Y012343D02*
Y012657D01*
X016524Y012343D02*
Y012657D01*
X01609D02*
X016561D01*
X01609Y012343D02*
X016561D01*
X016127D02*
Y012657D01*
X016087Y011688D02*
X01656Y011688D01*
X016087Y012002D02*
X01656Y012003D01*
X016009Y011688D02*
X016127D01*
X016009D02*
Y012003D01*
X016087Y011688D02*
Y012002D01*
X016009Y012003D02*
X016127D01*
X01652D02*
X016638D01*
Y011688D02*
Y012003D01*
X01652Y011688D02*
X016638D01*
X01656D02*
Y012003D01*
X016088Y011689D02*
Y012002D01*
X016559Y011689D02*
Y012002D01*
X016522Y011689D02*
Y012002D01*
X016088D02*
X016559D01*
X016088Y011689D02*
X016559D01*
X016125D02*
Y012002D01*
X01289Y015657D02*
X013362Y015657D01*
X01289Y015343D02*
X013362Y015343D01*
X013323Y015657D02*
X013441D01*
Y015343D02*
Y015657D01*
X013362Y015343D02*
Y015657D01*
X013323Y015343D02*
X013441D01*
X012811D02*
X012929D01*
X012811D02*
Y015657D01*
X012929D01*
X01289Y015343D02*
Y015657D01*
X013362Y015343D02*
Y015657D01*
X01289Y015343D02*
Y015657D01*
X012927Y015343D02*
Y015657D01*
X01289Y015343D02*
X013362D01*
X01289Y015657D02*
X013362D01*
X013324Y015343D02*
Y015657D01*
X012714Y022607D02*
X013186Y022607D01*
X012714Y022293D02*
X013186Y022293D01*
X013147Y022607D02*
X013265D01*
Y022293D02*
Y022607D01*
X013186Y022293D02*
Y022607D01*
X013147Y022293D02*
X013265D01*
X012635D02*
X012753D01*
X012635D02*
Y022607D01*
X012753D01*
X012714Y022293D02*
Y022607D01*
X013186Y022293D02*
Y022607D01*
X012714Y022293D02*
Y022607D01*
X012751Y022293D02*
Y022607D01*
X012714Y022293D02*
X013186D01*
X012714Y022607D02*
X013186D01*
X013149Y022293D02*
Y022607D01*
D93*
X014492Y015465D02*
Y016135D01*
X014118Y015465D02*
Y016135D01*
X014492D01*
X014118Y015465D02*
X014492D01*
X020535Y01577D02*
Y016144D01*
X019865Y01577D02*
Y016144D01*
Y01577D02*
X020535D01*
X019865Y016144D02*
X020535D01*
D94*
X024396Y01845D02*
D03*
X020266Y014245D02*
D03*
M02*
