G04*
G04 #@! TF.GenerationSoftware,Altium Limited,Altium Designer,18.1.6 (161)*
G04*
G04 Layer_Color=128*
%FSTAX24Y24*%
%MOIN*%
G70*
G01*
G75*
%ADD90C,0.0020*%
D90*
X027758Y019428D02*
X028191D01*
X027975Y019211D02*
Y019644D01*
X027758Y020428D02*
X028191D01*
X027975Y020211D02*
Y020644D01*
X027758Y021428D02*
X028191D01*
X027975Y021211D02*
Y021644D01*
X027758Y022428D02*
X028191D01*
X027975Y022211D02*
Y022644D01*
X015064Y0144D02*
X015536D01*
X0153Y014164D02*
Y014636D01*
X013064Y0144D02*
X013536D01*
X0133Y014164D02*
Y014636D01*
X011198Y011329D02*
X011395D01*
X011297Y011231D02*
Y011427D01*
X011198Y013927D02*
X011395D01*
X011297Y013829D02*
Y014026D01*
X010499Y02875D02*
X010901D01*
X0107Y028549D02*
Y028951D01*
X010499Y02775D02*
X010901D01*
X0107Y027549D02*
Y027951D01*
X010499Y02675D02*
X010901D01*
X0107Y026549D02*
Y026951D01*
X010499Y02575D02*
X010901D01*
X0107Y025549D02*
Y025951D01*
X010483Y014985D02*
X010917D01*
X0107Y014768D02*
Y015202D01*
X010483Y015985D02*
X010917D01*
X0107Y015768D02*
Y016202D01*
X010483Y016985D02*
X010917D01*
X0107Y016768D02*
Y017202D01*
X010483Y017985D02*
X010917D01*
X0107Y017768D02*
Y018202D01*
X010483Y018985D02*
X010917D01*
X0107Y018768D02*
Y019202D01*
X010483Y019985D02*
X010917D01*
X0107Y019768D02*
Y020202D01*
X026333Y0301D02*
X026767D01*
X02655Y029883D02*
Y030317D01*
X025333Y0301D02*
X025767D01*
X02555Y029883D02*
Y030317D01*
X024333Y0301D02*
X024767D01*
X02455Y029883D02*
Y030317D01*
X023333Y0301D02*
X023767D01*
X02355Y029883D02*
Y030317D01*
X023925Y0171D02*
X024275D01*
X0241Y016925D02*
Y017275D01*
X024925Y0151D02*
X025275D01*
X0251Y014925D02*
Y015275D01*
X025925Y0171D02*
X026275D01*
X0261Y016925D02*
Y017275D01*
X027883Y0277D02*
X028317D01*
X0281Y027483D02*
Y027917D01*
X027883Y0267D02*
X028317D01*
X0281Y026483D02*
Y026917D01*
X027883Y0257D02*
X028317D01*
X0281Y025483D02*
Y025917D01*
X027883Y0247D02*
X028317D01*
X0281Y024483D02*
Y024917D01*
X027883Y0237D02*
X028317D01*
X0281Y023483D02*
Y023917D01*
X013508Y01065D02*
X01398D01*
X013744Y010414D02*
Y010886D01*
X016264Y01065D02*
X016736D01*
X0165Y010414D02*
Y010886D01*
X025843Y00985D02*
X026157D01*
X026Y009693D02*
Y010007D01*
X024843Y00985D02*
X025157D01*
X025Y009693D02*
Y010007D01*
X020941Y011861D02*
X021059D01*
X021Y011802D02*
Y01192D01*
X013725Y02555D02*
X013875D01*
X0138Y025475D02*
Y025625D01*
X013556Y02475D02*
X013674D01*
X013615Y024691D02*
Y024809D01*
X013625Y023004D02*
X013775D01*
X0137Y022929D02*
Y023079D01*
X015075Y01825D02*
X015225D01*
X01515Y018175D02*
Y018325D01*
X021594Y0189D02*
X021713D01*
X021654Y018841D02*
Y018959D01*
X02298Y01955D02*
X02313D01*
X023055Y019475D02*
Y019625D01*
X021641Y0249D02*
X021759D01*
X0217Y024841D02*
Y024959D01*
X02298Y0184D02*
X02313D01*
X023055Y018325D02*
Y018475D01*
X020991Y0181D02*
X021109D01*
X02105Y018041D02*
Y018159D01*
X024541Y019878D02*
X024659D01*
X0246Y019819D02*
Y019937D01*
X014825Y016468D02*
X014975D01*
X0149Y016393D02*
Y016543D01*
X015875Y016352D02*
X016025D01*
X01595Y016277D02*
Y016427D01*
X022541Y0217D02*
X022659D01*
X0226Y021641D02*
Y021759D01*
X021691Y0222D02*
X021809D01*
X02175Y022141D02*
Y022259D01*
X023471Y022928D02*
X023589D01*
X02353Y022869D02*
Y022987D01*
X023471Y0243D02*
X023589D01*
X02353Y024241D02*
Y024359D01*
X024541Y024647D02*
X024659D01*
X0246Y024588D02*
Y024706D01*
X02298Y0238D02*
X02313D01*
X023055Y023725D02*
Y023875D01*
X022446Y01965D02*
X022564D01*
X022505Y019591D02*
Y019709D01*
X011159Y024307D02*
X011277D01*
X011218Y024248D02*
Y024366D01*
X011391Y0239D02*
X011509D01*
X01145Y023841D02*
Y023959D01*
X012301Y0239D02*
X012419D01*
X01236Y023841D02*
Y023959D01*
X017709Y021887D02*
X017859D01*
X017784Y021812D02*
Y021962D01*
X016649Y021887D02*
X016799D01*
X016724Y021812D02*
Y021962D01*
X017174Y021887D02*
X017324D01*
X017249Y021812D02*
Y021962D01*
X017709Y022428D02*
X017859D01*
X017784Y022353D02*
Y022503D01*
X016649Y02242D02*
X016799D01*
X016724Y022345D02*
Y022495D01*
X017709Y022947D02*
X017859D01*
X017784Y022872D02*
Y023022D01*
X017174Y022967D02*
X017324D01*
X017249Y022892D02*
Y023042D01*
X017174Y02242D02*
X017324D01*
X017249Y022345D02*
Y022495D01*
X016649Y022957D02*
X016799D01*
X016724Y022882D02*
Y023032D01*
X027315Y03D02*
X028575D01*
X027945Y02937D02*
Y03063D01*
X023885Y0289D02*
X024035D01*
X02396Y028825D02*
Y028975D01*
X024743Y02885D02*
X024893D01*
X024818Y028775D02*
Y028925D01*
X024891Y02595D02*
X025009D01*
X02495Y025891D02*
Y026009D01*
X025891Y0256D02*
X026009D01*
X02595Y025541D02*
Y025659D01*
X027025Y01905D02*
X027175D01*
X0271Y018975D02*
Y019125D01*
X027425Y02205D02*
X027575D01*
X0275Y021975D02*
Y022125D01*
X021841Y02355D02*
X021959D01*
X0219Y023491D02*
Y023609D01*
X022591Y02355D02*
X022709D01*
X02265Y023491D02*
Y023609D01*
X021591Y0257D02*
X021709D01*
X02165Y025641D02*
Y025759D01*
X022541Y022428D02*
X022659D01*
X0226Y022369D02*
Y022487D01*
X021819Y023928D02*
X021937D01*
X021878Y023869D02*
Y023987D01*
X022341Y02395D02*
X022459D01*
X0224Y023891D02*
Y024009D01*
X020375Y0173D02*
X020525D01*
X02045Y017225D02*
Y017375D01*
X020775Y01695D02*
X020925D01*
X02085Y016875D02*
Y017025D01*
X019975Y01695D02*
X020125D01*
X02005Y016875D02*
Y017025D01*
X024491Y0205D02*
X024609D01*
X02455Y020441D02*
Y020559D01*
X02787Y01455D02*
X02802D01*
X027945Y014475D02*
Y014625D01*
X012591Y01775D02*
X012709D01*
X01265Y017691D02*
Y017809D01*
X012341Y017983D02*
X012459D01*
X0124Y017924D02*
Y018042D01*
X012341Y01895D02*
X012459D01*
X0124Y018891D02*
Y019009D01*
X012321Y019495D02*
X012439D01*
X01238Y019436D02*
Y019554D01*
X01232Y027865D02*
X01247D01*
X012395Y02779D02*
Y02794D01*
X011725Y024965D02*
X011875D01*
X0118Y02489D02*
Y02504D01*
X020675Y009618D02*
X020825D01*
X02075Y009543D02*
Y009693D01*
X012305Y01593D02*
X012455D01*
X01238Y015855D02*
Y016005D01*
X01983Y0154D02*
X01998D01*
X019905Y015325D02*
Y015475D01*
X027345Y00955D02*
X028604D01*
X027975Y00892D02*
Y01018D01*
X01017Y00955D02*
X01143D01*
X0108Y00892D02*
Y01018D01*
X01012Y0301D02*
X01138D01*
X01075Y02947D02*
Y03073D01*
X026625Y02085D02*
X026775D01*
X0267Y020775D02*
Y020925D01*
X021886Y011777D02*
X022004D01*
X021945Y011718D02*
Y011836D01*
X02132Y013095D02*
X02147D01*
X021395Y01302D02*
Y01317D01*
X019306Y009618D02*
X019456D01*
X019382Y009543D02*
Y009693D01*
X017994Y009618D02*
X018144D01*
X018068Y009543D02*
Y009693D01*
X02192Y009905D02*
X02207D01*
X021995Y00983D02*
Y00998D01*
X020566Y011125D02*
X020684D01*
X020625Y011066D02*
Y011184D01*
X019941Y01115D02*
X02006D01*
X020001Y011091D02*
Y011209D01*
X022375Y0124D02*
X022525D01*
X02245Y012325D02*
Y012475D01*
X019275Y0124D02*
X019425D01*
X01935Y012325D02*
Y012475D01*
X023675Y0165D02*
X023825D01*
X02375Y016425D02*
Y016575D01*
X026425Y01645D02*
X026575D01*
X0265Y016375D02*
Y016525D01*
X028275Y01745D02*
X028425D01*
X02835Y017375D02*
Y017525D01*
X027625Y01745D02*
X027775D01*
X0277Y017375D02*
Y017525D01*
X012584Y02005D02*
X012734D01*
X012659Y019975D02*
Y020125D01*
X012301Y02335D02*
X012419D01*
X01236Y023291D02*
Y023409D01*
X012025Y024218D02*
X012175D01*
X0121Y024143D02*
Y024293D01*
X011131Y021132D02*
X011281D01*
X011206Y021057D02*
Y021207D01*
X013186Y022D02*
X013304D01*
X013245Y021941D02*
Y022059D01*
X016799Y012926D02*
X016949D01*
X016874Y012851D02*
Y013001D01*
X014812Y011909D02*
X014962D01*
X014887Y011834D02*
Y011984D01*
M02*
