G04*
G04 #@! TF.GenerationSoftware,Altium Limited,Altium Designer,18.1.6 (161)*
G04*
G04 Layer_Color=16711935*
%FSTAX24Y24*%
%MOIN*%
G70*
G01*
G75*
%ADD14C,0.0079*%
%ADD85C,0.0039*%
%ADD86C,0.0020*%
%ADD87R,0.0244X0.1150*%
D14*
X01321Y01449D02*
X01339Y01431D01*
X01321D02*
X01339Y01449D01*
X012791Y014484D02*
X012907Y013825D01*
X01582Y01436D01*
X01566Y01499D02*
X01582Y01436D01*
X012791Y014484D02*
X01566Y01499D01*
X013538Y010713D02*
X013654Y010054D01*
X016523Y01056D01*
X016407Y011219D02*
X016523Y01056D01*
X013538Y010713D02*
X016407Y011219D01*
X014047Y010629D02*
X014339Y010681D01*
X013995Y010922D02*
X014047Y010629D01*
X013754Y010578D02*
X014047Y010629D01*
X014098Y010337D01*
X022197Y015259D02*
Y016441D01*
X021173Y015259D02*
Y016441D01*
Y015259D02*
X022197D01*
X021173Y016441D02*
X022197D01*
X021535Y01585D02*
X021835D01*
X021685Y0157D02*
Y016D01*
D85*
X02033Y01177D02*
G03*
X02033Y01177I-000197J0D01*
G01*
X025167Y021606D02*
G03*
X025167Y021606I-000197J0D01*
G01*
X018913Y013384D02*
X020487D01*
X018913Y011416D02*
X020487D01*
X018913D02*
Y013384D01*
X020487Y011416D02*
Y013384D01*
X02334Y029143D02*
Y029457D01*
X02397Y029143D02*
Y029457D01*
X02334D02*
X02397D01*
X02334Y029143D02*
X02397D01*
X024619D02*
Y029457D01*
X025249Y029143D02*
Y029457D01*
X024619D02*
X025249D01*
X024619Y029143D02*
X025249D01*
X027364Y015343D02*
Y015657D01*
X027994Y015343D02*
Y015657D01*
X027364D02*
X027994D01*
X027364Y015343D02*
X027994D01*
X023465Y015843D02*
Y016157D01*
X022835Y015843D02*
Y016157D01*
Y015843D02*
X023465D01*
X022835Y016157D02*
X023465D01*
X011785Y028093D02*
Y028407D01*
X012415Y028093D02*
Y028407D01*
X011785D02*
X012415D01*
X011785Y028093D02*
X012415D01*
X022697Y014835D02*
X023012D01*
X022697Y015465D02*
X023012D01*
X022697Y014835D02*
Y015465D01*
X023012Y014835D02*
Y015465D01*
X017938Y011715D02*
Y01203D01*
X017309Y011715D02*
Y01203D01*
Y011715D02*
X017938D01*
X017309Y01203D02*
X017938D01*
X022035Y018743D02*
X022665D01*
X022035Y019057D02*
X022665D01*
Y018743D02*
Y019057D01*
X022035Y018743D02*
Y019057D01*
Y018193D02*
X022665D01*
X022035Y018507D02*
X022665D01*
Y018193D02*
Y018507D01*
X022035Y018193D02*
Y018507D01*
X027735Y018007D02*
X028365D01*
X027735Y017693D02*
X028365D01*
X027735D02*
Y018007D01*
X028365Y017693D02*
Y018007D01*
X021385Y011007D02*
X022015D01*
X021385Y010693D02*
X022015D01*
X021385D02*
Y011007D01*
X022015Y010693D02*
Y011007D01*
X020515Y017616D02*
Y017931D01*
X019885Y017616D02*
Y017931D01*
Y017616D02*
X020515D01*
X019885Y017931D02*
X020515D01*
X01236Y015343D02*
Y015657D01*
X01299Y015343D02*
Y015657D01*
X01236D02*
X01299D01*
X01236Y015343D02*
X01299D01*
X021965Y011293D02*
Y011607D01*
X021335Y011293D02*
Y011607D01*
Y011293D02*
X021965D01*
X021335Y011607D02*
X021965D01*
X013265Y020893D02*
Y021207D01*
X012635Y020893D02*
Y021207D01*
Y020893D02*
X013265D01*
X012635Y021207D02*
X013265D01*
X025793Y024648D02*
Y025278D01*
X026107Y024648D02*
Y025278D01*
X025793Y024648D02*
X026107D01*
X025793Y025278D02*
X026107D01*
X017309Y012557D02*
X017938D01*
X017309Y012243D02*
X017938D01*
X017309D02*
Y012557D01*
X017938Y012243D02*
Y012557D01*
X01264Y020293D02*
Y020607D01*
X01327Y020293D02*
Y020607D01*
X01264D02*
X01327D01*
X01264Y020293D02*
X01327D01*
X012635Y024376D02*
X013265D01*
X012635Y024061D02*
X013265D01*
X012635D02*
Y024376D01*
X013265Y024061D02*
Y024376D01*
X012635Y023162D02*
X013265D01*
X012635Y022847D02*
X013265D01*
X012635D02*
Y023162D01*
X013265Y022847D02*
Y023162D01*
X022665Y01927D02*
Y019585D01*
X022035Y01927D02*
Y019585D01*
Y01927D02*
X022665D01*
X022035Y019585D02*
X022665D01*
X022393Y010285D02*
Y010915D01*
X022707Y010285D02*
Y010915D01*
X022393Y010285D02*
X022707D01*
X022393Y010915D02*
X022707D01*
X015689Y015437D02*
Y016067D01*
X015375Y015437D02*
Y016067D01*
X015689D01*
X015375Y015437D02*
X015689D01*
X027065Y015873D02*
Y017062D01*
X027735Y015873D02*
Y017062D01*
X027065D02*
X027735D01*
X027065Y015873D02*
X027735D01*
X017312Y013157D02*
X017942D01*
X017312Y012843D02*
X017942D01*
X017312D02*
Y013157D01*
X017942Y012843D02*
Y013157D01*
X023293Y014835D02*
X023607D01*
X023293Y015465D02*
X023607D01*
X023293Y014835D02*
Y015465D01*
X023607Y014835D02*
Y015465D01*
X011785Y028643D02*
X012415D01*
X011785Y028957D02*
X012415D01*
Y028643D02*
Y028957D01*
X011785Y028643D02*
Y028957D01*
X014751Y015437D02*
X015066D01*
X014751Y016067D02*
X015066D01*
X014751Y015437D02*
Y016067D01*
X015066Y015437D02*
Y016067D01*
X015168Y01189D02*
Y01252D01*
X015483Y01189D02*
Y01252D01*
X015168Y01189D02*
X015483D01*
X015168Y01252D02*
X015483D01*
X026993Y021435D02*
X027307D01*
X026993Y022065D02*
X027307D01*
X026993Y021435D02*
Y022065D01*
X027307Y021435D02*
Y022065D01*
X019885Y015957D02*
X020515D01*
X019885Y015643D02*
X020515D01*
X019885D02*
Y015957D01*
X020515Y015643D02*
Y015957D01*
X021238Y012085D02*
Y012715D01*
X021553Y012085D02*
Y012715D01*
X021238Y012085D02*
X021553D01*
X021238Y012715D02*
X021553D01*
X027335Y014828D02*
X027965D01*
X027335Y015142D02*
X027965D01*
Y014828D02*
Y015142D01*
X027335Y014828D02*
Y015142D01*
X026742Y021252D02*
Y023378D01*
X024616Y021252D02*
Y023378D01*
X026742D01*
X024616Y021252D02*
X026742D01*
X0196Y010494D02*
X0208D01*
X0196Y009806D02*
X0208D01*
Y010494D01*
X0196Y009806D02*
Y010494D01*
X019344Y009815D02*
Y010485D01*
X018156Y009815D02*
Y010485D01*
X019344D01*
X018156Y009815D02*
X019344D01*
X016972Y014131D02*
X018428D01*
X016972Y016769D02*
X018428D01*
Y014131D02*
Y016769D01*
X016972Y014131D02*
Y016769D01*
X012635Y021757D02*
X013265D01*
X012635Y021443D02*
X013265D01*
X012635D02*
Y021757D01*
X013265Y021443D02*
Y021757D01*
X024274Y019025D02*
X026085D01*
X024274Y017875D02*
X026085D01*
X024274D02*
Y019025D01*
X026085Y017875D02*
Y019025D01*
X022835Y016377D02*
Y016692D01*
X023465Y016377D02*
Y016692D01*
X022835D02*
X023465D01*
X022835Y016377D02*
X023465D01*
X017965Y013393D02*
Y013707D01*
X017335Y013393D02*
Y013707D01*
Y013393D02*
X017965D01*
X017335Y013707D02*
X017965D01*
X024143Y02528D02*
X024457D01*
X024143Y02465D02*
X024457D01*
Y02528D01*
X024143Y02465D02*
Y02528D01*
X02103Y017931D02*
X02166D01*
X02103Y017616D02*
X02166D01*
X02103D02*
Y017931D01*
X02166Y017616D02*
Y017931D01*
X024693Y025265D02*
X025007D01*
X024693Y024635D02*
X025007D01*
Y025265D01*
X024693Y024635D02*
Y025265D01*
X021788Y012085D02*
Y012715D01*
X022103Y012085D02*
Y012715D01*
X021788Y012085D02*
X022103D01*
X021788Y012715D02*
X022103D01*
X013265Y023393D02*
Y023707D01*
X012635Y023393D02*
Y023707D01*
Y023393D02*
X013265D01*
X012635Y023707D02*
X013265D01*
X012635Y024593D02*
X013265D01*
X012635Y024907D02*
X013265D01*
Y024593D02*
Y024907D01*
X012635Y024593D02*
Y024907D01*
X021956Y01367D02*
Y01482D01*
X020144Y01367D02*
Y01482D01*
Y01367D02*
X021956D01*
X020144Y01482D02*
X021956D01*
X021385Y010143D02*
X022015D01*
X021385Y010457D02*
X022015D01*
Y010143D02*
Y010457D01*
X021385Y010143D02*
Y010457D01*
X012635Y025393D02*
Y025707D01*
X013265Y025393D02*
Y025707D01*
X012635D02*
X013265D01*
X012635Y025393D02*
X013265D01*
X024777Y02017D02*
X025091D01*
X024777Y01954D02*
X025091D01*
Y02017D01*
X024777Y01954D02*
Y02017D01*
X02583Y01954D02*
Y02017D01*
X026144Y01954D02*
Y02017D01*
X02583Y01954D02*
X026144D01*
X02583Y02017D02*
X026144D01*
X025555Y024635D02*
Y025265D01*
X02524Y024635D02*
Y025265D01*
X025555D01*
X02524Y024635D02*
X025555D01*
X024265Y023693D02*
Y024007D01*
X023635Y023693D02*
Y024007D01*
Y023693D02*
X024265D01*
X023635Y024007D02*
X024265D01*
X023635Y020807D02*
Y021122D01*
X024265Y020807D02*
Y021122D01*
X023635D02*
X024265D01*
X023635Y020807D02*
X024265D01*
X02427Y022443D02*
Y022757D01*
X02364Y022443D02*
Y022757D01*
Y022443D02*
X02427D01*
X02364Y022757D02*
X02427D01*
X026322Y024647D02*
X026637D01*
X026322Y025277D02*
X026637D01*
X026322Y024647D02*
Y025277D01*
X026637Y024647D02*
Y025277D01*
X024265Y023193D02*
Y023507D01*
X023635Y023193D02*
Y023507D01*
Y023193D02*
X024265D01*
X023635Y023507D02*
X024265D01*
X023635Y021693D02*
X024265D01*
X023635Y022007D02*
X024265D01*
Y021693D02*
Y022007D01*
X023635Y021693D02*
Y022007D01*
X025293Y02017D02*
X025607D01*
X025293Y01954D02*
X025607D01*
Y02017D01*
X025293Y01954D02*
Y02017D01*
D86*
X016125Y011689D02*
Y012002D01*
X016088Y011689D02*
X016559D01*
X016088Y012002D02*
X016559D01*
X016522Y011689D02*
Y012002D01*
X016559Y011689D02*
Y012002D01*
X016088Y011689D02*
Y012002D01*
X01656Y011688D02*
Y012003D01*
X01652Y011688D02*
X016638D01*
Y012003D01*
X01652D02*
X016638D01*
X016009D02*
X016127D01*
X016087Y011688D02*
Y012002D01*
X016009Y011688D02*
Y012003D01*
Y011688D02*
X016127D01*
X016087Y012002D02*
X01656Y012003D01*
X016087Y011688D02*
X01656Y011688D01*
X013714Y015657D02*
X014186Y015657D01*
X013714Y015343D02*
X014186Y015343D01*
X014147Y015657D02*
X014265D01*
Y015343D02*
Y015657D01*
X014186Y015343D02*
Y015657D01*
X014147Y015343D02*
X014265D01*
X013635D02*
X013753D01*
X013635D02*
Y015657D01*
X013753D01*
X013714Y015343D02*
Y015657D01*
X014186Y015343D02*
Y015657D01*
X013714Y015343D02*
Y015657D01*
X013751Y015343D02*
Y015657D01*
X013714Y015343D02*
X014186D01*
X013714Y015657D02*
X014186D01*
X014149Y015343D02*
Y015657D01*
X013149Y022293D02*
Y022607D01*
X012714D02*
X013186D01*
X012714Y022293D02*
X013186D01*
X012751D02*
Y022607D01*
X012714Y022293D02*
Y022607D01*
X013186Y022293D02*
Y022607D01*
X012714Y022293D02*
Y022607D01*
X012635D02*
X012753D01*
X012635Y022293D02*
Y022607D01*
Y022293D02*
X012753D01*
X013147D02*
X013265D01*
X013186Y022293D02*
Y022607D01*
X013265Y022293D02*
Y022607D01*
X013147D02*
X013265D01*
X012714Y022293D02*
X013186Y022293D01*
X012714Y022607D02*
X013186Y022607D01*
X016127Y012343D02*
Y012657D01*
X01609Y012343D02*
X016561D01*
X01609Y012657D02*
X016561D01*
X016524Y012343D02*
Y012657D01*
X016561Y012343D02*
Y012657D01*
X01609Y012343D02*
Y012657D01*
X016562Y012343D02*
Y012657D01*
X016522Y012343D02*
X016641D01*
Y012657D01*
X016522D02*
X016641D01*
X016011D02*
X016129D01*
X016089Y012343D02*
Y012657D01*
X016011Y012343D02*
Y012657D01*
Y012343D02*
X016129D01*
X016089Y012657D02*
X016562Y012657D01*
X016089Y012343D02*
X016562Y012343D01*
D87*
X024396Y01845D02*
D03*
X020266Y014245D02*
D03*
M02*
