G04*
G04 #@! TF.GenerationSoftware,Altium Limited,Altium Designer,18.1.6 (161)*
G04*
G04 Layer_Color=255*
%FSTAX24Y24*%
%MOIN*%
G70*
G01*
G75*
%ADD20R,0.0374X0.0394*%
%ADD21R,0.0394X0.0374*%
%ADD22R,0.0236X0.0394*%
%ADD23R,0.0866X0.2008*%
%ADD24O,0.0551X0.0236*%
%ADD25R,0.0709X0.0531*%
%ADD26R,0.0472X0.0551*%
G04:AMPARAMS|DCode=27|XSize=31.5mil|YSize=31.5mil|CornerRadius=3.9mil|HoleSize=0mil|Usage=FLASHONLY|Rotation=0.000|XOffset=0mil|YOffset=0mil|HoleType=Round|Shape=RoundedRectangle|*
%AMROUNDEDRECTD27*
21,1,0.0315,0.0236,0,0,0.0*
21,1,0.0236,0.0315,0,0,0.0*
1,1,0.0079,0.0118,-0.0118*
1,1,0.0079,-0.0118,-0.0118*
1,1,0.0079,-0.0118,0.0118*
1,1,0.0079,0.0118,0.0118*
%
%ADD27ROUNDEDRECTD27*%
%ADD28R,0.0315X0.0472*%
%ADD29R,0.0984X0.0669*%
%ADD30R,0.0394X0.0315*%
G04:AMPARAMS|DCode=31|XSize=39.4mil|YSize=35.4mil|CornerRadius=4.4mil|HoleSize=0mil|Usage=FLASHONLY|Rotation=180.000|XOffset=0mil|YOffset=0mil|HoleType=Round|Shape=RoundedRectangle|*
%AMROUNDEDRECTD31*
21,1,0.0394,0.0266,0,0,180.0*
21,1,0.0305,0.0354,0,0,180.0*
1,1,0.0089,-0.0153,0.0133*
1,1,0.0089,0.0153,0.0133*
1,1,0.0089,0.0153,-0.0133*
1,1,0.0089,-0.0153,-0.0133*
%
%ADD31ROUNDEDRECTD31*%
%ADD32O,0.0236X0.0669*%
%ADD33R,0.0846X0.0354*%
%ADD34R,0.0846X0.1280*%
%ADD35R,0.0433X0.0276*%
%ADD36R,0.1378X0.1378*%
%ADD37R,0.0339X0.0571*%
%ADD38R,0.0571X0.0339*%
%ADD39R,0.0551X0.0630*%
%ADD40R,0.0531X0.0157*%
G04:AMPARAMS|DCode=41|XSize=39.4mil|YSize=35.4mil|CornerRadius=4.4mil|HoleSize=0mil|Usage=FLASHONLY|Rotation=270.000|XOffset=0mil|YOffset=0mil|HoleType=Round|Shape=RoundedRectangle|*
%AMROUNDEDRECTD41*
21,1,0.0394,0.0266,0,0,270.0*
21,1,0.0305,0.0354,0,0,270.0*
1,1,0.0089,-0.0133,-0.0153*
1,1,0.0089,-0.0133,0.0153*
1,1,0.0089,0.0133,0.0153*
1,1,0.0089,0.0133,-0.0153*
%
%ADD41ROUNDEDRECTD41*%
G04:AMPARAMS|DCode=67|XSize=110.2mil|YSize=94.5mil|CornerRadius=0mil|HoleSize=0mil|Usage=FLASHONLY|Rotation=0.000|XOffset=0mil|YOffset=0mil|HoleType=Round|Shape=Octagon|*
%AMOCTAGOND67*
4,1,8,0.0551,-0.0236,0.0551,0.0236,0.0315,0.0472,-0.0315,0.0472,-0.0551,0.0236,-0.0551,-0.0236,-0.0315,-0.0472,0.0315,-0.0472,0.0551,-0.0236,0.0*
%
%ADD67OCTAGOND67*%

%ADD71C,0.0787*%
%ADD77R,0.0748X0.0748*%
%ADD80R,0.0630X0.0630*%
%ADD81C,0.0630*%
%ADD82R,0.0630X0.0630*%
%ADD83R,0.0709X0.0709*%
%ADD84C,0.0709*%
G04:AMPARAMS|DCode=85|XSize=78.7mil|YSize=47.2mil|CornerRadius=14.2mil|HoleSize=0mil|Usage=FLASHONLY|Rotation=0.000|XOffset=0mil|YOffset=0mil|HoleType=Round|Shape=RoundedRectangle|*
%AMROUNDEDRECTD85*
21,1,0.0787,0.0189,0,0,0.0*
21,1,0.0504,0.0472,0,0,0.0*
1,1,0.0283,0.0252,-0.0094*
1,1,0.0283,-0.0252,-0.0094*
1,1,0.0283,-0.0252,0.0094*
1,1,0.0283,0.0252,0.0094*
%
%ADD85ROUNDEDRECTD85*%
%ADD86C,0.0750*%
D20*
X02255Y010895D02*
D03*
Y010305D02*
D03*
X021945Y012695D02*
D03*
Y012105D02*
D03*
X022855Y015445D02*
D03*
Y014855D02*
D03*
X026037Y02015D02*
D03*
Y019559D02*
D03*
X026479Y025258D02*
D03*
Y024667D02*
D03*
X0254Y02467D02*
D03*
Y02526D02*
D03*
X021395Y012695D02*
D03*
Y012105D02*
D03*
X02345Y015445D02*
D03*
Y014855D02*
D03*
X015326Y0125D02*
D03*
Y011909D02*
D03*
X02201Y0194D02*
D03*
Y018809D02*
D03*
X02365Y024655D02*
D03*
Y025246D02*
D03*
X01555Y015457D02*
D03*
Y016047D02*
D03*
X014926D02*
D03*
Y015457D02*
D03*
X024245Y024668D02*
D03*
Y025258D02*
D03*
X027679Y018574D02*
D03*
Y017983D02*
D03*
X02285Y019445D02*
D03*
Y018855D02*
D03*
X02595Y025258D02*
D03*
Y024668D02*
D03*
X024829Y025258D02*
D03*
Y024667D02*
D03*
X0255Y019555D02*
D03*
Y020145D02*
D03*
X025Y019555D02*
D03*
Y020145D02*
D03*
D21*
X021405Y0103D02*
D03*
X021995D02*
D03*
Y01085D02*
D03*
X021405D02*
D03*
X017328Y011872D02*
D03*
X017919D02*
D03*
Y012926D02*
D03*
X017328D02*
D03*
X023445Y016535D02*
D03*
X022855D02*
D03*
X021805Y0177D02*
D03*
X022395D02*
D03*
X025395Y0259D02*
D03*
X024805D02*
D03*
X021355Y01145D02*
D03*
X021945D02*
D03*
X027255Y014994D02*
D03*
X027845D02*
D03*
X013245Y0216D02*
D03*
X012655D02*
D03*
Y02665D02*
D03*
X013245D02*
D03*
Y0261D02*
D03*
X012655D02*
D03*
X024245Y0259D02*
D03*
X023655D02*
D03*
X024245Y020965D02*
D03*
X023655D02*
D03*
Y02335D02*
D03*
X024245D02*
D03*
X0205Y015303D02*
D03*
X019909D02*
D03*
X023659Y0226D02*
D03*
X02425D02*
D03*
X025955Y0259D02*
D03*
X026545D02*
D03*
X013245Y0242D02*
D03*
X012655D02*
D03*
Y02355D02*
D03*
X013245D02*
D03*
X012655Y02105D02*
D03*
X013245D02*
D03*
X01325Y02045D02*
D03*
X012659D02*
D03*
X027845Y015518D02*
D03*
X027255D02*
D03*
X022855Y016D02*
D03*
X023445D02*
D03*
X017332Y01345D02*
D03*
X017922D02*
D03*
X012655Y02475D02*
D03*
X013245D02*
D03*
Y02555D02*
D03*
X012655D02*
D03*
X0213Y0177D02*
D03*
X020709D02*
D03*
X017919Y0124D02*
D03*
X017328D02*
D03*
X013421Y01605D02*
D03*
X01283D02*
D03*
X013245Y023004D02*
D03*
X012655D02*
D03*
X020145Y0177D02*
D03*
X019555D02*
D03*
X023655Y022D02*
D03*
X024245D02*
D03*
D22*
X020574Y009609D02*
D03*
X0202D02*
D03*
X019826D02*
D03*
Y010691D02*
D03*
X0202D02*
D03*
X020574D02*
D03*
X018376Y009618D02*
D03*
X01875D02*
D03*
X019124D02*
D03*
Y010682D02*
D03*
X01875D02*
D03*
X018376D02*
D03*
D23*
X02315Y0125D02*
D03*
X027217Y012528D02*
D03*
D24*
X020713Y01165D02*
D03*
Y01215D02*
D03*
Y01265D02*
D03*
Y01315D02*
D03*
X018587Y01165D02*
D03*
Y01215D02*
D03*
Y01265D02*
D03*
Y01315D02*
D03*
D25*
X0138Y011941D02*
D03*
Y013259D02*
D03*
D26*
X014578Y013226D02*
D03*
X015326D02*
D03*
D27*
X01666Y0125D02*
D03*
X015991D02*
D03*
X015989Y011845D02*
D03*
X016658D02*
D03*
X01346Y0155D02*
D03*
X012791D02*
D03*
X012615Y02245D02*
D03*
X013285D02*
D03*
D28*
X0108Y0239D02*
D03*
Y021144D02*
D03*
D29*
X025967Y01845D02*
D03*
X024392D02*
D03*
X020263Y014245D02*
D03*
X021837D02*
D03*
D30*
X02795Y016868D02*
D03*
X02795Y016468D02*
D03*
X02795Y016068D02*
D03*
X02685D02*
D03*
X026848Y016468D02*
D03*
X02685Y016868D02*
D03*
D31*
X014305Y016135D02*
D03*
Y015465D02*
D03*
D32*
X024929Y020917D02*
D03*
X025429D02*
D03*
X025929D02*
D03*
X026429D02*
D03*
X024929Y023712D02*
D03*
X025429D02*
D03*
X025929D02*
D03*
X026429D02*
D03*
D33*
X016548Y016352D02*
D03*
Y01545D02*
D03*
Y014548D02*
D03*
D34*
X018852Y01545D02*
D03*
D35*
X021173Y01585D02*
D03*
X022197Y016224D02*
D03*
Y015476D02*
D03*
D36*
X017249Y02242D02*
D03*
D37*
X015574Y018404D02*
D03*
X016074D02*
D03*
X016574D02*
D03*
X017074D02*
D03*
X017574D02*
D03*
X020074D02*
D03*
X019574D02*
D03*
X019074D02*
D03*
X018574D02*
D03*
X018074D02*
D03*
D38*
X0213Y025428D02*
D03*
Y024928D02*
D03*
Y024428D02*
D03*
Y023928D02*
D03*
Y023428D02*
D03*
Y022928D02*
D03*
Y022428D02*
D03*
Y021928D02*
D03*
Y021428D02*
D03*
Y020928D02*
D03*
Y020428D02*
D03*
Y019928D02*
D03*
Y019428D02*
D03*
Y018928D02*
D03*
X014347Y025428D02*
D03*
Y024928D02*
D03*
Y024428D02*
D03*
Y023928D02*
D03*
Y023428D02*
D03*
Y022928D02*
D03*
Y022428D02*
D03*
Y021928D02*
D03*
Y021428D02*
D03*
Y020928D02*
D03*
Y020428D02*
D03*
Y019928D02*
D03*
Y019428D02*
D03*
Y018928D02*
D03*
D39*
X012261Y011368D02*
D03*
Y013888D02*
D03*
D40*
X01235Y012116D02*
D03*
Y012372D02*
D03*
Y012628D02*
D03*
Y012884D02*
D03*
Y01314D02*
D03*
D41*
X020535Y015957D02*
D03*
X019865D02*
D03*
D67*
X0165Y01065D02*
D03*
X013744D02*
D03*
D71*
X0153Y0144D02*
D03*
X0133D02*
D03*
D77*
X011297Y012156D02*
D03*
Y013101D02*
D03*
D80*
X025987Y0101D02*
D03*
X02685Y03035D02*
D03*
D81*
X024987Y0101D02*
D03*
X027845Y0283D02*
D03*
Y0293D02*
D03*
Y0303D02*
D03*
X02385Y03035D02*
D03*
X02485D02*
D03*
X02585D02*
D03*
X02795Y02225D02*
D03*
Y02325D02*
D03*
Y02425D02*
D03*
Y02525D02*
D03*
X0107Y019345D02*
D03*
Y018345D02*
D03*
Y017345D02*
D03*
Y016345D02*
D03*
Y015345D02*
D03*
D82*
X027845Y0273D02*
D03*
X02795Y02625D02*
D03*
X0107Y020345D02*
D03*
D83*
X01065Y02875D02*
D03*
D84*
Y02775D02*
D03*
Y02675D02*
D03*
Y02575D02*
D03*
D85*
X011297Y011329D02*
D03*
Y013927D02*
D03*
D86*
X0261Y0171D02*
D03*
X0251Y0151D02*
D03*
X0241Y0171D02*
D03*
M02*
