M48
;Layer_Color=9474304
;FILE_FORMAT=2:4
INCH,LZ
;TYPE=PLATED
T1F00S00C0.0118
T2F00S00C0.0150
T4F00S00C0.0315
T5F00S00C0.0350
T6F00S00C0.0402
T7F00S00C0.0433
T8F00S00C0.0472
T9F00S00C0.1260
%
T01
X020001Y01115
X020625Y011125
X021Y011861
X021945Y011777
X02105Y0181
X021654Y0189
X022505Y01965
X0226Y0217
Y022428
X02175Y0222
X0219Y02355
X021878Y023928
X0224Y02395
X02265Y02355
X02353Y022928
Y0243
X0246Y024647
X02495Y02595
X02595Y0256
X02165Y0257
X0217Y0249
X02455Y0205
X0246Y019878
X01238Y019495
X0124Y01895
Y017983
X01265Y01775
X013245Y022
X01236Y02335
X01236Y0239
X01145
X011218Y024307
X013615Y02475
T02
X014887Y011909
X016874Y012926
X01935Y0124
X021395Y013095
X02245Y0124
X021995Y009905
X02075Y009618
X019382
X018068
X019905Y0154
X027945Y01455
X0277Y01745
X02835
X0271Y01905
X0267Y02085
X0275Y02205
X023055Y0238
Y01955
Y0184
X02375Y0165
X0265Y01645
X02085Y01695
X02045Y0173
X02005Y01695
X01595Y016352
X016724Y021887
X017249
Y02242
X016724
Y022957
X017249Y022967
X017784Y022947
Y022428
Y021887
X02396Y0289
X024818Y02885
X012395Y027865
X0118Y024965
X0121Y024218
X0137Y023004
X0138Y02555
X012659Y02005
X011206Y021132
X01238Y01593
X0149Y016468
X01515Y01825
T04
X025Y00985
X026
T05
X0251Y0151
X0241Y0171
X0261
T06
X0107Y02575
Y02675
Y02775
Y02875
T07
X0107Y014985
X027975Y019428
Y020428
Y021428
Y022428
X0281Y0237
Y0247
Y0257
Y0267
Y0277
X02655Y0301
X02555
X02455
X02355
X0107Y019985
Y018985
Y017985
Y016985
Y015985
T08
X013744Y01065
X0133Y0144
X0153
X0165Y01065
T09
X0108Y00955
X027975
X027945Y03
X01075Y0301
M30
