M48
;Layer_Color=9474304
;FILE_FORMAT=2:4
INCH,LZ
;TYPE=PLATED
T1F00S00C0.0100
T2F00S00C0.0150
T4F00S00C0.0315
T5F00S00C0.0350
T6F00S00C0.0402
T7F00S00C0.0433
T8F00S00C0.0472
T9F00S00C0.1260
%
T01
X020001Y01115
X020625Y011125
X02085Y01185
X021945Y011777
X0213Y016985
X020709Y018041
X0192Y0177
X01845Y01793
X0161
X02195Y02
X021792Y02045
X02305Y02145
X0233Y0227
X023069Y02335
X0225Y0228
X02225Y0245
X0233Y02495
X02326Y02585
X021615Y0256
X0236Y024186
X02445Y024407
X02485Y0263
X02663Y0273
X02665Y0282
X0261Y02295
X013245Y022
X013Y0239
X01236Y02335
X01135Y023878
X01355Y02475
X01385Y01945
Y018965
T02
X014887Y011909
X016874Y012926
X01935Y0124
X021395Y013095
X02245Y0124
X021995Y009905
X020891Y009609
X019382Y009618
X018068
X019553Y015303
X027845Y014595
X0277Y01745
X02805Y018574
X027025Y019825
X0267Y02085
X02455Y01955
X0224Y0191
X02236Y016699
X02375Y0165
X0265Y01645
X01992Y01725
X01595Y016047
X016724Y021887
X017249
Y02242
X016724
Y022957
X017249Y022967
X017784Y022947
Y022428
Y021887
X023069Y025246
X02595Y02625
X02705Y0259
Y024655
X0139Y02555
X0121Y0261
Y024218
X0136Y023004
X012659Y02005
X011156Y021144
X015432Y01825
X0143Y01665
X01385Y01605
T04
X024987Y0101
X025987
T05
X0251Y0151
X0261Y0171
X0241
T06
X01065Y02575
Y02675
Y02775
Y02875
T07
X0107Y015345
X02795Y02225
Y02325
Y02425
Y02525
Y02625
X027845Y0273
Y0283
Y0293
Y0303
X02685Y03035
X02585
X02485
X02385
X0107Y020345
Y019345
Y018345
Y017345
Y016345
T08
X013744Y01065
X0133Y0144
X0153
X0165Y01065
T09
X0108Y00985
X0278
X0108Y03025
M30
