G04*
G04 #@! TF.GenerationSoftware,Altium Limited,Altium Designer,18.1.6 (161)*
G04*
G04 Layer_Color=8388736*
%FSTAX24Y24*%
%MOIN*%
G70*
G01*
G75*
%ADD42R,0.0434X0.0454*%
%ADD43R,0.0454X0.0434*%
%ADD44R,0.0316X0.0474*%
%ADD45R,0.0946X0.2088*%
%ADD46O,0.0631X0.0316*%
%ADD47R,0.0789X0.0611*%
%ADD48R,0.0552X0.0631*%
G04:AMPARAMS|DCode=49|XSize=39.5mil|YSize=39.5mil|CornerRadius=7.9mil|HoleSize=0mil|Usage=FLASHONLY|Rotation=0.000|XOffset=0mil|YOffset=0mil|HoleType=Round|Shape=RoundedRectangle|*
%AMROUNDEDRECTD49*
21,1,0.0395,0.0236,0,0,0.0*
21,1,0.0236,0.0395,0,0,0.0*
1,1,0.0159,0.0118,-0.0118*
1,1,0.0159,-0.0118,-0.0118*
1,1,0.0159,-0.0118,0.0118*
1,1,0.0159,0.0118,0.0118*
%
%ADD49ROUNDEDRECTD49*%
%ADD50R,0.0395X0.0552*%
%ADD51R,0.1064X0.0749*%
%ADD52R,0.0474X0.0395*%
G04:AMPARAMS|DCode=53|XSize=47.4mil|YSize=43.4mil|CornerRadius=8.4mil|HoleSize=0mil|Usage=FLASHONLY|Rotation=180.000|XOffset=0mil|YOffset=0mil|HoleType=Round|Shape=RoundedRectangle|*
%AMROUNDEDRECTD53*
21,1,0.0474,0.0266,0,0,180.0*
21,1,0.0305,0.0434,0,0,180.0*
1,1,0.0169,-0.0153,0.0133*
1,1,0.0169,0.0153,0.0133*
1,1,0.0169,0.0153,-0.0133*
1,1,0.0169,-0.0153,-0.0133*
%
%ADD53ROUNDEDRECTD53*%
%ADD54O,0.0316X0.0749*%
%ADD55R,0.0926X0.0434*%
%ADD56R,0.0926X0.1360*%
%ADD57R,0.0513X0.0356*%
%ADD58R,0.1458X0.1458*%
%ADD59R,0.0419X0.0651*%
%ADD60R,0.0651X0.0419*%
%ADD61R,0.0631X0.0710*%
%ADD62R,0.0828X0.0828*%
%ADD63R,0.0571X0.0197*%
G04:AMPARAMS|DCode=64|XSize=47.4mil|YSize=43.4mil|CornerRadius=8.4mil|HoleSize=0mil|Usage=FLASHONLY|Rotation=270.000|XOffset=0mil|YOffset=0mil|HoleType=Round|Shape=RoundedRectangle|*
%AMROUNDEDRECTD64*
21,1,0.0474,0.0266,0,0,270.0*
21,1,0.0305,0.0434,0,0,270.0*
1,1,0.0169,-0.0133,-0.0153*
1,1,0.0169,-0.0133,0.0153*
1,1,0.0169,0.0133,0.0153*
1,1,0.0169,0.0133,-0.0153*
%
%ADD64ROUNDEDRECTD64*%
%ADD65R,0.0710X0.0710*%
%ADD66C,0.0710*%
G04:AMPARAMS|DCode=67|XSize=110.2mil|YSize=94.5mil|CornerRadius=0mil|HoleSize=0mil|Usage=FLASHONLY|Rotation=0.000|XOffset=0mil|YOffset=0mil|HoleType=Round|Shape=Octagon|*
%AMOCTAGOND67*
4,1,8,0.0551,-0.0236,0.0551,0.0236,0.0315,0.0472,-0.0315,0.0472,-0.0551,0.0236,-0.0551,-0.0236,-0.0315,-0.0472,0.0315,-0.0472,0.0551,-0.0236,0.0*
%
%ADD67OCTAGOND67*%

%ADD68R,0.0710X0.0710*%
%ADD69R,0.0789X0.0789*%
%ADD70C,0.0789*%
%ADD71C,0.0787*%
G04:AMPARAMS|DCode=72|XSize=86.7mil|YSize=55.2mil|CornerRadius=18.2mil|HoleSize=0mil|Usage=FLASHONLY|Rotation=0.000|XOffset=0mil|YOffset=0mil|HoleType=Round|Shape=RoundedRectangle|*
%AMROUNDEDRECTD72*
21,1,0.0867,0.0189,0,0,0.0*
21,1,0.0504,0.0552,0,0,0.0*
1,1,0.0363,0.0252,-0.0094*
1,1,0.0363,-0.0252,-0.0094*
1,1,0.0363,-0.0252,0.0094*
1,1,0.0363,0.0252,0.0094*
%
%ADD72ROUNDEDRECTD72*%
%ADD73C,0.0830*%
%ADD74C,0.0280*%
%ADD75C,0.1379*%
%ADD76C,0.0380*%
D42*
X02255Y010895D02*
D03*
Y010305D02*
D03*
X021945Y012695D02*
D03*
Y012105D02*
D03*
X022855Y015445D02*
D03*
Y014855D02*
D03*
X026037Y02015D02*
D03*
Y019559D02*
D03*
X026479Y025258D02*
D03*
Y024667D02*
D03*
X0254Y02467D02*
D03*
Y02526D02*
D03*
X021395Y012695D02*
D03*
Y012105D02*
D03*
X02345Y015445D02*
D03*
Y014855D02*
D03*
X015326Y0125D02*
D03*
Y011909D02*
D03*
X02201Y0194D02*
D03*
Y018809D02*
D03*
X02365Y024655D02*
D03*
Y025246D02*
D03*
X01555Y015457D02*
D03*
Y016047D02*
D03*
X014926D02*
D03*
Y015457D02*
D03*
X024245Y024668D02*
D03*
Y025258D02*
D03*
X027679Y018574D02*
D03*
Y017983D02*
D03*
X02285Y019445D02*
D03*
Y018855D02*
D03*
X02595Y025258D02*
D03*
Y024668D02*
D03*
X024829Y025258D02*
D03*
Y024667D02*
D03*
X0255Y019555D02*
D03*
Y020145D02*
D03*
X025Y019555D02*
D03*
Y020145D02*
D03*
D43*
X021405Y0103D02*
D03*
X021995D02*
D03*
Y01085D02*
D03*
X021405D02*
D03*
X017328Y011872D02*
D03*
X017919D02*
D03*
Y012926D02*
D03*
X017328D02*
D03*
X023445Y016535D02*
D03*
X022855D02*
D03*
X021805Y0177D02*
D03*
X022395D02*
D03*
X025395Y0259D02*
D03*
X024805D02*
D03*
X021355Y01145D02*
D03*
X021945D02*
D03*
X027255Y014994D02*
D03*
X027845D02*
D03*
X013245Y0216D02*
D03*
X012655D02*
D03*
Y02665D02*
D03*
X013245D02*
D03*
Y0261D02*
D03*
X012655D02*
D03*
X024245Y0259D02*
D03*
X023655D02*
D03*
X024245Y020965D02*
D03*
X023655D02*
D03*
Y02335D02*
D03*
X024245D02*
D03*
X0205Y015303D02*
D03*
X019909D02*
D03*
X023659Y0226D02*
D03*
X02425D02*
D03*
X025955Y0259D02*
D03*
X026545D02*
D03*
X013245Y0242D02*
D03*
X012655D02*
D03*
Y02355D02*
D03*
X013245D02*
D03*
X012655Y02105D02*
D03*
X013245D02*
D03*
X01325Y02045D02*
D03*
X012659D02*
D03*
X027845Y015518D02*
D03*
X027255D02*
D03*
X022855Y016D02*
D03*
X023445D02*
D03*
X017332Y01345D02*
D03*
X017922D02*
D03*
X012655Y02475D02*
D03*
X013245D02*
D03*
Y02555D02*
D03*
X012655D02*
D03*
X0213Y0177D02*
D03*
X020709D02*
D03*
X017919Y0124D02*
D03*
X017328D02*
D03*
X013421Y01605D02*
D03*
X01283D02*
D03*
X013245Y023004D02*
D03*
X012655D02*
D03*
X020145Y0177D02*
D03*
X019555D02*
D03*
X023655Y022D02*
D03*
X024245D02*
D03*
D44*
X020574Y009609D02*
D03*
X0202D02*
D03*
X019826D02*
D03*
Y010691D02*
D03*
X0202D02*
D03*
X020574D02*
D03*
X018376Y009618D02*
D03*
X01875D02*
D03*
X019124D02*
D03*
Y010682D02*
D03*
X01875D02*
D03*
X018376D02*
D03*
D45*
X02315Y0125D02*
D03*
X027217Y012528D02*
D03*
D46*
X020713Y01165D02*
D03*
Y01215D02*
D03*
Y01265D02*
D03*
Y01315D02*
D03*
X018587Y01165D02*
D03*
Y01215D02*
D03*
Y01265D02*
D03*
Y01315D02*
D03*
D47*
X0138Y011941D02*
D03*
Y013259D02*
D03*
D48*
X014578Y013226D02*
D03*
X015326D02*
D03*
D49*
X01666Y0125D02*
D03*
X015991D02*
D03*
X015989Y011845D02*
D03*
X016658D02*
D03*
X01346Y0155D02*
D03*
X012791D02*
D03*
X012615Y02245D02*
D03*
X013285D02*
D03*
D50*
X0108Y0239D02*
D03*
Y021144D02*
D03*
D51*
X025967Y01845D02*
D03*
X024392D02*
D03*
X020263Y014245D02*
D03*
X021837D02*
D03*
D52*
X02795Y016868D02*
D03*
X02795Y016468D02*
D03*
X02795Y016068D02*
D03*
X02685D02*
D03*
X026848Y016468D02*
D03*
X02685Y016868D02*
D03*
D53*
X014305Y016135D02*
D03*
Y015465D02*
D03*
D54*
X024929Y020917D02*
D03*
X025429D02*
D03*
X025929D02*
D03*
X026429D02*
D03*
X024929Y023712D02*
D03*
X025429D02*
D03*
X025929D02*
D03*
X026429D02*
D03*
D55*
X016548Y016352D02*
D03*
Y01545D02*
D03*
Y014548D02*
D03*
D56*
X018852Y01545D02*
D03*
D57*
X021173Y01585D02*
D03*
X022197Y016224D02*
D03*
Y015476D02*
D03*
D58*
X017249Y02242D02*
D03*
D59*
X015574Y018404D02*
D03*
X016074D02*
D03*
X016574D02*
D03*
X017074D02*
D03*
X017574D02*
D03*
X020074D02*
D03*
X019574D02*
D03*
X019074D02*
D03*
X018574D02*
D03*
X018074D02*
D03*
D60*
X0213Y025428D02*
D03*
Y024928D02*
D03*
Y024428D02*
D03*
Y023928D02*
D03*
Y023428D02*
D03*
Y022928D02*
D03*
Y022428D02*
D03*
Y021928D02*
D03*
Y021428D02*
D03*
Y020928D02*
D03*
Y020428D02*
D03*
Y019928D02*
D03*
Y019428D02*
D03*
Y018928D02*
D03*
X014347Y025428D02*
D03*
Y024928D02*
D03*
Y024428D02*
D03*
Y023928D02*
D03*
Y023428D02*
D03*
Y022928D02*
D03*
Y022428D02*
D03*
Y021928D02*
D03*
Y021428D02*
D03*
Y020928D02*
D03*
Y020428D02*
D03*
Y019928D02*
D03*
Y019428D02*
D03*
Y018928D02*
D03*
D61*
X012261Y011368D02*
D03*
Y013888D02*
D03*
D62*
X011297Y012156D02*
D03*
Y013101D02*
D03*
D63*
X01235Y012116D02*
D03*
Y012372D02*
D03*
Y012628D02*
D03*
Y012884D02*
D03*
Y01314D02*
D03*
D64*
X020535Y015957D02*
D03*
X019865D02*
D03*
D65*
X025987Y0101D02*
D03*
X02685Y03035D02*
D03*
D66*
X024987Y0101D02*
D03*
X027845Y0283D02*
D03*
Y0293D02*
D03*
Y0303D02*
D03*
X02385Y03035D02*
D03*
X02485D02*
D03*
X02585D02*
D03*
X02795Y02225D02*
D03*
Y02325D02*
D03*
Y02425D02*
D03*
Y02525D02*
D03*
X0107Y019345D02*
D03*
Y018345D02*
D03*
Y017345D02*
D03*
Y016345D02*
D03*
Y015345D02*
D03*
D67*
X0165Y01065D02*
D03*
X013744D02*
D03*
D68*
X027845Y0273D02*
D03*
X02795Y02625D02*
D03*
X0107Y020345D02*
D03*
D69*
X01065Y02875D02*
D03*
D70*
Y02775D02*
D03*
Y02675D02*
D03*
Y02575D02*
D03*
D71*
X0153Y0144D02*
D03*
X0133D02*
D03*
D72*
X011297Y011329D02*
D03*
Y013927D02*
D03*
D73*
X0261Y0171D02*
D03*
X0251Y0151D02*
D03*
X0241Y0171D02*
D03*
D74*
X02085Y01185D02*
D03*
X021945Y011777D02*
D03*
X02663Y0273D02*
D03*
X02485Y0263D02*
D03*
X02326Y02585D02*
D03*
X020625Y011125D02*
D03*
X020001Y01115D02*
D03*
X0192Y0177D02*
D03*
X02305Y02145D02*
D03*
X0213Y016985D02*
D03*
X01236Y02335D02*
D03*
X01355Y02475D02*
D03*
X01135Y023878D02*
D03*
X0161Y01793D02*
D03*
X020709Y018041D02*
D03*
X02665Y0282D02*
D03*
X01845Y01793D02*
D03*
X02195Y02D02*
D03*
X021792Y02045D02*
D03*
X021615Y0256D02*
D03*
X02225Y0245D02*
D03*
X0225Y0228D02*
D03*
X023069Y02335D02*
D03*
X0233Y0227D02*
D03*
Y02495D02*
D03*
X02445Y024407D02*
D03*
X0236Y024186D02*
D03*
X0261Y02295D02*
D03*
X013Y0239D02*
D03*
X013245Y022D02*
D03*
X01385Y01945D02*
D03*
Y018965D02*
D03*
D75*
X0278Y00985D02*
D03*
X0108D02*
D03*
Y03025D02*
D03*
D76*
X0267Y02085D02*
D03*
X027025Y019825D02*
D03*
X02705Y0259D02*
D03*
Y024655D02*
D03*
X027845Y014595D02*
D03*
X02595Y02625D02*
D03*
X021395Y013095D02*
D03*
X020891Y009609D02*
D03*
X019382Y009618D02*
D03*
X018068D02*
D03*
X021995Y009905D02*
D03*
X02245Y0124D02*
D03*
X01935D02*
D03*
X02375Y0165D02*
D03*
X0136Y023004D02*
D03*
X0265Y01645D02*
D03*
X02236Y016699D02*
D03*
X02805Y018574D02*
D03*
X0277Y01745D02*
D03*
X012659Y02005D02*
D03*
X0121Y024218D02*
D03*
Y0261D02*
D03*
X01992Y01725D02*
D03*
X016724Y022957D02*
D03*
X017249Y02242D02*
D03*
Y022967D02*
D03*
X017784Y022947D02*
D03*
X016724Y02242D02*
D03*
X017784Y022428D02*
D03*
X017249Y021887D02*
D03*
X016724D02*
D03*
X017784D02*
D03*
X011156Y021144D02*
D03*
X02455Y01955D02*
D03*
X023069Y025246D02*
D03*
X0224Y0191D02*
D03*
X019553Y015303D02*
D03*
X0143Y01665D02*
D03*
X0139Y02555D02*
D03*
X015432Y01825D02*
D03*
X01385Y01605D02*
D03*
X01595Y016047D02*
D03*
X016874Y012926D02*
D03*
X014887Y011909D02*
D03*
M02*
